<svg viewBox="0 0 17 17" xmlns="http://www.w3.org/2000/svg">
<path d="M6.18944 3.81345C6.05091 3.81041 5.91486 3.85057 5.80023 3.92841C5.68559 4.00626 5.59805 4.11794 5.54979 4.24783C5.50153 4.37773 5.49494 4.51941 5.53093 4.65322C5.56693 4.78703 5.64372 4.90625 5.75064 4.9944L9.83007 8.48919L5.75064 11.9827C5.67668 12.0371 5.61474 12.1061 5.5687 12.1855C5.52266 12.2649 5.49351 12.353 5.48308 12.4442C5.47265 12.5354 5.48116 12.6277 5.50807 12.7155C5.53499 12.8032 5.57973 12.8845 5.6395 12.9542C5.69927 13.0238 5.77278 13.0803 5.85543 13.1202C5.93807 13.1602 6.02807 13.1826 6.11979 13.1861C6.21151 13.1897 6.30297 13.1743 6.38844 13.1409C6.47392 13.1074 6.55156 13.0567 6.61652 12.9918L11.2871 8.9957C11.3604 8.9331 11.4193 8.85541 11.4597 8.76786C11.5001 8.6803 11.521 8.585 11.521 8.48857C11.521 8.39215 11.5001 8.29685 11.4597 8.20929C11.4193 8.12174 11.3604 8.04397 11.2871 7.98138L6.61652 3.98139C6.49854 3.87659 6.34721 3.81701 6.18944 3.8133V3.81345Z"/>
</svg>
