<svg viewBox="0 0 13 13" xmlns="http://www.w3.org/2000/svg">
<path d="M12.1736 0.62C12.0721 0.375651 11.8779 0.181475 11.6336 0.0799999C11.5134 0.028759 11.3843 0.00157999 11.2536 0H1.2536C0.988385 0 0.734031 0.105357 0.546494 0.292893C0.358958 0.48043 0.253601 0.734784 0.253601 1C0.253601 1.26522 0.358958 1.51957 0.546494 1.70711C0.734031 1.89464 0.988385 2 1.2536 2H8.8436L0.543601 10.29C0.449873 10.383 0.375479 10.4936 0.32471 10.6154C0.273941 10.7373 0.247803 10.868 0.247803 11C0.247803 11.132 0.273941 11.2627 0.32471 11.3846C0.375479 11.5064 0.449873 11.617 0.543601 11.71C0.636564 11.8037 0.747165 11.8781 0.869024 11.9289C0.990884 11.9797 1.12159 12.0058 1.2536 12.0058C1.38561 12.0058 1.51632 11.9797 1.63818 11.9289C1.76004 11.8781 1.87064 11.8037 1.9636 11.71L10.2536 3.41V11C10.2536 11.2652 10.359 11.5196 10.5465 11.7071C10.734 11.8946 10.9884 12 11.2536 12C11.5188 12 11.7732 11.8946 11.9607 11.7071C12.1482 11.5196 12.2536 11.2652 12.2536 11V1C12.252 0.869323 12.2248 0.740222 12.1736 0.62Z"/>
</svg>
