<svg width="26" height="28" viewBox="0 0 26 28" fill="none" xmlns="http://www.w3.org/2000/svg">
<path d="M13 13C9.67188 13 6.96429 15.7076 6.96429 19.0357C6.96429 22.3638 9.67188 25.0714 13 25.0714C16.3281 25.0714 19.0357 22.3638 19.0357 19.0357C19.0357 15.7076 16.3281 13 13 13ZM13 24.1429C10.1839 24.1429 7.89286 21.8518 7.89286 19.0357C7.89286 16.2196 10.1839 13.9286 13 13.9286C15.8161 13.9286 18.1071 16.2196 18.1071 19.0357C18.1071 21.8518 15.8161 24.1429 13 24.1429ZM13.3714 15.0429C13.3282 14.9852 13.2721 14.9384 13.2076 14.9061C13.1432 14.8739 13.0721 14.8571 13 14.8571C12.9279 14.8571 12.8568 14.8739 12.7924 14.9061C12.7279 14.9384 12.6718 14.9852 12.6286 15.0429L11.3422 16.7581L9.19466 17.1876C9.11774 17.203 9.04597 17.2376 8.98605 17.2882C8.92614 17.3389 8.88003 17.4038 8.85203 17.4771C8.82403 17.5504 8.81506 17.6296 8.82594 17.7073C8.83683 17.785 8.86722 17.8586 8.91429 17.9214L10.1826 19.6125L9.759 21.7303C9.74304 21.8101 9.74831 21.8926 9.77428 21.9697C9.80025 22.0467 9.84601 22.1156 9.90697 22.1694C9.96794 22.2233 10.042 22.2601 10.1217 22.2764C10.2014 22.2926 10.2839 22.2876 10.3611 22.2619L13 21.3823L15.6389 22.2619C15.716 22.2877 15.7986 22.2927 15.8783 22.2765C15.958 22.2602 16.032 22.2233 16.093 22.1695C16.1539 22.1157 16.1997 22.0468 16.2256 21.9697C16.2516 21.8926 16.2569 21.8101 16.2409 21.7304L15.8173 19.6125L17.0857 17.9214C17.1328 17.8587 17.1633 17.785 17.1742 17.7073C17.1851 17.6296 17.1761 17.5504 17.1481 17.4771C17.1201 17.4038 17.074 17.3388 17.014 17.2882C16.9541 17.2376 16.8823 17.203 16.8053 17.1876L14.6578 16.7582L13.3714 15.0429ZM14.95 19.2214C14.9108 19.2737 14.8831 19.3336 14.8686 19.3973C14.8542 19.461 14.8533 19.527 14.8661 19.5911L15.1735 21.128L13.1468 20.4524C13.0515 20.4207 12.9485 20.4207 12.8532 20.4524L10.8264 21.128L11.1338 19.5911C11.1466 19.527 11.1458 19.461 11.1313 19.3973C11.1169 19.3336 11.0891 19.2737 11.0499 19.2214L10.0991 17.9536L11.6981 17.6338C11.8102 17.6114 11.91 17.5485 11.9785 17.4571L12.9999 16.0952L14.0214 17.4571C14.0899 17.5485 14.1897 17.6114 14.3017 17.6338L15.9007 17.9536L14.95 19.2214ZM21.5826 10.0406C20.3064 9.33156 19.0425 8.87813 18.2173 8.62463C18.9884 8.01334 20.0846 7.03538 20.3989 6.19897C20.8097 5.10558 21.7641 1.66272 21.8045 1.51671C21.8236 1.44776 21.8265 1.37535 21.813 1.3051C21.7995 1.23486 21.7699 1.16869 21.7266 1.11176C21.6833 1.05483 21.6274 1.00867 21.5633 0.976897C21.4992 0.94512 21.4287 0.928582 21.3571 0.928571C20.5201 0.928571 20.069 1.22925 19.7066 1.47086C19.3828 1.68663 19.1271 1.85714 18.5712 1.85714C18.1284 1.85714 17.9055 1.58873 17.5496 1.11423C17.1772 0.617848 16.7138 0 15.7852 0C14.8566 0 14.3933 0.617848 14.021 1.11429C13.6651 1.58873 13.4423 1.85714 12.9996 1.85714C12.5569 1.85714 12.334 1.58873 11.9782 1.11429C11.6058 0.61779 11.1425 0 10.2139 0C9.28537 0 8.82207 0.617848 8.44977 1.11429C8.09395 1.58873 7.87109 1.85714 7.4284 1.85714C6.87259 1.85714 6.61688 1.68663 6.29316 1.47086C5.93079 1.22925 5.47979 0.928571 4.64286 0.928571C4.57131 0.92857 4.50074 0.945103 4.43664 0.976879C4.37254 1.00865 4.31665 1.05481 4.27333 1.11175C4.23002 1.1687 4.20044 1.23488 4.18693 1.30513C4.17341 1.37539 4.17631 1.44781 4.1954 1.51676C4.23585 1.66278 5.19025 5.10563 5.60108 6.19903C5.91535 7.03544 7.01158 8.0134 7.78265 8.62469C6.95744 8.87813 5.69354 9.33162 4.41739 10.0406C1.5275 11.6461 0 13.7932 0 16.25C0 16.3731 0.0489158 16.4912 0.135986 16.5783C0.223057 16.6654 0.341149 16.7143 0.464286 16.7143C0.587422 16.7143 0.705515 16.6654 0.792585 16.5783C0.879656 16.4912 0.928571 16.3731 0.928571 16.25C0.928571 14.1257 2.24819 12.313 4.8508 10.862C5.76533 10.3522 6.68693 9.97872 7.42184 9.72238C6.04906 11.3679 3.77621 14.3496 3.26155 16.6113C3.08849 17.3719 2.78043 19.5814 2.34604 23.1781C2.27538 23.7647 2.32989 24.3597 2.50596 24.9238C2.68203 25.4878 2.97567 26.0082 3.36752 26.4505C3.75974 26.8926 4.24123 27.2466 4.78023 27.489C5.31924 27.7315 5.90352 27.857 6.49454 27.8571H19.5054C20.0964 27.857 20.6807 27.7315 21.2197 27.4891C21.7587 27.2466 22.2402 26.8926 22.6324 26.4505C23.0243 26.0082 23.3179 25.4878 23.494 24.9238C23.6701 24.3597 23.7246 23.7647 23.6539 23.1781C23.2195 19.5813 22.9115 17.3719 22.7384 16.6113C22.2237 14.3496 19.9509 11.3679 18.5781 9.72238C19.3131 9.97878 20.2347 10.3522 21.1492 10.862C23.7518 12.313 25.0714 14.1257 25.0714 16.25C25.0714 16.3731 25.1203 16.4912 25.2074 16.5783C25.2945 16.6654 25.4126 16.7143 25.5357 16.7143C25.6588 16.7143 25.7769 16.6654 25.864 16.5783C25.9511 16.4912 26 16.3731 26 16.25C26 13.7932 24.4725 11.6461 21.5826 10.0406ZM16.9726 9.28572C17.2452 9.59089 17.5128 9.90045 17.7754 10.2143H8.22488C8.4874 9.90047 8.75496 9.59091 9.02746 9.28572H16.9726ZM6.47034 5.87246C6.18307 5.1079 5.59238 3.05169 5.28525 1.96457C5.46458 2.0345 5.6124 2.13304 5.77804 2.24349C6.14041 2.48503 6.59141 2.78571 7.4284 2.78571C8.35691 2.78571 8.82027 2.16787 9.19262 1.67143C9.54838 1.19699 9.7713 0.928571 10.2139 0.928571C10.6566 0.928571 10.8795 1.19699 11.2354 1.67143C11.6077 2.16792 12.0711 2.78571 12.9997 2.78571C13.9282 2.78571 14.3916 2.16787 14.7639 1.67143C15.1197 1.19699 15.3426 0.928571 15.7852 0.928571C16.228 0.928571 16.4509 1.19699 16.8068 1.67143C17.1791 2.16792 17.6426 2.78571 18.5712 2.78571C19.4082 2.78571 19.8593 2.48503 20.2217 2.24343C20.3874 2.13299 20.5353 2.03438 20.7147 1.96445C20.4077 3.05158 19.8169 5.10784 19.5297 5.8724C19.234 6.65919 17.7238 7.86076 17.0312 8.35708H16.4299L17.1548 6.18249C17.1937 6.06567 17.1847 5.93817 17.1296 5.82803C17.0745 5.71789 16.978 5.63414 16.8611 5.59519C16.7443 5.55625 16.6168 5.56531 16.5067 5.62038C16.3965 5.67544 16.3128 5.77201 16.2739 5.88883L15.4511 8.35714H13.4643V6.03571C13.4643 5.91258 13.4154 5.79449 13.3283 5.70742C13.2412 5.62034 13.1231 5.57143 13 5.57143C12.8769 5.57143 12.7588 5.62034 12.6717 5.70742C12.5846 5.79449 12.5357 5.91258 12.5357 6.03571V8.35714H10.5489L9.72615 5.88888C9.68584 5.7738 9.60189 5.67919 9.49241 5.62548C9.38294 5.57178 9.25673 5.56329 9.14106 5.60185C9.02538 5.64042 8.92951 5.72293 8.87416 5.83158C8.8188 5.94023 8.80841 6.0663 8.84522 6.18254L9.57009 8.35714H8.96884C8.27624 7.86076 6.76598 6.65925 6.47034 5.87246ZM22.7321 23.2894C22.787 23.7457 22.7447 24.2084 22.6077 24.6471C22.4708 25.0858 22.2424 25.4905 21.9377 25.8345C21.6326 26.1784 21.2581 26.4537 20.8389 26.6423C20.4196 26.8309 19.9652 26.9284 19.5055 26.9286H6.49454C6.03483 26.9284 5.58037 26.8309 5.16112 26.6423C4.74188 26.4537 4.36738 26.1783 4.06233 25.8344C3.75757 25.4904 3.52919 25.0857 3.39226 24.647C3.25533 24.2083 3.21296 23.7456 3.26793 23.2893C3.69241 19.7746 4.0033 17.5365 4.16696 16.8172C4.56248 15.0794 6.17999 12.7733 7.46885 11.1428H18.5314C19.8201 12.7728 21.4372 15.0783 21.8329 16.8172C21.9967 17.5366 22.3076 19.7746 22.7321 23.2894Z" fill="white"/>
</svg>
