<svg width="60" height="60" viewBox="0 0 60 60" fill="none" xmlns="http://www.w3.org/2000/svg">
<g clip-path="url(#clip0_669_1644)">
<path d="M30 60C46.5685 60 60 46.5685 60 30C60 13.4315 46.5685 0 30 0C13.4315 0 0 13.4315 0 30C0 46.5685 13.4315 60 30 60Z" fill="#95CDB2"/>
<path d="M30 0V60C46.5703 60 60 46.5703 60 30C60 13.4297 46.5703 0 30 0Z" fill="#95CDB2"/>
<path d="M55.3359 26.625H51.9141V23.7539H55.3359C56.1328 23.7539 56.7656 24.3984 56.7656 25.1836C56.7773 25.9805 56.1328 26.625 55.3359 26.625Z" fill="white"/>
<path d="M42.9258 34.6172C48.1293 34.6172 52.3477 30.3989 52.3477 25.1953C52.3477 19.9918 48.1293 15.7734 42.9258 15.7734C37.7222 15.7734 33.5039 19.9918 33.5039 25.1953C33.5039 30.3989 37.7222 34.6172 42.9258 34.6172Z" fill="white"/>
<path d="M42.9258 31.2305C46.2589 31.2305 48.9609 28.5284 48.9609 25.1953C48.9609 21.8622 46.2589 19.1602 42.9258 19.1602C39.5927 19.1602 36.8906 21.8622 36.8906 25.1953C36.8906 28.5284 39.5927 31.2305 42.9258 31.2305Z" fill="#95CDB2"/>
<path d="M54.2227 60H53.9297C53.5781 60 53.2969 59.7188 53.2969 59.3672V26.625H54.8555V59.3672C54.8555 59.7188 54.5742 60 54.2227 60Z" fill="white"/>
<path d="M42.9258 28.207C44.1102 28.207 45.0703 26.8586 45.0703 25.1953C45.0703 23.532 44.1102 22.1836 42.9258 22.1836C41.7414 22.1836 40.7812 23.532 40.7812 25.1953C40.7812 26.8586 41.7414 28.207 42.9258 28.207Z" fill="white"/>
<path d="M14.8008 28.5586C16.1276 28.5586 17.2031 27.0528 17.2031 25.1953C17.2031 23.3378 16.1276 21.832 14.8008 21.832C13.474 21.832 12.3984 23.3378 12.3984 25.1953C12.3984 27.0528 13.474 28.5586 14.8008 28.5586Z" fill="white"/>
<path d="M11.0036 18.7382C10.6755 18.7382 10.3474 18.5624 10.1833 18.2577C9.93724 17.8007 10.0896 17.2382 10.5466 16.9921C10.699 16.9101 14.3669 14.9062 19.406 16.4765C19.8982 16.6288 20.1794 17.1562 20.0271 17.6484C19.8747 18.1406 19.3474 18.4218 18.8552 18.2695C14.613 16.9452 11.5896 18.5624 11.4607 18.6327C11.3083 18.6913 11.156 18.7382 11.0036 18.7382Z" fill="white"/>
<path d="M41.4137 15.0706C41.1793 15.0706 40.9567 14.9885 40.7809 14.8245C40.4059 14.4729 40.3825 13.887 40.734 13.5002C40.8512 13.3713 43.7223 10.3362 48.9958 10.2659C49.5231 10.2541 49.9333 10.676 49.945 11.1916C49.9567 11.7073 49.5348 12.1291 49.0192 12.1409C44.5778 12.1995 42.1989 14.6721 42.1051 14.7776C41.9059 14.9768 41.6598 15.0706 41.4137 15.0706Z" fill="white"/>
<path d="M19.9381 41C19.6796 41 19.4329 41.1061 19.2449 41.3064C18.8925 41.6953 18.9277 42.2846 19.3037 42.6381C24.8959 47.7411 30.1591 47.4464 33.6014 46.3151C37.2904 45.1012 39.6283 42.697 39.734 42.6028C40.0982 42.2256 40.0865 41.6364 39.7105 41.2711C39.3346 40.9057 38.7472 40.9175 38.383 41.2946C38.3477 41.33 36.2095 43.4984 32.9552 44.5591C28.6671 45.9497 24.4964 44.8419 20.5725 41.2593C20.3845 41.0825 20.1613 41 19.9381 41Z" fill="white"/>
<path d="M39.7343 42.5928C39.6387 42.6988 37.2507 45.0894 33.5015 46.3142C32.2239 46.7264 30.6955 47.0326 29 46.9972V45.1248C30.2657 45.1483 31.5433 44.9599 32.8448 44.5477C36.1522 43.4878 38.3373 41.321 38.3611 41.2856C38.7313 40.9088 39.3283 40.9088 39.7104 41.2621C40.0925 41.6154 40.0925 42.216 39.7343 42.5928Z" fill="white"/>
</g>
<defs>
<clipPath id="clip0_669_1644">
<rect width="60" height="60" fill="white"/>
</clipPath>
</defs>
</svg>
