<svg viewBox="0 0 28 32" xmlns="http://www.w3.org/2000/svg">
<path d="M27.1387 30.5925C27.4048 30.3022 27.534 29.9128 27.4923 29.5215L27.4923 29.5213L25.2091 8.13695L25.2091 8.13683C25.1333 7.42867 24.5295 6.90243 23.8227 6.90243H20.0314V6.44014C20.0314 3.15662 17.3182 0.5 14.0001 0.5C10.6818 0.5 7.96863 3.1566 7.96863 6.44014V6.90243H4.17729C3.47053 6.90243 2.86665 7.42867 2.79087 8.13683L2.79086 8.13695L0.50768 29.5213L0.50766 29.5215C0.465994 29.9131 0.595624 30.3021 0.860636 30.592L0.86107 30.5925C1.12634 30.8819 1.5021 31.0455 1.89411 31.0455H26.1057C26.4976 31.0455 26.8735 30.8821 27.1387 30.5925ZM27.1387 30.5925L26.7701 30.2547M27.1387 30.5925C27.1388 30.5924 27.1388 30.5923 27.1389 30.5922L26.7701 30.2547M26.7701 30.2547C26.6007 30.4397 26.3591 30.5455 26.1057 30.5455H1.89411C1.64085 30.5455 1.39929 30.4397 1.22969 30.2547M26.7701 30.2547C26.9399 30.0694 27.0215 29.8221 26.9951 29.5744L1.22969 30.2547M1.22969 30.2547C1.06032 30.0694 0.978497 29.8221 1.00485 29.5744L1.22969 30.2547ZM10.7568 6.44014C10.7568 4.69425 12.2043 3.25868 14.0001 3.25868C15.7957 3.25868 17.2432 4.69423 17.2432 6.44014V6.90243H10.7568V6.44014ZM22.5681 9.66111L24.5568 28.2868H3.44318L5.43189 9.66111H7.96863V11.099C7.96863 11.8685 8.60074 12.4783 9.3627 12.4783C10.1247 12.4783 10.7568 11.8685 10.7568 11.099V9.66111H17.2432V11.099C17.2432 11.8685 17.8753 12.4783 18.6373 12.4783C19.3993 12.4783 20.0314 11.8685 20.0314 11.099V9.66111H22.5681Z"/>
</svg>
