<svg viewBox="0 0 25 24" xmlns="http://www.w3.org/2000/svg">
<path d="M21.5 3.47516H16.3772C15.8249 3.47516 15.3772 3.92287 15.3772 4.47516V9.59793C15.3772 10.1502 15.8249 10.5979 16.3772 10.5979H21.5C22.0523 10.5979 22.5 10.1502 22.5 9.59793V4.47516C22.5 3.92287 22.0523 3.47516 21.5 3.47516Z"/>
<path d="M11.8661 6.32945L8.24373 2.70711C7.8532 2.31658 7.22004 2.31658 6.82951 2.70711L3.20717 6.32945C2.81665 6.71998 2.81665 7.35314 3.20717 7.74366L6.82951 11.366C7.22004 11.7565 7.8532 11.7565 8.24373 11.366L11.8661 7.74366C12.2566 7.35314 12.2566 6.71998 11.8661 6.32945Z"/>
<path d="M10.0979 14.8772H4.9751C4.42281 14.8772 3.9751 15.3249 3.9751 15.8772V21C3.9751 21.5523 4.42281 22 4.9751 22H10.0979C10.6502 22 11.0979 21.5523 11.0979 21V15.8772C11.0979 15.3249 10.6502 14.8772 10.0979 14.8772Z"/>
<path d="M21.5 14.8772H16.3772C15.8249 14.8772 15.3772 15.3249 15.3772 15.8772V21C15.3772 21.5523 15.8249 22 16.3772 22H21.5C22.0523 22 22.5 21.5523 22.5 21V15.8772C22.5 15.3249 22.0523 14.8772 21.5 14.8772Z"/>
</svg>
