<svg width="26" height="26" viewBox="0 0 26 26" fill="none" xmlns="http://www.w3.org/2000/svg">
<path d="M14.625 22.7502H10.2917C10.148 22.7502 10.0102 22.6931 9.90865 22.5915C9.80707 22.4899 9.75 22.3522 9.75 22.2085C9.75 22.0648 9.80707 21.9271 9.90865 21.8255C10.0102 21.7239 10.148 21.6668 10.2917 21.6668H14.625C15.5209 21.6668 16.25 20.9377 16.25 20.0418V14.6252C16.25 14.4815 16.3071 14.3437 16.4087 14.2421C16.5102 14.1406 16.648 14.0835 16.7917 14.0835C16.9353 14.0835 17.0731 14.1406 17.1747 14.2421C17.2763 14.3437 17.3333 14.4815 17.3333 14.6252V20.0418C17.3333 21.5347 16.1189 22.7502 14.625 22.7502ZM25.4583 11.9168H14.625C14.4813 11.9168 14.3436 11.8598 14.242 11.7582C14.1404 11.6566 14.0833 11.5188 14.0833 11.3752C14.0833 11.2315 14.1404 11.0937 14.242 10.9921C14.3436 10.8906 14.4813 10.8335 14.625 10.8335H25.4583C25.602 10.8335 25.7398 10.8906 25.8414 10.9921C25.9429 11.0937 26 11.2315 26 11.3752C26 11.5188 25.9429 11.6566 25.8414 11.7582C25.7398 11.8598 25.602 11.9168 25.4583 11.9168Z" fill="white"/>
<path d="M8.66667 26C8.42833 26 8.19542 25.9599 7.9755 25.8819L1.48633 23.7185C1.05444 23.576 0.678394 23.3011 0.411589 22.9328C0.144785 22.5645 0.000774221 22.1215 0 21.6667L0 2.16667C0 0.97175 0.97175 0 2.16667 0C2.40717 0 2.64117 0.0400833 2.85892 0.119167L9.347 2.2815C9.77908 2.42371 10.1553 2.69855 10.4222 3.06693C10.689 3.43531 10.8329 3.87846 10.8333 4.33333V23.8333C10.8333 25.0283 9.86158 26 8.66667 26ZM2.16667 1.08333C1.56867 1.08333 1.08333 1.56975 1.08333 2.16667V21.6667C1.08426 21.8941 1.15675 22.1155 1.29053 22.2994C1.4243 22.4834 1.61258 22.6205 1.82867 22.6915L8.32867 24.8582C9.03933 25.1106 9.75 24.5418 9.75 23.8333V4.33333C9.7495 4.10592 9.67716 3.88447 9.54331 3.70062C9.40946 3.51677 9.22094 3.37991 9.00467 3.30958L2.50467 1.14292C2.39629 1.10366 2.28193 1.0835 2.16667 1.08333Z" fill="white"/>
<path d="M16.7917 8.66667C16.648 8.66667 16.5102 8.6096 16.4086 8.50802C16.3071 8.40643 16.25 8.26866 16.25 8.125V2.70833C16.25 1.81242 15.5209 1.08333 14.625 1.08333H2.16667C2.02301 1.08333 1.88523 1.02627 1.78365 0.924683C1.68207 0.823101 1.625 0.685326 1.625 0.541667C1.625 0.398008 1.68207 0.260233 1.78365 0.158651C1.88523 0.0570683 2.02301 0 2.16667 0L14.625 0C16.1189 0 17.3333 1.2155 17.3333 2.70833V8.125C17.3333 8.26866 17.2763 8.40643 17.1747 8.50802C17.0731 8.6096 16.9353 8.66667 16.7917 8.66667ZM21.125 16.25C21.0179 16.25 20.9133 16.2182 20.8243 16.1588C20.7353 16.0993 20.6659 16.0148 20.6248 15.916C20.5838 15.8171 20.573 15.7083 20.5937 15.6033C20.6145 15.4982 20.6659 15.4017 20.7415 15.3259L24.6913 11.3761L20.7415 7.42625C20.6428 7.32409 20.5882 7.18726 20.5895 7.04524C20.5907 6.90322 20.6477 6.76736 20.7481 6.66693C20.8485 6.5665 20.9844 6.50954 21.1264 6.5083C21.2684 6.50707 21.4053 6.56166 21.5074 6.66033L25.8407 10.9937C25.9423 11.0952 25.9993 11.233 25.9993 11.3766C25.9993 11.5203 25.9423 11.658 25.8407 11.7596L21.5074 16.0929C21.4057 16.1937 21.2682 16.2501 21.125 16.25Z" fill="white"/>
</svg>
