<svg viewBox="0 0 35 35" xmlns="http://www.w3.org/2000/svg">
<g clip-path="url(#clip0_11_232)">
<path d="M15.909 13.5227V15.1136H14.3181V17.5H15.909V24.659H19.0908V17.5H21.2068L21.4772 15.1136H19.0908V13.7215C19.0908 13.0772 19.1545 12.7352 20.1488 12.7352H21.4772V10.3408H19.3454C16.8 10.3409 15.909 11.534 15.909 13.5227Z" />
<path d="M17.5 0C7.83501 0 0 7.83501 0 17.5C0 27.165 7.83501 35 17.5 35C27.165 35 35 27.165 35 17.5C35 7.83501 27.165 0 17.5 0ZM17.5 33.4091C8.71363 33.4091 1.59093 26.2864 1.59093 17.5C1.59093 8.71363 8.71363 1.59093 17.5 1.59093C26.2864 1.59093 33.4091 8.71363 33.4091 17.5C33.4091 26.2864 26.2864 33.4091 17.5 33.4091Z" />
</g>
<defs>
<clipPath id="clip0_11_232">
<rect width="35" height="35" fill="white"/>
</clipPath>
</defs>
</svg>
