<svg viewBox="0 0 32 29" xmlns="http://www.w3.org/2000/svg">
<path d="M28.6759 3.72384C27.0265 2.07013 24.8401 1.06079 22.5116 0.878164C20.183 0.695535 17.866 1.35165 15.9789 2.728C13.9991 1.25545 11.5349 0.587722 9.08255 0.859286C6.63016 1.13085 4.37176 2.32153 2.76212 4.19155C1.15248 6.06158 0.311169 8.47204 0.407608 10.9375C0.504048 13.403 1.53107 15.7404 3.28187 17.479L12.9447 27.1573C13.7538 27.9537 14.8436 28.4 15.9789 28.4C17.1142 28.4 18.204 27.9537 19.0131 27.1573L28.6759 17.479C30.4927 15.6511 31.5124 13.1786 31.5124 10.6014C31.5124 8.02423 30.4927 5.55174 28.6759 3.72384ZM26.482 15.3317L16.8191 24.9945C16.7092 25.1055 16.5783 25.1937 16.4341 25.2538C16.2899 25.3139 16.1352 25.3449 15.9789 25.3449C15.8226 25.3449 15.6679 25.3139 15.5237 25.2538C15.3795 25.1937 15.2486 25.1055 15.1387 24.9945L5.47584 15.285C4.25555 14.0376 3.57223 12.362 3.57223 10.617C3.57223 8.87195 4.25555 7.19632 5.47584 5.94893C6.71933 4.72122 8.39643 4.03282 10.1439 4.03282C11.8913 4.03282 13.5684 4.72122 14.8119 5.94893C14.9565 6.09478 15.1286 6.21053 15.3183 6.28953C15.5079 6.36853 15.7113 6.4092 15.9167 6.4092C16.1221 6.4092 16.3255 6.36853 16.5151 6.28953C16.7047 6.21053 16.8768 6.09478 17.0214 5.94893C18.2649 4.72122 19.942 4.03282 21.6895 4.03282C23.4369 4.03282 25.114 4.72122 26.3575 5.94893C27.5945 7.17997 28.3003 8.84652 28.3236 10.5916C28.3468 12.3366 27.6858 14.0214 26.482 15.285V15.3317Z"/>
</svg>
