<svg viewBox="0 0 28 24" xmlns="http://www.w3.org/2000/svg">
<path fill-rule="evenodd" clip-rule="evenodd" d="M23.375 10.125H4.625C4.10797 10.125 3.62855 10.3001 3.27681 10.6518C2.92507 11.0035 2.75 11.483 2.75 12C2.75 12.517 2.92507 12.9965 3.27681 13.3482C3.62855 13.6999 4.10797 13.875 4.625 13.875H23.375C23.892 13.875 24.3715 13.6999 24.7232 13.3482C25.0749 12.9965 25.25 12.517 25.25 12C25.25 11.483 25.0749 11.0035 24.7232 10.6518C24.3715 10.3001 23.892 10.125 23.375 10.125ZM2.125 3.875H25.875C26.392 3.875 26.8715 3.69993 27.2232 3.34819C27.5749 2.99645 27.75 2.51703 27.75 2C27.75 1.48297 27.5749 1.00355 27.2232 0.651808C26.8715 0.300071 26.392 0.125 25.875 0.125H2.125C1.60797 0.125 1.12855 0.300071 0.776808 0.651808C0.425071 1.00355 0.25 1.48297 0.25 2C0.25 2.51703 0.425071 2.99645 0.776808 3.34819C1.12855 3.69993 1.60797 3.875 2.125 3.875ZM20.875 20.125H7.125C6.60797 20.125 6.12855 20.3001 5.77681 20.6518C5.42507 21.0035 5.25 21.483 5.25 22C5.25 22.517 5.42507 22.9965 5.77681 23.3482C6.12855 23.6999 6.60797 23.875 7.125 23.875H20.875C21.392 23.875 21.8715 23.6999 22.2232 23.3482C22.5749 22.9965 22.75 22.517 22.75 22C22.75 21.483 22.5749 21.0035 22.2232 20.6518C21.8715 20.3001 21.392 20.125 20.875 20.125Z"/>
</svg>
