<svg viewBox="0 0 36 36" xmlns="http://www.w3.org/2000/svg">
<path d="M19.2138 22.2152L26.4922 14.9368C26.6531 14.7772 26.7808 14.5873 26.868 14.3781C26.9551 14.1689 27 13.9446 27 13.718C27 13.4914 26.9551 13.267 26.868 13.0578C26.7808 12.8486 26.6531 12.6588 26.4922 12.4992C26.1706 12.1795 25.7355 12 25.282 12C24.8285 12 24.3934 12.1795 24.0718 12.4992L17.995 18.576L11.9183 12.4992C11.5966 12.1795 11.1616 12 10.708 12C10.2545 12 9.81947 12.1795 9.49784 12.4992C9.33875 12.6596 9.21288 12.8498 9.12745 13.0589C9.04202 13.2681 8.99872 13.492 9.00003 13.718C8.99872 13.9439 9.04202 14.1678 9.12745 14.377C9.21288 14.5861 9.33875 14.7764 9.49784 14.9368L16.7762 22.2152C16.9358 22.3761 17.1257 22.5038 17.3349 22.5909C17.5441 22.6781 17.7684 22.7229 17.995 22.7229C18.2216 22.7229 18.446 22.6781 18.6552 22.5909C18.8644 22.5038 19.0542 22.3761 19.2138 22.2152Z"/>
</svg>
