<svg viewBox="0 0 31 30" xmlns="http://www.w3.org/2000/svg">
<path d="M17.1217 6.92154C16.9657 7.07622 16.8419 7.26025 16.7574 7.46302C16.673 7.66578 16.6295 7.88326 16.6295 8.10292C16.6295 8.32258 16.673 8.54006 16.7574 8.74282C16.8419 8.94558 16.9657 9.12961 17.1217 9.2843L20.3164 12.479C20.4711 12.635 20.6551 12.7587 20.8578 12.8432C21.0606 12.9277 21.2781 12.9712 21.4977 12.9712C21.7174 12.9712 21.9349 12.9277 22.1377 12.8432C22.3404 12.7587 22.5244 12.635 22.6791 12.479L29.4679 5.69025C29.6498 5.5424 29.7985 5.35778 29.9041 5.14848C30.0097 4.93917 30.0699 4.70991 30.0807 4.47572C30.0915 4.24153 30.0528 4.0077 29.9669 3.78955C29.881 3.57139 29.75 3.37385 29.5825 3.20985C29.415 3.04586 29.2147 2.91912 28.9947 2.83794C28.7748 2.75676 28.5402 2.72297 28.3063 2.73879C28.0724 2.75461 27.8445 2.81968 27.6375 2.92974C27.4305 3.03979 27.2491 3.19235 27.1051 3.37741L21.4977 8.95152L19.4844 6.92154C19.3297 6.76559 19.1457 6.6418 18.9429 6.55733C18.7402 6.47285 18.5227 6.42936 18.303 6.42936C18.0834 6.42936 17.8659 6.47285 17.6631 6.55733C17.4604 6.6418 17.2763 6.76559 17.1217 6.92154ZM28.1368 12.7619C27.6979 12.8 27.2921 13.0105 27.0082 13.3474C26.7244 13.6843 26.5857 14.1199 26.6226 14.5589C26.6309 14.7141 26.6309 14.8696 26.6226 15.0248C26.6226 18.1139 25.3955 21.0764 23.2112 23.2607C21.0268 25.445 18.0643 26.6722 14.9752 26.6722H5.67395L6.73885 25.6239C7.04875 25.3122 7.2227 24.8904 7.2227 24.4509C7.2227 24.0113 7.04875 23.5895 6.73885 23.2778C5.25074 21.7977 4.1902 19.9431 3.66936 17.9099C3.14853 15.8768 3.18674 13.7406 3.77997 11.7274C4.3732 9.71417 5.4994 7.89863 7.0395 6.47276C8.5796 5.04688 10.4764 4.06364 12.5293 3.627C14.067 3.31951 15.6505 3.31951 17.1882 3.627C17.4067 3.6707 17.6317 3.67093 17.8503 3.62769C18.0689 3.58444 18.2768 3.49857 18.4622 3.37496C18.6477 3.25135 18.8069 3.09244 18.9309 2.90729C19.0549 2.72214 19.1412 2.51437 19.1849 2.29587C19.2286 2.07736 19.2288 1.85238 19.1856 1.63378C19.1424 1.41518 19.0565 1.20724 18.9329 1.02183C18.8093 0.836423 18.6504 0.677175 18.4652 0.55318C18.2801 0.429186 18.0723 0.342874 17.8538 0.299173C15.8714 -0.0997242 13.8294 -0.0997242 11.8471 0.299173C8.48794 1.0324 5.48089 2.89308 3.32568 5.57196C1.17047 8.25084 -0.0031051 11.5866 6.17033e-06 15.0248C0.0139839 18.4295 1.18777 21.7279 3.32783 24.376L0.482541 27.1547C0.25166 27.3887 0.0952586 27.6858 0.0330713 28.0086C-0.0291159 28.3314 0.00569758 28.6654 0.133119 28.9684C0.257946 29.2722 0.469925 29.5323 0.742341 29.7159C1.01476 29.8995 1.33542 29.9984 1.66392 30H14.9752C18.9469 30 22.7559 28.4223 25.5643 25.6139C28.3727 22.8055 29.9504 18.9965 29.9504 15.0248C29.9504 14.7752 29.9504 14.5423 29.9504 14.2927C29.9337 14.0724 29.8733 13.8576 29.7727 13.6609C29.6721 13.4642 29.5333 13.2896 29.3645 13.1471C29.1957 13.0046 29.0002 12.8971 28.7894 12.831C28.5786 12.7648 28.3567 12.7414 28.1368 12.7619Z"/>
</svg>
