<svg width="35" height="35" viewBox="0 0 35 35" xmlns="http://www.w3.org/2000/svg">
<g clip-path="url(#clip0_196_633)">
<path d="M17.5 0C7.83512 0 0 7.83512 0 17.5C0 27.1649 7.83512 35 17.5 35C27.1649 35 35 27.1649 35 17.5C34.9892 7.83968 27.1603 0.0108236 17.5 0ZM17.5 33.8333C8.47941 33.8333 1.16667 26.5206 1.16667 17.5C1.16667 8.47941 8.47941 1.16667 17.5 1.16667C26.5206 1.16667 33.8333 8.47941 33.8333 17.5C33.8231 26.5163 26.5163 33.8231 17.5 33.8333Z"/>
<path d="M25.0833 7H9.91667C8.30652 7.00199 7.00199 8.30652 7 9.91667V25.0833C7.00199 26.6935 8.30652 27.998 9.91667 28H25.0833C26.6935 27.998 27.998 26.6935 28 25.0833V9.91667C27.998 8.30652 26.6935 7.00199 25.0833 7ZM26.8333 25.0833C26.8333 26.0498 26.0498 26.8333 25.0833 26.8333H9.91667C8.95024 26.8333 8.16667 26.0498 8.16667 25.0833V9.91667C8.16667 8.95024 8.95024 8.16667 9.91667 8.16667H25.0833C26.0498 8.16667 26.8333 8.95024 26.8333 9.91667V25.0833Z"/>
<path d="M17.5003 11.6667C14.2786 11.6667 11.667 14.2783 11.667 17.5C11.667 20.7217 14.2786 23.3333 17.5003 23.3333C20.722 23.3333 23.3337 20.7217 23.3337 17.5C23.3302 14.2797 20.7206 11.6701 17.5003 11.6667ZM17.5003 22.1667C14.9229 22.1667 12.8337 20.0774 12.8337 17.5C12.8337 14.9226 14.9229 12.8333 17.5003 12.8333C20.0778 12.8333 22.167 14.9226 22.167 17.5C22.1641 20.076 20.0763 22.1638 17.5003 22.1667Z"/>
<path d="M23.917 9.33334C22.9506 9.33334 22.167 10.1169 22.167 11.0833C22.167 12.0498 22.9506 12.8333 23.917 12.8333C24.8834 12.8333 25.667 12.0498 25.667 11.0833C25.667 10.1169 24.8834 9.33334 23.917 9.33334ZM23.917 11.6667C23.5948 11.6667 23.3337 11.4055 23.3337 11.0833C23.3337 10.7612 23.5948 10.5 23.917 10.5C24.2391 10.5 24.5003 10.7612 24.5003 11.0833C24.5003 11.4055 24.2391 11.6667 23.917 11.6667Z"/>
</g>
<defs>
<clipPath id="clip0_196_633">
<rect width="35" height="35" style="fill:red;"/>
</clipPath>
</defs>
</svg>
