<svg viewBox="0 0 26 31" xmlns="http://www.w3.org/2000/svg">
<path d="M25.5354 12.2726C25.3261 10.0943 24.5562 8.00739 23.3009 6.21499C22.0455 4.4226 20.3474 2.98583 18.3718 2.0446C16.3963 1.10337 14.2107 0.689758 12.0278 0.844036C9.84499 0.998313 7.73929 1.71522 5.91578 2.92496C4.34919 3.9725 3.03405 5.354 2.06483 6.97022C1.09562 8.58644 0.496384 10.3973 0.310185 12.2726C0.127529 14.1356 0.361878 16.016 0.996229 17.7772C1.63058 19.5384 2.64903 21.1364 3.97768 22.4551L11.8792 30.3715C12.0178 30.5112 12.1827 30.6222 12.3643 30.6978C12.546 30.7735 12.7409 30.8125 12.9377 30.8125C13.1345 30.8125 13.3294 30.7735 13.511 30.6978C13.6927 30.6222 13.8576 30.5112 13.9962 30.3715L21.8679 22.4551C23.1965 21.1364 24.215 19.5384 24.8493 17.7772C25.4837 16.016 25.718 14.1356 25.5354 12.2726ZM19.7807 20.353L12.9228 27.2109L6.06487 20.353C5.0542 19.3423 4.28002 18.1202 3.79798 16.7746C3.31594 15.429 3.13801 13.9933 3.27698 12.5708C3.41685 11.1263 3.87595 9.73093 4.62108 8.4856C5.36622 7.24026 6.37877 6.17607 7.58553 5.36995C9.16724 4.31926 11.0239 3.75878 12.9228 3.75878C14.8217 3.75878 16.6783 4.31926 18.26 5.36995C19.4631 6.17295 20.4734 7.23244 21.2184 8.47232C21.9634 9.7122 22.4245 11.1017 22.5686 12.5409C22.7121 13.9683 22.5364 15.4097 22.0542 16.7609C21.572 18.112 20.7955 19.339 19.7807 20.353ZM12.9228 6.8608C11.5959 6.8608 10.2988 7.25427 9.19555 7.99144C8.09229 8.72862 7.23241 9.7764 6.72463 11.0023C6.21686 12.2282 6.084 13.5771 6.34286 14.8785C6.60172 16.1798 7.24068 17.3752 8.17892 18.3135C9.11717 19.2517 10.3126 19.8907 11.6139 20.1495C12.9153 20.4084 14.2643 20.2756 15.4901 19.7678C16.716 19.26 17.7638 18.4001 18.501 17.2969C19.2381 16.1936 19.6316 14.8965 19.6316 13.5696C19.6277 11.7915 18.9196 10.0874 17.6623 8.83012C16.405 7.57283 14.7009 6.86474 12.9228 6.8608ZM12.9228 17.2968C12.1856 17.2968 11.465 17.0782 10.8521 16.6686C10.2392 16.2591 9.76146 15.677 9.47936 14.9959C9.19727 14.3149 9.12346 13.5655 9.26727 12.8425C9.41108 12.1195 9.76605 11.4554 10.2873 10.9342C10.8085 10.4129 11.4727 10.0579 12.1957 9.91412C12.9186 9.77031 13.668 9.84412 14.3491 10.1262C15.0301 10.4083 15.6122 10.886 16.0218 11.4989C16.4313 12.1119 16.6499 12.8325 16.6499 13.5696C16.6499 14.5581 16.2572 15.5061 15.5583 16.2051C14.8593 16.9041 13.9113 17.2968 12.9228 17.2968Z"/>
</svg>
