<svg viewBox="0 0 30 30" xmlns="http://www.w3.org/2000/svg">
<path d="M28.6364 21.8182H1.36364C1.00198 21.8182 0.655131 21.9618 0.3994 22.2176C0.143668 22.4733 0 22.8202 0 23.1818C0 23.5435 0.143668 23.8903 0.3994 24.1461C0.655131 24.4018 1.00198 24.5455 1.36364 24.5455H28.6364C28.998 24.5455 29.3449 24.4018 29.6006 24.1461C29.8563 23.8903 30 23.5435 30 23.1818C30 22.8202 29.8563 22.4733 29.6006 22.2176C29.3449 21.9618 28.998 21.8182 28.6364 21.8182ZM28.6364 27.2727H1.36364C1.00198 27.2727 0.655131 27.4164 0.3994 27.6721C0.143668 27.9279 0 28.2747 0 28.6364C0 28.998 0.143668 29.3449 0.3994 29.6006C0.655131 29.8563 1.00198 30 1.36364 30H28.6364C28.998 30 29.3449 29.8563 29.6006 29.6006C29.8563 29.3449 30 28.998 30 28.6364C30 28.2747 29.8563 27.9279 29.6006 27.6721C29.3449 27.4164 28.998 27.2727 28.6364 27.2727ZM6.81818 8.18182C6.54848 8.18182 6.28483 8.26179 6.06059 8.41163C5.83634 8.56147 5.66156 8.77444 5.55835 9.02361C5.45514 9.27279 5.42813 9.54697 5.48075 9.81149C5.53336 10.076 5.66324 10.319 5.85395 10.5097C6.04465 10.7004 6.28763 10.8303 6.55215 10.8829C6.81667 10.9355 7.09085 10.9085 7.34002 10.8053C7.58919 10.7021 7.80217 10.5273 7.952 10.3031C8.10184 10.0788 8.18182 9.81516 8.18182 9.54545C8.18182 9.1838 8.03815 8.83695 7.78242 8.58122C7.52669 8.32549 7.17984 8.18182 6.81818 8.18182ZM25.9091 0H4.09091C3.00593 0 1.96539 0.431005 1.1982 1.1982C0.431005 1.96539 0 3.00593 0 4.09091V15C0 16.085 0.431005 17.1255 1.1982 17.8927C1.96539 18.6599 3.00593 19.0909 4.09091 19.0909H25.9091C26.9941 19.0909 28.0346 18.6599 28.8018 17.8927C29.569 17.1255 30 16.085 30 15V4.09091C30 3.00593 29.569 1.96539 28.8018 1.1982C28.0346 0.431005 26.9941 0 25.9091 0ZM27.2727 15C27.2727 15.3617 27.1291 15.7085 26.8733 15.9642C26.6176 16.22 26.2708 16.3636 25.9091 16.3636H4.09091C3.72925 16.3636 3.3824 16.22 3.12667 15.9642C2.87094 15.7085 2.72727 15.3617 2.72727 15V4.09091C2.72727 3.72925 2.87094 3.3824 3.12667 3.12667C3.3824 2.87094 3.72925 2.72727 4.09091 2.72727H25.9091C26.2708 2.72727 26.6176 2.87094 26.8733 3.12667C27.1291 3.3824 27.2727 3.72925 27.2727 4.09091V15ZM15 5.45455C14.1909 5.45455 13.4 5.69447 12.7272 6.14399C12.0545 6.5935 11.5301 7.23242 11.2205 7.97993C10.9109 8.72745 10.8298 9.54999 10.9877 10.3436C11.1455 11.1371 11.5352 11.866 12.1073 12.4382C12.6794 13.0103 13.4083 13.3999 14.2019 13.5578C14.9955 13.7156 15.818 13.6346 16.5655 13.325C17.313 13.0153 17.952 12.491 18.4015 11.8182C18.851 11.1455 19.0909 10.3546 19.0909 9.54545C19.0909 8.46048 18.6599 7.41994 17.8927 6.65275C17.1255 5.88555 16.085 5.45455 15 5.45455ZM15 10.9091C14.7303 10.9091 14.4667 10.8291 14.2424 10.6793C14.0182 10.5294 13.8434 10.3165 13.7402 10.0673C13.637 9.81812 13.6099 9.54394 13.6626 9.27942C13.7152 9.0149 13.8451 8.77193 14.0358 8.58122C14.2265 8.39051 14.4694 8.26064 14.734 8.20802C14.9985 8.1554 15.2727 8.18241 15.5218 8.28562C15.771 8.38883 15.984 8.56361 16.1338 8.78786C16.2837 9.01211 16.3636 9.27575 16.3636 9.54545C16.3636 9.90711 16.22 10.254 15.9642 10.5097C15.7085 10.7654 15.3617 10.9091 15 10.9091ZM23.1818 8.18182C22.9121 8.18182 22.6485 8.26179 22.4242 8.41163C22.2 8.56147 22.0252 8.77444 21.922 9.02361C21.8188 9.27279 21.7918 9.54697 21.8444 9.81149C21.897 10.076 22.0269 10.319 22.2176 10.5097C22.4083 10.7004 22.6513 10.8303 22.9158 10.8829C23.1803 10.9355 23.4545 10.9085 23.7037 10.8053C23.9528 10.7021 24.1658 10.5273 24.3156 10.3031C24.4655 10.0788 24.5455 9.81516 24.5455 9.54545C24.5455 9.1838 24.4018 8.83695 24.1461 8.58122C23.8903 8.32549 23.5435 8.18182 23.1818 8.18182Z" />
</svg>
