<svg viewBox="0 0 36 34" xmlns="http://www.w3.org/2000/svg">
<path d="M17.0109 22.4834C16.9346 22.5626 16.8636 22.6461 16.7982 22.7334C16.7311 22.8263 16.6774 22.9272 16.6386 23.0334C16.5875 23.1279 16.5517 23.229 16.5323 23.3334C16.5236 23.4443 16.5236 23.5557 16.5323 23.6667C16.5263 23.8853 16.5749 24.1022 16.6741 24.3C16.7537 24.5069 16.8807 24.6947 17.0461 24.8502C17.2115 25.0058 17.4113 25.1252 17.6312 25.2C17.8434 25.2882 18.0728 25.3338 18.3047 25.3338C18.5367 25.3338 18.7661 25.2882 18.9783 25.2C19.1982 25.1252 19.398 25.0058 19.5634 24.8502C19.7288 24.6947 19.8558 24.5069 19.9354 24.3C20.0141 24.0974 20.0502 23.8823 20.0417 23.6667C20.0431 23.4474 19.9984 23.2299 19.9102 23.0269C19.822 22.8238 19.692 22.6391 19.5277 22.4834C19.3629 22.3272 19.1669 22.2032 18.9509 22.1186C18.7349 22.0339 18.5033 21.9904 18.2693 21.9904C18.0353 21.9904 17.8036 22.0339 17.5877 22.1186C17.3717 22.2032 17.1756 22.3272 17.0109 22.4834ZM18.2693 0.333374C14.7637 0.333374 11.3369 1.31086 8.42216 3.14221C5.50741 4.97357 3.23563 7.57655 1.89412 10.622C0.552602 13.6674 0.2016 17.0185 0.885498 20.2515C1.5694 23.4846 3.25748 26.4543 5.73627 28.7852C8.21507 31.116 11.3732 32.7034 14.8114 33.3465C18.2496 33.9896 21.8134 33.6595 25.0521 32.398C28.2908 31.1366 31.059 29.0004 33.0065 26.2595C34.9541 23.5187 35.9936 20.2964 35.9936 17C35.9936 14.8113 35.5352 12.6441 34.6445 10.622C33.7537 8.59989 32.4482 6.76257 30.8023 5.21493C29.1564 3.66728 27.2025 2.43963 25.0521 1.60205C22.9017 0.76447 20.5969 0.333374 18.2693 0.333374ZM18.2693 30.3334C15.4649 30.3334 12.7234 29.5514 10.3916 28.0863C8.05978 26.6212 6.24236 24.5388 5.16915 22.1025C4.09594 19.6661 3.81514 16.9853 4.36226 14.3988C4.90938 11.8124 6.25984 9.43665 8.24288 7.57195C10.2259 5.70725 12.7525 4.43737 15.503 3.9229C18.2536 3.40843 21.1046 3.67248 23.6955 4.68165C26.2865 5.69082 28.501 7.39978 30.0591 9.59244C31.6172 11.7851 32.4488 14.363 32.4488 17C32.4488 20.5363 30.9549 23.9276 28.2957 26.4281C25.6365 28.9286 22.0299 30.3334 18.2693 30.3334ZM18.2693 8.66671C17.3353 8.66614 16.4177 8.89691 15.6087 9.33578C14.7997 9.77465 14.1279 10.4061 13.661 11.1667C13.5327 11.3564 13.4466 11.5685 13.4078 11.7903C13.369 12.0121 13.3783 12.239 13.4352 12.4574C13.4921 12.6757 13.5953 12.8809 13.7387 13.0608C13.8822 13.2406 14.0628 13.3913 14.2697 13.5038C14.4767 13.6163 14.7057 13.6882 14.943 13.7153C15.1803 13.7424 15.421 13.7241 15.6506 13.6615C15.8802 13.5989 16.0939 13.4932 16.2789 13.3509C16.464 13.2086 16.6165 13.0326 16.7273 12.8334C16.8834 12.579 17.1083 12.368 17.3791 12.2217C17.6499 12.0753 17.957 11.9989 18.2693 12C18.7394 12 19.1902 12.1756 19.5226 12.4882C19.855 12.8008 20.0417 13.2247 20.0417 13.6667C20.0417 14.1087 19.855 14.5327 19.5226 14.8452C19.1902 15.1578 18.7394 15.3334 18.2693 15.3334C17.7992 15.3334 17.3484 15.509 17.016 15.8215C16.6836 16.1341 16.4969 16.558 16.4969 17V18.6667C16.4969 19.1087 16.6836 19.5327 17.016 19.8452C17.3484 20.1578 17.7992 20.3334 18.2693 20.3334C18.7394 20.3334 19.1902 20.1578 19.5226 19.8452C19.855 19.5327 20.0417 19.1087 20.0417 18.6667V18.3667C21.214 17.9667 22.1994 17.1921 22.8258 16.1782C23.4522 15.1642 23.6797 13.9755 23.4685 12.8199C23.2574 11.6642 22.621 10.6151 21.6706 9.8559C20.7202 9.09673 19.5163 8.67581 18.2693 8.66671Z" />
</svg>
