<svg viewBox="0 0 25 25" xmlns="http://www.w3.org/2000/svg">
<path d="M24.9348 9.10162C24.7712 8.5954 24.3222 8.23585 23.791 8.18798L16.5753 7.53278L13.722 0.854414C13.5116 0.364976 13.0325 0.0481567 12.5001 0.0481567C11.9678 0.0481567 11.4886 0.364975 11.2782 0.855558L8.42497 7.53278L1.20814 8.18798C0.677886 8.237 0.230029 8.5954 0.0654206 9.10162C-0.0991878 9.60784 0.0528317 10.1631 0.453957 10.5131L5.90816 15.2965L4.29984 22.3811C4.18216 22.902 4.38434 23.4405 4.81656 23.7529C5.04888 23.9208 5.32068 24.0062 5.59478 24.0062C5.8311 24.0062 6.06552 23.9425 6.27591 23.8166L12.5001 20.0966L18.7221 23.8166C19.1774 24.0905 19.7513 24.0655 20.1826 23.7529C20.615 23.4395 20.817 22.9009 20.6993 22.3811L19.0909 15.2965L24.5452 10.514C24.9463 10.1631 25.0994 9.6088 24.9348 9.10162Z"/>
</svg>
