<svg viewBox="0 0 37 37" xmlns="http://www.w3.org/2000/svg">
<path d="M24.0444 19.5802C25.5033 18.4324 26.5682 16.8584 27.0909 15.0771C27.6136 13.2959 27.5681 11.3961 26.9607 9.64191C26.3534 7.88774 25.2144 6.3665 23.7022 5.28981C22.1901 4.21311 20.3799 3.63452 18.5236 3.63452C16.6672 3.63452 14.8571 4.21311 13.3449 5.28981C11.8327 6.3665 10.6937 7.88774 10.0864 9.64191C9.47903 11.3961 9.43354 13.2959 9.95624 15.0771C10.4789 16.8584 11.5438 18.4324 13.0027 19.5802C10.5028 20.5818 8.3216 22.2429 6.69155 24.3866C5.0615 26.5303 4.04374 29.0762 3.74677 31.7528C3.72527 31.9482 3.74248 32.146 3.7974 32.3347C3.85233 32.5235 3.94389 32.6996 4.06688 32.853C4.31525 33.1628 4.67651 33.3612 5.07117 33.4046C5.46584 33.448 5.86159 33.3329 6.17136 33.0845C6.48113 32.8361 6.67955 32.4749 6.72296 32.0802C7.04972 29.1713 8.43678 26.4847 10.6191 24.5338C12.8015 22.5828 15.6261 21.5044 18.5533 21.5044C21.4806 21.5044 24.3052 22.5828 26.4875 24.5338C28.6699 26.4847 30.0569 29.1713 30.3837 32.0802C30.4241 32.4459 30.5986 32.7836 30.8734 33.0281C31.1482 33.2727 31.5039 33.4068 31.8718 33.4046H32.0355C32.4255 33.3597 32.7821 33.1625 33.0274 32.8559C33.2727 32.5493 33.3868 32.1581 33.345 31.7677C33.0466 29.0835 32.0234 26.5311 30.3849 24.3841C28.7465 22.2371 26.5547 20.5764 24.0444 19.5802V19.5802ZM18.5236 18.5237C17.3463 18.5237 16.1955 18.1746 15.2166 17.5205C14.2377 16.8664 13.4748 15.9368 13.0243 14.8491C12.5738 13.7615 12.4559 12.5647 12.6855 11.41C12.9152 10.2554 13.4821 9.19476 14.3146 8.3623C15.147 7.52985 16.2077 6.96294 17.3623 6.73326C18.517 6.50359 19.7138 6.62147 20.8014 7.07199C21.8891 7.52251 22.8187 8.28544 23.4728 9.26431C24.1268 10.2432 24.4759 11.394 24.4759 12.5713C24.4759 14.1499 23.8488 15.664 22.7325 16.7802C21.6162 17.8965 20.1022 18.5237 18.5236 18.5237Z"/>
</svg>
