<svg viewBox="0 0 28 28" xmlns="http://www.w3.org/2000/svg">
<path d="M16.1941 4.18119C16.2677 2.91578 15.3015 1.83034 14.0361 1.7568C12.7707 1.68326 11.6852 2.64946 11.6117 3.91488C11.5381 5.18029 12.5043 6.26573 13.7698 6.33927C15.0352 6.41282 16.1206 5.44661 16.1941 4.18119Z"/>
<path d="M15.2501 8.8073C15.2501 8.18634 14.7488 7.67932 14.1221 7.67932C13.5012 7.67932 12.9941 8.18064 12.9941 8.8073V11.7867C12.9941 12.3166 13.3587 12.7609 13.8487 12.8805L18.0643 14.0085C18.6682 14.168 19.2835 13.8148 19.4487 13.211C19.6082 12.6071 19.255 11.9918 18.6511 11.8266L15.2501 10.9151V8.8073Z"/>
<path d="M9.35407 16.0992L8.80718 18.8622L3.98765 18.6002C3.73129 18.5888 3.50341 18.7597 3.45214 19.0103L2.93373 21.3688C2.85397 21.7334 3.173 22.0638 3.53759 21.9898C4.0731 21.8872 4.76811 21.591 5.1555 20.7479L9.43953 21.1125L11.1315 19.5971L9.35407 16.0992Z"/>
<path d="M25.0773 20.6909L24.5646 17.7001L20.7363 19.3009L16.5947 19.0616L17.1074 22.0525C17.1302 22.1949 17.284 22.286 17.4436 22.2575L24.8267 20.9985C24.9862 20.9701 25.1001 20.8333 25.0773 20.6909Z"/>
<path d="M13.2106 24.0748L15.1418 20.463L14.0537 16.3955L14.7772 13.7009L13.7119 13.416C12.977 13.2166 12.4529 12.5615 12.4529 11.7924V8.81298C12.4529 8.48256 12.5498 8.17493 12.715 7.91857L11.5015 7.72488C11.2623 7.685 11.0458 7.74197 10.8521 7.88439C10.6584 8.02681 10.5445 8.22051 10.5103 8.45977L9.53613 15.2447L12.02 20.1269L10.7097 25.3965C10.6014 25.8408 10.9319 26.2624 11.3876 26.2624H15.0279C15.3127 26.2624 15.5121 25.989 15.4267 25.7212C15.1475 24.8097 14.7487 24.24 13.2106 24.0748Z"/>
<path d="M24.5646 17.1076C24.6843 17.0564 24.7526 16.9538 24.7355 16.857L24.3254 14.4643C24.3026 14.339 24.1545 14.2592 23.9949 14.2877L22.5536 14.5327L21.8757 13.0686C21.7276 12.778 21.3744 12.6014 21.0497 12.6869L20.0356 12.8692C20.0413 13.0287 20.0242 13.1882 19.9787 13.3534C19.9445 13.4901 19.8875 13.6212 19.8192 13.7408L21.1693 13.4958L21.7162 14.6751L18.2924 15.2618L18.3437 14.601C18.2012 14.601 18.0588 14.5839 17.9221 14.544L17.5347 14.4415L17.455 15.4043L15.9909 15.6549C15.8314 15.6834 15.7174 15.8087 15.7402 15.9341L16.1504 18.3268C16.1675 18.4293 16.2643 18.5034 16.3953 18.509L20.6395 18.7597L24.5646 17.1076Z"/>
</svg>
