<svg viewBox="0 0 26 26" xmlns="http://www.w3.org/2000/svg">
<path d="M12.9057 14.0095C12.9327 14.0095 12.9596 14.0095 12.9919 14.0095C13.0026 14.0095 13.0134 14.0095 13.0242 14.0095C13.0403 14.0095 13.0619 14.0095 13.078 14.0095C14.6556 13.9826 15.9316 13.428 16.8738 12.3674C18.9467 10.0306 18.6021 6.02485 18.5645 5.64258C18.4299 2.77283 17.0731 1.39988 15.9532 0.759163C15.1186 0.279975 14.1441 0.0215365 13.0565 0H13.0188C13.0134 0 13.0026 0 12.9973 0H12.965C12.3673 0 11.1936 0.0969145 10.0683 0.737627C8.93762 1.37834 7.55928 2.75129 7.42468 5.64258C7.38699 6.02485 7.0424 10.0306 9.1153 12.3674C10.0521 13.428 11.3282 13.9826 12.9057 14.0095ZM8.86224 5.77718C8.86224 5.76103 8.86763 5.74487 8.86763 5.73411C9.0453 1.87368 11.7858 1.4591 12.9596 1.4591H12.9811C12.9919 1.4591 13.008 1.4591 13.0242 1.4591C14.4779 1.49141 16.9492 2.08366 17.1161 5.73411C17.1161 5.75026 17.1161 5.76641 17.1215 5.77718C17.1269 5.81487 17.5038 9.47608 15.7916 11.4036C15.1132 12.1682 14.2087 12.545 13.0188 12.5558C13.008 12.5558 13.0026 12.5558 12.9919 12.5558C12.9811 12.5558 12.9757 12.5558 12.965 12.5558C11.7804 12.545 10.8705 12.1682 10.1975 11.4036C8.49074 9.48685 8.85686 5.80948 8.86224 5.77718Z"/>
<path d="M24.0563 20.6536C24.0563 20.6482 24.0563 20.6428 24.0563 20.6374C24.0563 20.5943 24.0509 20.5513 24.0509 20.5028C24.0186 19.4367 23.9486 16.9439 21.6119 16.147C21.5957 16.1417 21.5742 16.1363 21.558 16.1309C19.1298 15.5117 17.1107 14.1118 17.0892 14.0957C16.7607 13.8642 16.3085 13.9449 16.077 14.2734C15.8454 14.6018 15.9262 15.0541 16.2546 15.2856C16.3462 15.3502 18.4891 16.8416 21.1704 17.5308C22.4249 17.9776 22.5648 19.3183 22.6025 20.5459C22.6025 20.5943 22.6025 20.6374 22.6079 20.6805C22.6133 21.1651 22.581 21.9134 22.4949 22.3442C21.6226 22.8395 18.2037 24.5517 13.0026 24.5517C7.82308 24.5517 4.38262 22.8341 3.505 22.3388C3.41886 21.9081 3.38117 21.1597 3.39194 20.6751C3.39194 20.632 3.39732 20.589 3.39732 20.5405C3.43501 19.3129 3.575 17.9723 4.8295 17.5254C7.5108 16.8362 9.65369 15.3394 9.74522 15.2802C10.0737 15.0487 10.1544 14.5964 9.9229 14.268C9.69138 13.9395 9.23911 13.8588 8.91068 14.0903C8.88914 14.1064 6.88086 15.5063 4.44184 16.1255C4.42031 16.1309 4.40416 16.1363 4.388 16.1417C2.05129 16.9439 1.98129 19.4367 1.94899 20.4974C1.94899 20.5459 1.94899 20.589 1.9436 20.632C1.9436 20.6374 1.9436 20.6428 1.9436 20.6482C1.93822 20.9282 1.93284 22.3657 2.2182 23.0872C2.27204 23.2272 2.36895 23.3456 2.49817 23.4264C2.65969 23.5341 6.53089 26 13.008 26C19.4851 26 23.3563 23.5287 23.5178 23.4264C23.6417 23.3456 23.744 23.2272 23.7978 23.0872C24.067 22.3711 24.0616 20.9335 24.0563 20.6536Z"/>
</svg>
