<svg viewBox="0 0 35 35" xmlns="http://www.w3.org/2000/svg">
<path d="M20.8329 0H14.1663C7.18374 0 1.50293 5.67948 1.50293 12.6607V18.6661C1.50293 23.865 4.69759 28.5374 9.50125 30.4403V34.3335C9.50125 34.5974 9.65655 34.836 9.89784 34.9427C9.98449 34.9813 10.0765 35 10.1678 35C10.3297 35 10.4904 34.9407 10.615 34.8274L14.4802 31.3268H20.8329C27.8154 31.3268 33.4962 25.6473 33.4962 18.6661V12.6607C33.4962 5.67948 27.8154 0 20.8329 0ZM32.1632 18.6661C32.1632 24.9121 27.0809 29.9937 20.8329 29.9937H14.2229C14.0576 29.9937 13.8983 30.055 13.7757 30.1663L10.8343 32.8305V29.9784C10.8343 29.6958 10.6563 29.4438 10.3897 29.3505C5.87201 27.7528 2.83598 23.4591 2.83598 18.6661V12.6607C2.83598 6.41466 7.91892 1.33305 14.1663 1.33305H20.8329C27.0809 1.33305 32.1632 6.41466 32.1632 12.6607V18.6661Z" />
<path d="M26.3084 20.3245L22.212 17.6637C21.7641 17.3724 21.2308 17.2738 20.7089 17.3817C20.1864 17.4917 19.7371 17.8003 19.4459 18.2502L19.2532 18.5462C17.4803 17.9603 15.5254 17.2118 14.3549 13.8238L14.8395 13.4026C15.6713 12.6794 15.7586 11.4143 15.0355 10.5812L11.8308 6.8946C11.5895 6.61666 11.1683 6.58799 10.8903 6.82861L8.87808 8.57758C7.11312 10.1119 7.93762 12.3814 8.20889 13.1273C8.22089 13.1606 8.23555 13.1926 8.25288 13.2239C8.32287 13.3492 9.99385 16.3313 12.6926 19.08C15.402 21.8401 20.2937 24.3889 20.4437 24.4629C21.0022 24.8255 21.6307 24.9995 22.2526 24.9995C23.3444 24.9995 24.4148 24.4642 25.0534 23.4831L26.5051 21.2476C26.705 20.9377 26.617 20.5251 26.3084 20.3245ZM23.9349 22.7566C23.3344 23.6817 22.0933 23.9444 21.1135 23.3125C21.0649 23.2872 16.2052 20.7564 13.6438 18.1469C11.2496 15.7081 9.65992 12.9987 9.4433 12.6207C8.91541 11.1404 9.00872 10.2306 9.75257 9.58403L11.2623 8.27231L14.0297 11.4556C14.2756 11.7382 14.247 12.1515 13.9657 12.3961L13.1479 13.1066C12.9486 13.2799 12.8699 13.5539 12.9479 13.8058C14.3423 18.3369 17.0537 19.2267 19.0333 19.8765L19.3219 19.9719C19.6105 20.0692 19.9264 19.9579 20.0917 19.7032L20.5643 18.9754C20.6616 18.8248 20.8109 18.7228 20.9842 18.6861C21.1582 18.6488 21.3355 18.6835 21.4861 18.7814L25.024 21.079L23.9349 22.7566Z"/>
<path d="M19.0213 10.8291C18.6667 10.7271 18.2981 10.9331 18.1975 11.2877C18.0968 11.6416 18.3021 12.0102 18.656 12.1108C19.6492 12.3934 20.4403 13.1859 20.7203 14.1797C20.8029 14.473 21.0702 14.6656 21.3615 14.6656C21.4214 14.6656 21.4821 14.6576 21.5428 14.6409C21.8967 14.541 22.1033 14.173 22.0033 13.8185C21.5987 12.3828 20.4556 11.237 19.0213 10.8291Z"/>
<path d="M24.0935 14.8095C24.1535 14.8095 24.2142 14.8015 24.2748 14.7849C24.6294 14.6849 24.8354 14.3163 24.7354 13.9624C23.9489 11.1743 21.73 8.95076 18.944 8.15759C18.59 8.05561 18.2214 8.2629 18.1208 8.61683C18.0202 8.97076 18.2254 9.33934 18.5794 9.43999C20.9235 10.1065 22.7905 11.9788 23.4523 14.3243C23.5357 14.6176 23.8023 14.8095 24.0935 14.8095Z"/>
<path d="M18.6568 5.05357C18.3022 4.95159 17.9336 5.15754 17.833 5.5128C17.7323 5.86673 17.9376 6.23532 18.2915 6.33596C22.2634 7.46573 25.4274 10.6371 26.5485 14.6116C26.6311 14.9048 26.8984 15.0975 27.1897 15.0975C27.2496 15.0975 27.3103 15.0895 27.371 15.0728C27.7249 14.9728 27.9315 14.6042 27.8315 14.2503C26.5858 9.83323 23.0705 6.30997 18.6568 5.05357Z"/>
</svg>
