<svg width="7" height="11" viewBox="0 0 7 11" fill="none" xmlns="http://www.w3.org/2000/svg">
<path d="M1.18944 0.813455C1.05091 0.810408 0.914863 0.850568 0.800226 0.928412C0.685589 1.00626 0.598055 1.11794 0.549793 1.24783C0.501531 1.37773 0.494939 1.51941 0.530935 1.65322C0.56693 1.78703 0.643724 1.90625 0.750639 1.9944L4.83007 5.48919L0.750639 8.98275C0.676681 9.0371 0.614742 9.10611 0.568702 9.18552C0.522662 9.26492 0.493514 9.353 0.483081 9.44419C0.472648 9.53538 0.481156 9.62773 0.508072 9.71548C0.534988 9.80323 0.579732 9.8845 0.639503 9.95416C0.699273 10.0238 0.772783 10.0803 0.855427 10.1202C0.938071 10.1602 1.02807 10.1826 1.11979 10.1861C1.21151 10.1897 1.30297 10.1743 1.38844 10.1409C1.47392 10.1074 1.55156 10.0567 1.61652 9.99184L6.2871 5.9957C6.36044 5.9331 6.41934 5.85541 6.45973 5.76786C6.50011 5.6803 6.52103 5.585 6.52103 5.48857C6.52103 5.39215 6.50011 5.29685 6.45973 5.20929C6.41934 5.12174 6.36044 5.04397 6.2871 4.98138L1.61652 0.981393C1.49854 0.876594 1.34721 0.817014 1.18944 0.813301V0.813455Z" fill="white"/>
</svg>
