<svg width="16" height="12" viewBox="0 0 16 12" fill="none" xmlns="http://www.w3.org/2000/svg">
<path fill-rule="evenodd" clip-rule="evenodd" d="M0.558599 6.7951C0.651868 7.00969 0.786009 7.20405 0.953514 7.36736L4.58991 11.0037L4.59144 11.0053C4.75679 11.1716 4.95334 11.3036 5.16983 11.3938C5.38699 11.4843 5.61992 11.5309 5.85517 11.5309C6.09042 11.5309 6.32335 11.4843 6.54051 11.3938C6.75706 11.3036 6.95366 11.1715 7.11904 11.0051L7.12044 11.0037L14.8497 3.2745C15.0239 3.1102 15.1633 2.91241 15.2595 2.69292C15.3582 2.46749 15.4092 2.22405 15.4092 1.97794C15.4092 1.73183 15.3582 1.48839 15.2595 1.26296C15.1632 1.04318 15.0236 0.845159 14.849 0.680729C14.6861 0.519841 14.4936 0.391813 14.2822 0.303709C14.065 0.213236 13.8321 0.166656 13.5968 0.166656C13.3616 0.166656 13.1286 0.213236 12.9115 0.303709C12.6948 0.393982 12.497 0.527287 12.3316 0.693788L5.85572 7.17831L3.47594 4.79072L3.46462 4.77978C3.29433 4.61529 3.09332 4.48595 2.87305 4.39915C2.65278 4.31234 2.41758 4.26977 2.18086 4.27387C1.94414 4.27796 1.71054 4.32864 1.49341 4.42302C1.27627 4.51739 1.07985 4.65361 0.915365 4.82389C0.750874 4.99417 0.621534 5.19518 0.534729 5.41545C0.447925 5.63572 0.405354 5.87093 0.409449 6.10765C0.413545 6.34437 0.464226 6.57796 0.558599 6.7951Z" fill="white"/>
</svg>
