<svg xmlns="http://www.w3.org/2000/svg" version="1.1" xmlns:xlink="http://www.w3.org/1999/xlink" xmlns:svgjs="http://svgjs.com/svgjs" x="0" y="0" viewBox="0 0 480.017 480.017" style="enable-background:new 0 0 512 512" xml:space="preserve"><g><g><path d="m448.009 394.017h-416c-8.822 0-16-7.178-16-16v-321c0-8.822 7.178-16 16-16h88c4.418 0 8-3.582 8-8s-3.582-8-8-8h-88c-17.645 0-32 14.355-32 32v321c0 17.645 14.355 32 32 32h139.455l-11.127 39.496c-4.302 15.308 7.176 30.504 23.102 30.504h113.14c15.901 0 27.411-15.172 23.102-30.504-1.195-4.253-5.613-6.731-9.866-5.537-4.253 1.196-6.732 5.613-5.537 9.866 1.438 5.119-2.405 10.175-7.699 10.175h-113.14c-5.3 0-9.135-5.064-7.7-10.17l12.348-43.83h259.922c4.418 0 8-3.582 8-8s-3.582-8-8-8z" fill="#95CDB2" data-original="#95CDB2" class=""></path><path d="m448.009 25.017h-79c-4.418 0-8 3.582-8 8s3.582 8 8 8h79c8.822 0 16 7.178 16 16v287h-92v-4.295c0-22.056-14.01-41.704-34.862-48.894l-34.729-11.977c-12.716-4.385-21.748-15.511-23.676-28.55 30.423-14.966 49.267-45.922 49.267-79.058v-39.227h14.442c5.271 0 9.558 4.288 9.558 9.558v29.884c0 5.125-4.005 9.32-9.118 9.548-3.661.164-6.743 2.795-7.479 6.385-4.481 21.851-15.047 41.914-30.558 58.022-4.908 5.097-1.226 13.549 5.762 13.549 2.098 0 4.194-.82 5.764-2.451 16.348-16.978 27.861-37.831 33.502-60.585 10.547-3.18 18.127-12.944 18.127-24.468v-29.884c0-11.817-8.063-21.783-18.976-24.695v-44.436c.025-40.024-32.538-72.419-72.793-72.443h-55.169c-28.271 0-53.511 15.895-65.616 40.899-13.988 2.534-24.631 14.729-24.641 29.357v23.148c0 4.418 3.582 8 8 8s8-3.582 8-8v-23.142c.005-7.637 6.302-13.846 14.04-13.846 3.323 0 6.227-2.018 7.433-5.005 8.685-21.515 29.4-35.411 52.789-35.411h55.16c31.419.019 56.816 25.263 56.797 56.438v43.579c-13.66 0-13.989-.196-15.901.542-41.778 5.051-83.264-6.14-116.7-31.767-4.253-3.259-10.453-1.494-12.349 3.52-4.903 12.959-14.79 23.22-28.43 27.705h-22.085c-14.093 0-25.558 11.465-25.558 25.558v29.884c0 9.305 5.063 17.882 13.214 22.383 3.859 2.132 8.731.74 10.871-3.135 2.136-3.868.732-8.735-3.135-10.871-3.053-1.686-4.949-4.896-4.949-8.377v-29.884c0-5.271 4.288-9.558 9.558-9.558h14.442v38.34c.001 17.966 5.319 35.315 15.38 50.173 2.477 3.658 7.45 4.616 11.11 2.138 3.658-2.477 4.616-7.451 2.138-11.109-8.262-12.201-12.628-26.45-12.628-41.207v-40.348c12.641-4.981 23.462-14.09 30.668-26.739 34.13 23.289 74.067 33.058 113.332 29.901v38.077c0 51.148-52.097 86.173-99.271 66.624-5.168-2.146-10.939 1.588-11.055 7.223-.358 16.72-10.704 29.148-24.084 33.761l-34.807 12.002c-11.341 3.931-21.019 11.742-27.258 22.002-3.249 5.344.636 12.158 6.828 12.158 2.701 0 5.337-1.368 6.843-3.844 4.32-7.104 11.025-12.507 18.881-15.216 37.575-12.957 38.185-12.805 44.161-16.336 13.796 28.468 49.316 37.04 75.221 21.965 3.819-2.223 5.113-7.12 2.891-10.938-2.223-3.819-7.121-5.112-10.938-2.891-18.919 11.012-45.892 4.307-54.359-18.851 5.605-6.486 9.576-14.328 11.429-22.85 15.208 4.238 31.618 4.276 47.043.028 3.789 17.379 16.384 31.939 33.668 37.899l34.731 11.975c14.4 4.965 24.076 18.536 24.076 33.769v4.295h-290.099c-4.418 0-8 3.582-8 8s3.582 8 8 8h406.097c4.418 0 8-3.582 8-8v-295c0-17.646-14.355-32.001-32-32.001z" fill="#95CDB2" data-original="#95CDB2" class=""></path></g></g></svg>