<svg xmlns="http://www.w3.org/2000/svg" version="1.1" xmlns:xlink="http://www.w3.org/1999/xlink" xmlns:svgjs="http://svgjs.com/svgjs" width="512" height="512" x="0" y="0" viewBox="0 0 682.66669 682.66669" style="enable-background:new 0 0 512 512" xml:space="preserve" class=""><g><defs id="defs2461"><clipPath clipPathUnits="userSpaceOnUse" id="clipPath2471"><path d="M 0,512 H 512 V 0 H 0 Z" id="path2469" fill="#95CDB2" data-original="#95CDB2"></path></clipPath></defs><g id="g2463" transform="matrix(1.3333333,0,0,-1.3333333,0,682.66667)"><g id="g2465"><g id="g2467" clip-path="url(#clipPath2471)"><g id="g2473" transform="translate(460.8389,119.7256)"><path d="m 0,0 c -4.745,-17.708 -22.947,-32.064 -40.656,-32.064 -17.709,0 -28.218,14.356 -23.473,32.064 4.745,17.709 22.947,32.065 40.656,32.065 C -5.764,32.065 4.745,17.709 0,0 Z" style="stroke-width:15;stroke-linecap:round;stroke-linejoin:round;stroke-miterlimit:10;stroke-dasharray:none;stroke-opacity:1" id="path2475" fill="none" stroke="#95CDB2" stroke-width="15" stroke-linecap="round" stroke-linejoin="round" stroke-miterlimit="10" stroke-dasharray="none" stroke-opacity="" data-original="#95CDB2" class=""></path></g><g id="g2477" transform="translate(428.8545,119.7256)"><path d="M 0,0 H -0.08" style="stroke-width:15;stroke-linecap:round;stroke-linejoin:round;stroke-miterlimit:10;stroke-dasharray:none;stroke-opacity:1" id="path2479" fill="none" stroke="#95CDB2" stroke-width="15" stroke-linecap="round" stroke-linejoin="round" stroke-miterlimit="10" stroke-dasharray="none" stroke-opacity="" data-original="#95CDB2" class=""></path></g><g id="g2481" transform="translate(212.3389,119.7256)"><path d="m 0,0 c -4.745,-17.708 -22.947,-32.064 -40.656,-32.064 -17.709,0 -28.218,14.356 -23.473,32.064 4.745,17.709 22.947,32.065 40.656,32.065 C -5.764,32.065 4.745,17.709 0,0 Z" style="stroke-width:15;stroke-linecap:round;stroke-linejoin:round;stroke-miterlimit:10;stroke-dasharray:none;stroke-opacity:1" id="path2483" fill="none" stroke="#95CDB2" stroke-width="15" stroke-linecap="round" stroke-linejoin="round" stroke-miterlimit="10" stroke-dasharray="none" stroke-opacity="" data-original="#95CDB2" class=""></path></g><g id="g2485" transform="translate(180.3545,119.7256)"><path d="M 0,0 H -0.08" style="stroke-width:15;stroke-linecap:round;stroke-linejoin:round;stroke-miterlimit:10;stroke-dasharray:none;stroke-opacity:1" id="path2487" fill="none" stroke="#95CDB2" stroke-width="15" stroke-linecap="round" stroke-linejoin="round" stroke-miterlimit="10" stroke-dasharray="none" stroke-opacity="" data-original="#95CDB2" class=""></path></g><g id="g2489" transform="translate(212.3389,119.7256)"><path d="M 0,0 H 184.371" style="stroke-width:15;stroke-linecap:round;stroke-linejoin:round;stroke-miterlimit:10;stroke-dasharray:none;stroke-opacity:1" id="path2491" fill="none" stroke="#95CDB2" stroke-width="15" stroke-linecap="round" stroke-linejoin="round" stroke-miterlimit="10" stroke-dasharray="none" stroke-opacity="" data-original="#95CDB2" class=""></path></g><g id="g2493" transform="translate(336.1611,328.145)"><path d="m 0,0 h 52.266 c 4.426,0 7.054,-3.589 5.868,-8.016 L 4.436,-208.419" style="stroke-width:15;stroke-linecap:round;stroke-linejoin:round;stroke-miterlimit:10;stroke-dasharray:none;stroke-opacity:1" id="path2495" fill="none" stroke="#95CDB2" stroke-width="15" stroke-linecap="round" stroke-linejoin="round" stroke-miterlimit="10" stroke-dasharray="none" stroke-opacity="" data-original="#95CDB2" class=""></path></g><g id="g2497" transform="translate(148.21,119.7256)"><path d="m 0,0 h -40.081 c -4.427,0 -7.054,3.589 -5.868,8.016 l 15.036,56.115" style="stroke-width:15;stroke-linecap:round;stroke-linejoin:round;stroke-miterlimit:10;stroke-dasharray:none;stroke-opacity:1" id="path2499" fill="none" stroke="#95CDB2" stroke-width="15" stroke-linecap="round" stroke-linejoin="round" stroke-miterlimit="10" stroke-dasharray="none" stroke-opacity="" data-original="#95CDB2" class=""></path></g><g id="g2501" transform="translate(392.147,312.1128)"><path d="m 0,0 h 67.916 c 7.23,0 12.268,-4.839 12.302,-11.814 l 0.365,-76.363 27.104,-19.379 c 4.053,-2.897 5.609,-8.115 4.1,-13.747 l -14.751,-55.051 c -2.372,-8.855 -11.473,-16.033 -20.328,-16.033 h -8.016" style="stroke-width:15;stroke-linecap:round;stroke-linejoin:round;stroke-miterlimit:10;stroke-dasharray:none;stroke-opacity:1" id="path2503" fill="none" stroke="#95CDB2" stroke-width="15" stroke-linecap="round" stroke-linejoin="round" stroke-miterlimit="10" stroke-dasharray="none" stroke-opacity="" data-original="#95CDB2" class=""></path></g><g id="g2505" transform="translate(502.0703,183.855)"><path d="M 0,0 H -16.032" style="stroke-width:15;stroke-linecap:round;stroke-linejoin:round;stroke-miterlimit:10;stroke-dasharray:none;stroke-opacity:1" id="path2507" fill="none" stroke="#95CDB2" stroke-width="15" stroke-linecap="round" stroke-linejoin="round" stroke-miterlimit="10" stroke-dasharray="none" stroke-opacity="" data-original="#95CDB2" class=""></path></g><g id="g2509" transform="translate(453.9736,183.855)"><path d="M 0,0 H -96.193" style="stroke-width:15;stroke-linecap:round;stroke-linejoin:round;stroke-miterlimit:10;stroke-dasharray:none;stroke-opacity:1" id="path2511" fill="none" stroke="#95CDB2" stroke-width="15" stroke-linecap="round" stroke-linejoin="round" stroke-miterlimit="10" stroke-dasharray="none" stroke-opacity="" data-original="#95CDB2" class=""></path></g><g id="g2513" transform="translate(472.7295,223.9355)"><path d="m 0,0 h -56.113 c -8.854,0 -14.109,7.178 -11.736,16.032 l 6.443,24.049 c 2.373,8.854 11.474,16.032 20.328,16.032 h 40.081" style="stroke-width:15;stroke-linecap:round;stroke-linejoin:round;stroke-miterlimit:10;stroke-dasharray:none;stroke-opacity:1" id="path2515" fill="none" stroke="#95CDB2" stroke-width="15" stroke-linecap="round" stroke-linejoin="round" stroke-miterlimit="10" stroke-dasharray="none" stroke-opacity="" data-original="#95CDB2" class=""></path></g><g id="g2517" transform="translate(304.0967,312.1128)"><path d="m 0,0 c 0,-61.98 -50.245,-112.226 -112.226,-112.226 -61.981,0 -112.226,50.246 -112.226,112.226 0,61.98 50.245,112.226 112.226,112.226 C -50.245,112.226 0,61.98 0,0 Z" style="stroke-width:15;stroke-linecap:round;stroke-linejoin:round;stroke-miterlimit:10;stroke-dasharray:none;stroke-opacity:1" id="path2519" fill="none" stroke="#95CDB2" stroke-width="15" stroke-linecap="round" stroke-linejoin="round" stroke-miterlimit="10" stroke-dasharray="none" stroke-opacity="" data-original="#95CDB2" class=""></path></g><g id="g2521" transform="translate(207.9033,312.1128)"><path d="m 0,0 c 0,-8.854 -7.178,-16.032 -16.032,-16.032 -8.855,0 -16.032,7.178 -16.032,16.032 0,8.854 7.177,16.032 16.032,16.032 C -7.178,16.032 0,8.854 0,0 Z" style="stroke-width:15;stroke-linecap:round;stroke-linejoin:round;stroke-miterlimit:10;stroke-dasharray:none;stroke-opacity:1" id="path2523" fill="none" stroke="#95CDB2" stroke-width="15" stroke-linecap="round" stroke-linejoin="round" stroke-miterlimit="10" stroke-dasharray="none" stroke-opacity="" data-original="#95CDB2" class=""></path></g><g id="g2525" transform="translate(204.396,324.6382)"><path d="M 0,0 43.588,43.587" style="stroke-width:15;stroke-linecap:round;stroke-linejoin:round;stroke-miterlimit:10;stroke-dasharray:none;stroke-opacity:1" id="path2527" fill="none" stroke="#95CDB2" stroke-width="15" stroke-linecap="round" stroke-linejoin="round" stroke-miterlimit="10" stroke-dasharray="none" stroke-opacity="" data-original="#95CDB2" class=""></path></g><g id="g2529" transform="translate(159.8066,280.0483)"><path d="M 0,0 20.04,20.041" style="stroke-width:15;stroke-linecap:round;stroke-linejoin:round;stroke-miterlimit:10;stroke-dasharray:none;stroke-opacity:1" id="path2531" fill="none" stroke="#95CDB2" stroke-width="15" stroke-linecap="round" stroke-linejoin="round" stroke-miterlimit="10" stroke-dasharray="none" stroke-opacity="" data-original="#95CDB2" class=""></path></g><g id="g2533" transform="translate(191.8711,392.2744)"><path d="M 0,0 V -8.016" style="stroke-width:15;stroke-linecap:round;stroke-linejoin:round;stroke-miterlimit:10;stroke-dasharray:none;stroke-opacity:1" id="path2535" fill="none" stroke="#95CDB2" stroke-width="15" stroke-linecap="round" stroke-linejoin="round" stroke-miterlimit="10" stroke-dasharray="none" stroke-opacity="" data-original="#95CDB2" class=""></path></g><g id="g2537" transform="translate(191.8711,239.9678)"><path d="M 0,0 V -8.016" style="stroke-width:15;stroke-linecap:round;stroke-linejoin:round;stroke-miterlimit:10;stroke-dasharray:none;stroke-opacity:1" id="path2539" fill="none" stroke="#95CDB2" stroke-width="15" stroke-linecap="round" stroke-linejoin="round" stroke-miterlimit="10" stroke-dasharray="none" stroke-opacity="" data-original="#95CDB2" class=""></path></g><g id="g2541" transform="translate(272.0322,312.1128)"><path d="M 0,0 H -8.016" style="stroke-width:15;stroke-linecap:round;stroke-linejoin:round;stroke-miterlimit:10;stroke-dasharray:none;stroke-opacity:1" id="path2543" fill="none" stroke="#95CDB2" stroke-width="15" stroke-linecap="round" stroke-linejoin="round" stroke-miterlimit="10" stroke-dasharray="none" stroke-opacity="" data-original="#95CDB2" class=""></path></g><g id="g2545" transform="translate(119.7256,312.1128)"><path d="M 0,0 H -8.016" style="stroke-width:15;stroke-linecap:round;stroke-linejoin:round;stroke-miterlimit:10;stroke-dasharray:none;stroke-opacity:1" id="path2547" fill="none" stroke="#95CDB2" stroke-width="15" stroke-linecap="round" stroke-linejoin="round" stroke-miterlimit="10" stroke-dasharray="none" stroke-opacity="" data-original="#95CDB2" class=""></path></g><g id="g2549" transform="translate(87.6611,207.9033)"><path d="M 0,0 H -80.161" style="stroke-width:15;stroke-linecap:round;stroke-linejoin:round;stroke-miterlimit:10;stroke-dasharray:none;stroke-opacity:1" id="path2551" fill="none" stroke="#95CDB2" stroke-width="15" stroke-linecap="round" stroke-linejoin="round" stroke-miterlimit="10" stroke-dasharray="none" stroke-opacity="" data-original="#95CDB2" class=""></path></g><g id="g2553" transform="translate(79.645,175.8389)"><path d="M 0,0 H -48.097" style="stroke-width:15;stroke-linecap:round;stroke-linejoin:round;stroke-miterlimit:10;stroke-dasharray:none;stroke-opacity:1" id="path2555" fill="none" stroke="#95CDB2" stroke-width="15" stroke-linecap="round" stroke-linejoin="round" stroke-miterlimit="10" stroke-dasharray="none" stroke-opacity="" data-original="#95CDB2" class=""></path></g><g id="g2557" transform="translate(71.6289,143.7744)"><path d="M 0,0 H -16.032" style="stroke-width:15;stroke-linecap:round;stroke-linejoin:round;stroke-miterlimit:10;stroke-dasharray:none;stroke-opacity:1" id="path2559" fill="none" stroke="#95CDB2" stroke-width="15" stroke-linecap="round" stroke-linejoin="round" stroke-miterlimit="10" stroke-dasharray="none" stroke-opacity="" data-original="#95CDB2" class=""></path></g></g></g></g></g></svg>