<svg xmlns="http://www.w3.org/2000/svg" version="1.1" xmlns:xlink="http://www.w3.org/1999/xlink" xmlns:svgjs="http://svgjs.com/svgjs" width="512" height="512" x="0" y="0" viewBox="0 0 64 64" style="enable-background:new 0 0 512 512" xml:space="preserve" class=""><g><g id="_13-eco_friendly_product" data-name="13-eco friendly product"><path d="m54.48 26.12-11-6a1 1 0 0 0 -1 1.76l9.43 5.12-19.91 10.86-4.52-2.47a1 1 0 1 0 -1 1.76l4.52 2.44v21.73l-20-10.91v-21.73l3.52 1.92a.94.94 0 0 0 .48.13 1 1 0 0 0 .48-1.88l-3.39-1.85 9.39-5.12a1 1 0 1 0 -1-1.76l-11 6a1 1 0 0 0 -.48.88v24a1 1 0 0 0 .52.88l22 12h.14.09a1.06 1.06 0 0 0 .5 0h.09.14l22-12a1 1 0 0 0 .52-.88v-24a1 1 0 0 0 -.52-.88zm-21.48 35.2v-21.73l20-10.91v21.73z" fill="#95CDB2" data-original="#95CDB2" class=""></path><path d="m24.5 26.13a1 1 0 0 0 -1 0l-7 4a1 1 0 0 0 -.5.87v9a1 1 0 0 0 .5.87l7 4a1 1 0 0 0 .5.13 1 1 0 0 0 .5-.13 1 1 0 0 0 .5-.87v-8.42l6.5-3.71a1 1 0 0 0 0-1.74zm-1 8a1 1 0 0 0 -.5.87v7.28l-5-2.86v-7.84l6-3.43 5 2.85z" fill="#95CDB2" data-original="#95CDB2" class=""></path><path d="m48.5 42.13-7 4a1 1 0 0 0 1 1.74l7-4a1 1 0 1 0 -1-1.74z" fill="#95CDB2" data-original="#95CDB2" class=""></path><path d="m48.5 47.13-7 4a1 1 0 0 0 1 1.74l7-4a1 1 0 1 0 -1-1.74z" fill="#95CDB2" data-original="#95CDB2" class=""></path><path d="m27.42 19.77a16 16 0 0 0 3.58-.38v7.61h2v-7.68a13.12 13.12 0 0 0 4.94 1.05 8.93 8.93 0 0 0 4.53-1.17c4.77-2.76 4.93-8.92 4.93-9.18a1 1 0 0 0 -.51-.89c-.23-.13-5.65-3.08-10.42-.33a9.59 9.59 0 0 0 -4.14 5.2 14.46 14.46 0 0 0 -4.2-9.8c-6-6-14.06-3.89-14.4-3.79a1 1 0 0 0 -.71.7c-.09.34-2.2 8.4 3.8 14.4a14.66 14.66 0 0 0 10.6 4.26zm10-9.23c3-1.73 6.53-.52 7.88.07-.17 1.46-.88 5.12-3.88 6.85a8.35 8.35 0 0 1 -6.66.38l6.9-4a1 1 0 0 0 -1-1.74l-6.9 4a8.36 8.36 0 0 1 3.71-5.56zm-22.59-8.3c1.83-.32 7.58-.91 11.89 3.4a13.28 13.28 0 0 1 3.56 10.63l-9.93-9.92a1 1 0 0 0 -1.41 1.41l9.92 9.93a13.25 13.25 0 0 1 -10.63-3.56c-4.31-4.31-3.72-10.06-3.4-11.89z" fill="#95CDB2" data-original="#95CDB2" class=""></path></g></g></svg>