<svg xmlns="http://www.w3.org/2000/svg" version="1.1" xmlns:xlink="http://www.w3.org/1999/xlink" xmlns:svgjs="http://svgjs.com/svgjs" width="512" height="512" x="0" y="0" viewBox="0 0 682.66669 682.66669" style="enable-background:new 0 0 512 512" xml:space="preserve" class=""><g><defs id="defs385"><clipPath clipPathUnits="userSpaceOnUse" id="clipPath395"><path d="M 0,512 H 512 V 0 H 0 Z" id="path393" fill="#95CDB2" data-original="#95CDB2"></path></clipPath></defs><g id="g387" transform="matrix(1.3333333,0,0,-1.3333333,0,682.66667)"><g id="g389"><g id="g391" clip-path="url(#clipPath395)"><g id="g397" transform="translate(127.5234,429.9438)"><path d="m 0,0 c -9.933,-13.631 -17.398,-28.664 -22.325,-44.389 23.795,-3.334 46.278,-13.269 64.347,-29.107 53.472,-46.87 134.225,-51.487 193.233,-6.982 13.91,10.491 25.522,22.898 34.758,36.571 -5.05,15.886 -12.812,31.192 -23.32,45.309 C 205.426,56.842 133.295,76.244 71.155,53.52" style="stroke-width:20;stroke-linecap:round;stroke-linejoin:round;stroke-miterlimit:10;stroke-dasharray:none;stroke-opacity:1" id="path399" fill="none" stroke="#95CDB2" stroke-width="20" stroke-linecap="round" stroke-linejoin="round" stroke-miterlimit="10" stroke-dasharray="none" stroke-opacity="" data-original="#95CDB2"></path></g><g id="g401" transform="translate(434.293,347.7603)"><path d="m 0,0 c -38.937,52.159 -101.144,85.93 -171.238,85.93 -21.689,0 -42.622,-3.233 -62.346,-9.244" style="stroke-width:20;stroke-linecap:round;stroke-linejoin:round;stroke-miterlimit:10;stroke-dasharray:none;stroke-opacity:1" id="path403" fill="none" stroke="#95CDB2" stroke-width="20" stroke-linecap="round" stroke-linejoin="round" stroke-miterlimit="10" stroke-dasharray="none" stroke-opacity="" data-original="#95CDB2"></path></g><g id="g405" transform="translate(296.6943,389.73)"><path d="M 0,0 38.409,31.5" style="stroke-width:20;stroke-linecap:round;stroke-linejoin:round;stroke-miterlimit:10;stroke-dasharray:none;stroke-opacity:1" id="path407" fill="none" stroke="#95CDB2" stroke-width="20" stroke-linecap="round" stroke-linejoin="round" stroke-miterlimit="10" stroke-dasharray="none" stroke-opacity="" data-original="#95CDB2"></path></g><g id="g409" transform="translate(267.9707,433.6299)"><path d="M 0,0 -25.439,22.428" style="stroke-width:20;stroke-linecap:round;stroke-linejoin:round;stroke-miterlimit:10;stroke-dasharray:none;stroke-opacity:1" id="path411" fill="none" stroke="#95CDB2" stroke-width="20" stroke-linecap="round" stroke-linejoin="round" stroke-miterlimit="10" stroke-dasharray="none" stroke-opacity="" data-original="#95CDB2"></path></g><g id="g413" transform="translate(103.4873,35.2324)"><path d="m 0,0 c 30.553,-13.043 63.021,-15.236 93.146,-8.501 -9.011,22.274 -11.649,46.712 -6.967,70.28 13.855,69.743 -22.524,141.986 -90.57,170.836 -16.041,6.801 -32.591,10.653 -49.05,11.815 -11.234,-12.317 -20.608,-26.691 -27.58,-42.85 C -114.491,124.001 -78.255,33.407 0,0 Z" style="stroke-width:20;stroke-linecap:round;stroke-linejoin:round;stroke-miterlimit:10;stroke-dasharray:none;stroke-opacity:1" id="path415" fill="none" stroke="#95CDB2" stroke-width="20" stroke-linecap="round" stroke-linejoin="round" stroke-miterlimit="10" stroke-dasharray="none" stroke-opacity="" data-original="#95CDB2"></path></g><g id="g417" transform="translate(64.8154,330.6333)"><path d="m 0,0 c -25.702,-59.799 -23.846,-130.558 11.202,-191.262 10.845,-18.783 24.111,-35.295 39.179,-49.37" style="stroke-width:20;stroke-linecap:round;stroke-linejoin:round;stroke-miterlimit:10;stroke-dasharray:none;stroke-opacity:1" id="path419" fill="none" stroke="#95CDB2" stroke-width="20" stroke-linecap="round" stroke-linejoin="round" stroke-miterlimit="10" stroke-dasharray="none" stroke-opacity="" data-original="#95CDB2"></path></g><g id="g421" transform="translate(97.2686,190.4839)"><path d="M 0,0 -46.484,17.514" style="stroke-width:20;stroke-linecap:round;stroke-linejoin:round;stroke-miterlimit:10;stroke-dasharray:none;stroke-opacity:1" id="path423" fill="none" stroke="#95CDB2" stroke-width="20" stroke-linecap="round" stroke-linejoin="round" stroke-miterlimit="10" stroke-dasharray="none" stroke-opacity="" data-original="#95CDB2"></path></g><g id="g425" transform="translate(73.6123,143.6592)"><path d="M 0,0 -6.703,-33.246" style="stroke-width:20;stroke-linecap:round;stroke-linejoin:round;stroke-miterlimit:10;stroke-dasharray:none;stroke-opacity:1" id="path427" fill="none" stroke="#95CDB2" stroke-width="20" stroke-linecap="round" stroke-linejoin="round" stroke-miterlimit="10" stroke-dasharray="none" stroke-opacity="" data-original="#95CDB2"></path></g><g id="g429" transform="translate(500.876,200.4106)"><path d="M 0,0 C -3.98,32.981 -18.316,62.197 -39.21,84.917 -53.995,65.977 -73.841,51.473 -96.592,43.744 -163.918,20.871 -208.293,-46.755 -199.255,-120.11 c 2.131,-17.292 7.069,-33.552 14.293,-48.386 16.283,-3.57 33.419,-4.501 50.899,-2.46 C -50.143,-161.152 10.196,-84.474 0,0 Z" style="stroke-width:20;stroke-linecap:round;stroke-linejoin:round;stroke-miterlimit:10;stroke-dasharray:none;stroke-opacity:1" id="path431" fill="none" stroke="#95CDB2" stroke-width="20" stroke-linecap="round" stroke-linejoin="round" stroke-miterlimit="10" stroke-dasharray="none" stroke-opacity="" data-original="#95CDB2"></path></g><g id="g433" transform="translate(264.3867,19.2197)"><path d="m 0,0 c 64.64,7.641 124.989,44.628 160.037,105.332 10.845,18.783 18.511,38.529 23.167,58.615" style="stroke-width:20;stroke-linecap:round;stroke-linejoin:round;stroke-miterlimit:10;stroke-dasharray:none;stroke-opacity:1" id="path435" fill="none" stroke="#95CDB2" stroke-width="20" stroke-linecap="round" stroke-linejoin="round" stroke-miterlimit="10" stroke-dasharray="none" stroke-opacity="" data-original="#95CDB2"></path></g><g id="g437" transform="translate(369.5332,117.3994)"><path d="M 0,0 8.075,-49.013" style="stroke-width:20;stroke-linecap:round;stroke-linejoin:round;stroke-miterlimit:10;stroke-dasharray:none;stroke-opacity:1" id="path439" fill="none" stroke="#95CDB2" stroke-width="20" stroke-linecap="round" stroke-linejoin="round" stroke-miterlimit="10" stroke-dasharray="none" stroke-opacity="" data-original="#95CDB2"></path></g><g id="g441" transform="translate(421.9131,120.3247)"><path d="M 0,0 32.144,10.818" style="stroke-width:20;stroke-linecap:round;stroke-linejoin:round;stroke-miterlimit:10;stroke-dasharray:none;stroke-opacity:1" id="path443" fill="none" stroke="#95CDB2" stroke-width="20" stroke-linecap="round" stroke-linejoin="round" stroke-miterlimit="10" stroke-dasharray="none" stroke-opacity="" data-original="#95CDB2"></path></g><g id="g445" transform="translate(159.1328,461.9707)"><path d="M 0,0 V 0" style="stroke-width:20;stroke-linecap:round;stroke-linejoin:round;stroke-miterlimit:10;stroke-dasharray:none;stroke-opacity:1" id="path447" fill="none" stroke="#95CDB2" stroke-width="20" stroke-linecap="round" stroke-linejoin="round" stroke-miterlimit="10" stroke-dasharray="none" stroke-opacity="" data-original="#95CDB2"></path></g></g></g></g></g></svg>