<svg xmlns="http://www.w3.org/2000/svg" version="1.1" xmlns:xlink="http://www.w3.org/1999/xlink" xmlns:svgjs="http://svgjs.com/svgjs" width="512" height="512" x="0" y="0" viewBox="0 0 64 64" style="enable-background:new 0 0 512 512" xml:space="preserve" class=""><g><path d="M47,57V49a.99943.99943,0,0,0-1-1V42.80859a1.49977,1.49977,0,0,0-2.1709-1.34082L41.10645,42.8291A1.98639,1.98639,0,0,0,40,44.61816V48a.99943.99943,0,0,0-1,1v8a.99943.99943,0,0,0-1,1v4a.99943.99943,0,0,0,1,1h8a.99943.99943,0,0,0,1-1V58A.99943.99943,0,0,0,47,57ZM42,44.61816l2-1V48H42ZM41,50h4v7H41Zm5,11H40V59h6Z" fill="#95CDB2" data-original="#95CDB2"></path><path d="M36,47H30a.99991.99991,0,0,0-.99609,1.09082L30,59.04785V61a2.0026,2.0026,0,0,0,2,2h2a2.0026,2.0026,0,0,0,2-2V59.04785l.99609-10.957A.99991.99991,0,0,0,36,47ZM34,61H32V60h2Zm.08661-3H31.91339l-.81866-9h3.81054Z" fill="#95CDB2" data-original="#95CDB2"></path><path d="M24,49H18.05249l.01489-1.99023a7.99888,7.99888,0,0,0-4.98217-7.4231L13.08923,37H14a.99928.99928,0,0,0,.707-.293l.707-.707H17a.99943.99943,0,0,0,1-1V32a.99943.99943,0,0,0-1-1H8a3.00328,3.00328,0,0,0-3,3v2a.99943.99943,0,0,0,1,1H7.08923l-.004,2.58569a8.0002,8.0002,0,0,0-5.0022,7.4065V60a.99942.99942,0,0,0,1,1H11v1a.99943.99943,0,0,0,1,1H26a.99943.99943,0,0,0,1-1V52A3.00328,3.00328,0,0,0,24,49ZM7,35V34a1.00067,1.00067,0,0,1,1-1h8v1H15a.99928.99928,0,0,0-.707.293l-.707.707Zm4.08923,2L11.086,39.07068A8.09209,8.09209,0,0,0,10.0752,39a8.00218,8.00218,0,0,0-.98914.06781L9.08923,37Zm-1.014,4a5.95346,5.95346,0,0,1,4.24218,1.75977,6.023,6.023,0,0,1,.94391,1.23822l-10.36145-.0116A5.99106,5.99106,0,0,1,10.0752,41ZM11,52v7H4.083V46.99219a5.98027,5.98027,0,0,1,.09143-1.00659l11.806.01318A6.013,6.013,0,0,1,16.06738,47l-.015,2H14A3.00328,3.00328,0,0,0,11,52Zm14,9H13V55H25Zm0-8H13V52a1.00067,1.00067,0,0,1,1-1H24a1.00067,1.00067,0,0,1,1,1Z" fill="#95CDB2" data-original="#95CDB2"></path><path d="M59,40V37a2.0026,2.0026,0,0,0-2-2H55a2.0026,2.0026,0,0,0-2,2v3a3.00328,3.00328,0,0,0-3,3V62a.99943.99943,0,0,0,1,1H61a.99943.99943,0,0,0,1-1V43A3.00328,3.00328,0,0,0,59,40Zm-4-3h2v3H55Zm5,24H52V46h8Zm0-17H52V43a1.00067,1.00067,0,0,1,1-1h6a1.00067,1.00067,0,0,1,1,1Z" fill="#95CDB2" data-original="#95CDB2"></path><path d="M17.2168,16a15,15,0,1,0,15-15A15.0164,15.0164,0,0,0,17.2168,16Zm28,0a13,13,0,1,1-13-13A13.01505,13.01505,0,0,1,45.2168,16Z" fill="#95CDB2" data-original="#95CDB2"></path><path d="M23.25293,10.30957h-.002a1.00083,1.00083,0,0,0-.958.71289c-.06641.22363-1.60449,5.50195.95605,8.93555,1.99561,2.6759,5.8014,3.30133,7.46387,3.44787.22.73987.41339,1.22107.44141,1.28846a.99944.99944,0,0,0,.92382.61718.94935.94935,0,0,0,.1045-.00586c.27343-.02832,6.72656-.75293,9.30273-5.08593s.13086-10.34864.02539-10.60254a.99015.99015,0,0,0-1.02832-.61133c-.26465.0274-6.30762.71728-9.03216,4.68939C28.85913,10.36456,23.483,10.30957,23.25293,10.30957ZM30.02319,18.25c-.51965-.66309-1.061-1.3078-1.62573-1.9248-.65234-.71387-1.34668-1.40821-2.0625-2.0625l-1.34961,1.4746c.67188.61524,1.32324,1.26758,1.9375,1.9375a31.20376,31.20376,0,0,1,2.80841,3.58307c-1.54339-.27038-3.70465-.92114-4.87872-2.49517-1.46973-1.97071-1.10156-5-.82227-6.4043,1.42481.13769,4.42871.65918,5.90039,2.63086a4.35149,4.35149,0,0,1,.4878.85522A9.99178,9.99178,0,0,0,30.02319,18.25Zm2.87525-3.13672C34.502,12.418,38.292,11.42773,39.92383,11.11719c.50976,1.5791,1.45117,5.374-.15723,8.081-1.2655,2.12714-3.87964,3.18341-5.73321,3.69061a66.45343,66.45343,0,0,1,5.22735-9.06463L37.6123,12.69141a67.12738,67.12738,0,0,0-5.25714,9.08667C31.93274,19.91217,31.66254,17.19336,32.89844,15.11328Z" fill="#95CDB2" data-original="#95CDB2"></path></g></svg>