<svg xmlns="http://www.w3.org/2000/svg" version="1.1" xmlns:xlink="http://www.w3.org/1999/xlink" xmlns:svgjs="http://svgjs.com/svgjs" width="512" height="512" x="0" y="0" viewBox="0 0 682.66669 682.66669" style="enable-background:new 0 0 512 512" xml:space="preserve" class=""><g><defs id="defs3304"><clipPath clipPathUnits="userSpaceOnUse" id="clipPath3314"><path d="M 0,512 H 512 V 0 H 0 Z" id="path3312" fill="#95CDB2" data-original="#95CDB2"></path></clipPath></defs><g id="g3306" transform="matrix(1.3333333,0,0,-1.3333333,0,682.66667)"><g id="g3308"><g id="g3310" clip-path="url(#clipPath3314)"><g id="g3316" transform="translate(328.75,446)"><path d="m 0,0 42.78,17.82 c 7.97,3.32 17.02,3.32 24.99,0 l 89.1,-37.12 c 11.46,-4.78 18.88,-15.63 18.88,-27.63 v -320.75 c 0,-16.64 -14.05,-30.12 -31.38,-30.12 h -12.16" style="stroke-width:15;stroke-linecap:round;stroke-linejoin:round;stroke-miterlimit:10;stroke-dasharray:none;stroke-opacity:1" id="path3318" fill="none" stroke="#95CDB2" stroke-width="15" stroke-linecap="round" stroke-linejoin="round" stroke-miterlimit="10" stroke-dasharray="none" stroke-opacity="" data-original="#95CDB2" class=""></path></g><g id="g3320" transform="translate(263.5498,250.3496)"><path d="m 0,0 v 148.721 c 0,12 7.42,22.849 18.88,27.63 l 13.641,5.679" style="stroke-width:15;stroke-linecap:round;stroke-linejoin:round;stroke-miterlimit:10;stroke-dasharray:none;stroke-opacity:1" id="path3322" fill="none" stroke="#95CDB2" stroke-width="15" stroke-linecap="round" stroke-linejoin="round" stroke-miterlimit="10" stroke-dasharray="none" stroke-opacity="" data-original="#95CDB2" class=""></path></g><g id="g3324" transform="translate(428.2695,48.2002)"><path d="m 0,0 h -133.34 c -5.72,0 -11.09,1.479 -15.72,4.06 -0.009,0 -0.009,0.009 -0.019,0.009" style="stroke-width:15;stroke-linecap:round;stroke-linejoin:round;stroke-miterlimit:10;stroke-dasharray:none;stroke-opacity:1" id="path3326" fill="none" stroke="#95CDB2" stroke-width="15" stroke-linecap="round" stroke-linejoin="round" stroke-miterlimit="10" stroke-dasharray="none" stroke-opacity="" data-original="#95CDB2" class=""></path></g><g id="g3328" transform="translate(382.5098,374.6562)"><path d="m 0,0 c -11.643,0 -21.082,9.438 -21.082,21.082 0,11.644 9.439,21.082 21.082,21.082 11.644,0 21.082,-9.438 21.082,-21.082 C 21.082,9.438 11.644,0 0,0 Z" style="stroke-width:15;stroke-linecap:round;stroke-linejoin:round;stroke-miterlimit:10;stroke-dasharray:none;stroke-opacity:1" id="path3330" fill="none" stroke="#95CDB2" stroke-width="15" stroke-linecap="round" stroke-linejoin="round" stroke-miterlimit="10" stroke-dasharray="none" stroke-opacity="" data-original="#95CDB2" class=""></path></g><g id="g3332" transform="translate(407.5459,216.8311)"><path d="m 0,0 v 0 c 0,9.905 -8.029,17.936 -17.935,17.936 h -18.28 C -46.12,17.936 -54.149,9.905 -54.149,0 v -14.867 c 0,-6.354 4.09,-11.985 10.134,-13.948 l 33.88,-11.005 C -4.092,-41.784 0,-47.415 0,-53.77 v -10.382 c 0,-11.239 -9.11,-20.35 -20.35,-20.35 h -13.451 c -11.238,0 -20.348,9.111 -20.348,20.35" style="stroke-width:15;stroke-linecap:round;stroke-linejoin:round;stroke-miterlimit:10;stroke-dasharray:none;stroke-opacity:1" id="path3334" fill="none" stroke="#95CDB2" stroke-width="15" stroke-linecap="round" stroke-linejoin="round" stroke-miterlimit="10" stroke-dasharray="none" stroke-opacity="" data-original="#95CDB2" class=""></path></g><g id="g3336" transform="translate(380.4707,258.8447)"><path d="M 0,0 V -24.078" style="stroke-width:15;stroke-linecap:round;stroke-linejoin:round;stroke-miterlimit:10;stroke-dasharray:none;stroke-opacity:1" id="path3338" fill="none" stroke="#95CDB2" stroke-width="15" stroke-linecap="round" stroke-linejoin="round" stroke-miterlimit="10" stroke-dasharray="none" stroke-opacity="" data-original="#95CDB2" class=""></path></g><g id="g3340" transform="translate(380.4707,132.3291)"><path d="M 0,0 V -24.078" style="stroke-width:15;stroke-linecap:round;stroke-linejoin:round;stroke-miterlimit:10;stroke-dasharray:none;stroke-opacity:1" id="path3342" fill="none" stroke="#95CDB2" stroke-width="15" stroke-linecap="round" stroke-linejoin="round" stroke-miterlimit="10" stroke-dasharray="none" stroke-opacity="" data-original="#95CDB2" class=""></path></g><g id="g3344" transform="translate(79.9004,199.8896)"><path d="m 0,0 v 27.42 2.81 28.281 h -72.4 v -212.71 H 0 v 24.149 2.811 94.559" style="stroke-width:15;stroke-linecap:round;stroke-linejoin:round;stroke-miterlimit:10;stroke-dasharray:none;stroke-opacity:1" id="path3346" fill="none" stroke="#95CDB2" stroke-width="15" stroke-linecap="round" stroke-linejoin="round" stroke-miterlimit="10" stroke-dasharray="none" stroke-opacity="" data-original="#95CDB2" class=""></path></g><g id="g3348" transform="translate(288.0596,151.29)"><path d="m 0,0 c 13.671,0 24.761,-11.09 24.761,-24.76 0,-6.84 -2.771,-13.03 -7.25,-17.511 C 13.021,-46.76 6.841,-49.53 0,-49.53 h -10.04" style="stroke-width:15;stroke-linecap:round;stroke-linejoin:round;stroke-miterlimit:10;stroke-dasharray:none;stroke-opacity:1" id="path3350" fill="none" stroke="#95CDB2" stroke-width="15" stroke-linecap="round" stroke-linejoin="round" stroke-miterlimit="10" stroke-dasharray="none" stroke-opacity="" data-original="#95CDB2" class=""></path></g><g id="g3352" transform="translate(273.8701,151.29)"><path d="m 0,0 h 14.189 8.231 c 6.84,0 13.03,2.77 17.51,7.25 4.48,4.479 7.25,10.68 7.25,17.51 0,13.68 -11.08,24.77 -24.76,24.77" style="stroke-width:15;stroke-linecap:round;stroke-linejoin:round;stroke-miterlimit:10;stroke-dasharray:none;stroke-opacity:1" id="path3354" fill="none" stroke="#95CDB2" stroke-width="15" stroke-linecap="round" stroke-linejoin="round" stroke-miterlimit="10" stroke-dasharray="none" stroke-opacity="" data-original="#95CDB2" class=""></path></g><g id="g3356" transform="translate(273.8701,200.8203)"><path d="m 0,0 h 22.42 8.39 c 6.839,0 13.02,2.77 17.51,7.25 4.48,4.489 7.25,10.67 7.25,17.51 0,13.679 -11.091,24.769 -24.76,24.769 h -41.13 -49.44 c 15.01,38.41 12.159,75.381 0.8,112.641 -1.4,4.58 -4.23,8.43 -7.91,11.13 -3.68,2.7 -8.2,4.25 -12.99,4.25 -12.53,0 -22.5,-10.5 -21.85,-23.01 3.76,-72.311 -49.91,-76.851 -92.26,-125.24 v -2.811 -27.42" style="stroke-width:15;stroke-linecap:round;stroke-linejoin:round;stroke-miterlimit:10;stroke-dasharray:none;stroke-opacity:1" id="path3358" fill="none" stroke="#95CDB2" stroke-width="15" stroke-linecap="round" stroke-linejoin="round" stroke-miterlimit="10" stroke-dasharray="none" stroke-opacity="" data-original="#95CDB2" class=""></path></g><g id="g3360" transform="translate(79.9004,167.21)"><path d="m 0,0 v -94.56 c 18.01,-1.07 32.819,-3.35 46.819,-14.08 5.311,-4.07 11.79,-6.339 18.471,-6.339 h 132.829 c 0.401,0 0.801,0.009 1.191,0.029 6.37,0.3 12.089,3 16.32,7.221 4.479,4.489 7.25,10.679 7.25,17.519 0,13.67 -11.09,24.76 -24.761,24.76 h -12.38" style="stroke-width:15;stroke-linecap:round;stroke-linejoin:round;stroke-miterlimit:10;stroke-dasharray:none;stroke-opacity:1" id="path3362" fill="none" stroke="#95CDB2" stroke-width="15" stroke-linecap="round" stroke-linejoin="round" stroke-miterlimit="10" stroke-dasharray="none" stroke-opacity="" data-original="#95CDB2" class=""></path></g><g id="g3364" transform="translate(79.9004,69.8398)"><path d="M 0,0 V 2.811 97.37" style="stroke-width:15;stroke-linecap:round;stroke-linejoin:round;stroke-miterlimit:10;stroke-dasharray:none;stroke-opacity:1" id="path3366" fill="none" stroke="#95CDB2" stroke-width="15" stroke-linecap="round" stroke-linejoin="round" stroke-miterlimit="10" stroke-dasharray="none" stroke-opacity="" data-original="#95CDB2" class=""></path></g><g id="g3368" transform="translate(79.9004,199.8896)"><path d="M 0,0 V 27.42" style="stroke-width:15;stroke-linecap:round;stroke-linejoin:round;stroke-miterlimit:10;stroke-dasharray:none;stroke-opacity:1" id="path3370" fill="none" stroke="#95CDB2" stroke-width="15" stroke-linecap="round" stroke-linejoin="round" stroke-miterlimit="10" stroke-dasharray="none" stroke-opacity="" data-original="#95CDB2" class=""></path></g></g></g></g></g></svg>