<svg xmlns="http://www.w3.org/2000/svg" version="1.1" xmlns:xlink="http://www.w3.org/1999/xlink" xmlns:svgjs="http://svgjs.com/svgjs" width="512" height="512" x="0" y="0" viewBox="0 0 64 64" style="enable-background:new 0 0 512 512" xml:space="preserve" class=""><g><g><g><g><path d="m46 40h14c1.1 0 2 .9 2 2v18c0 1.1-.9 2-2 2h-14c-1.1 0-2-.9-2-2v-18c0-1.1.9-2 2-2z" fill="#fcd770" data-original="#fcd770"></path></g><g><path d="m60 32v8h-14v-8c0-1.1.9-2 2-2h10c1.1 0 2 .9 2 2z" fill="#ffeaa7" data-original="#ffeaa7"></path></g><g><path d="m52.8 14-3.86 2.41c-.58.37-.94 1.01-.94 1.7v3.65c-4.53 3.95-10.42 6.24-16.65 6.24h-6.7c-4.79 0-9.39-1.36-13.31-3.78-3.93-2.43-7.2-5.93-9.34-10.22z" fill="#ff826e" data-original="#ff826e" class=""></path></g><g><path d="m46.46 7.46c2.2 2.2 4.53 4.24 7 6.13l-.66.41h-50.8c2.66-2 5.18-4.18 7.54-6.54l1.93-1.93c1.13-1.13 2.46-2.01 3.91-2.61 1.44-.6 3.01-.92 4.61-.92 2.6 0 5.14.84 7.22 2.41l.79.59.79-.59c2.08-1.57 4.62-2.41 7.22-2.41 3.2 0 6.26 1.27 8.52 3.53z" fill="#ff826e" data-original="#ff826e" class=""></path></g><g><path d="m58 13.55v16.45h-10v-8.24-3.65c0-.69.36-1.33.94-1.7l3.86-2.41.66-.41 2.16-1.35c.25-.16.53-.24.83-.24.85 0 1.55.7 1.55 1.55z" fill="#e6e9ed" data-original="#e6e9ed"></path></g></g><g><path d="m61 39.184v-7.184c0-1.302-.839-2.402-2-2.816v-15.63c0-1.408-1.146-2.554-2.554-2.554-.479 0-.947.134-1.354.388l-1.567.979c-2.223-1.736-4.361-3.617-6.354-5.61l-1.938-1.938c-2.462-2.463-5.737-3.819-9.22-3.819-2.803 0-5.582.926-7.824 2.608l-.189.142-.189-.142c-2.243-1.682-5.021-2.608-7.824-2.608-3.483 0-6.757 1.356-9.22 3.819l-1.938 1.938c-2.312 2.312-4.811 4.48-7.429 6.443l-.667.5.373.747c4.488 8.977 13.51 14.553 23.546 14.553h6.695c5.656 0 11.134-1.829 15.652-5.172v5.356c-1.161.414-2 1.514-2 2.816v7.184c-1.161.414-2 1.514-2 2.816v18c0 1.654 1.346 3 3 3h14c1.654 0 3-1.346 3-3v-18c.001-1.302-.838-2.402-1.999-2.816zm-4.848-26.1c.348-.216.848.061.848.47v15.446h-8v-10.892c0-.347.176-.664.47-.848zm-45.909-4.913 1.938-1.938c2.085-2.085 4.857-3.233 7.806-3.233 2.373 0 4.726.784 6.624 2.208l1.389 1.042 1.39-1.042c1.898-1.424 4.25-2.208 6.623-2.208 2.949 0 5.721 1.148 7.806 3.233l1.938 1.938c1.693 1.693 3.485 3.31 5.346 4.829h-46.209c1.863-1.52 3.656-3.135 5.349-4.829zm21.105 18.829h-6.695c-8.718 0-16.598-4.563-20.957-12h45.618l-.903.564c-.884.552-1.411 1.503-1.411 2.544v3.167c-4.383 3.687-9.918 5.725-15.652 5.725zm16.652 4h10c.551 0 1 .449 1 1v7h-12v-7c0-.551.449-1 1-1zm13 29c0 .551-.449 1-1 1h-14c-.551 0-1-.449-1-1v-18c0-.551.449-1 1-1h14c.551 0 1 .449 1 1z" fill="#000000" data-original="#000000" class=""></path><path d="m47 43h2v16h-2z" fill="#000000" data-original="#000000" class=""></path></g></g></g></svg>