<svg xmlns="http://www.w3.org/2000/svg" version="1.1" xmlns:xlink="http://www.w3.org/1999/xlink" xmlns:svgjs="http://svgjs.com/svgjs" width="512" height="512" x="0" y="0" viewBox="0 0 496 496" style="enable-background:new 0 0 512 512" xml:space="preserve" class=""><g><g><g><g><path d="m440 216c26.51 0 48 57.31 48 128s-21.49 128-48 128h-48c26.51 0 48-57.31 48-128s-21.49-128-48-128z" fill="#ccd1d9" data-original="#ccd1d9" class=""></path></g><g><path d="m392 216c26.51 0 48 57.31 48 128s-21.49 128-48 128c-12.29 0-23.51-12.32-32-32.59v-107.63c0-10.59-5.23-20.39-13.79-26.31 6.14-51.87 24.32-89.47 45.79-89.47z" fill="#aab2bd" data-original="#aab2bd" class=""></path></g><g><path d="m40 296c0 17.67 64.47 32 144 32s144-14.33 144-32l14.31 7.16c1.37.68 2.67 1.46 3.9 2.31 8.56 5.92 13.79 15.72 13.79 26.31v107.63.59c0 26.51-78.8 48-176 48s-176-21.49-176-48v-108.22c0-12.12 6.85-23.2 17.69-28.62z" fill="#85cd97" data-original="#fcd770" class=""></path></g><g><path d="m328 248v48c0 17.67-64.47 32-144 32s-144-14.33-144-32v-48c0 8.78 15.91 16.74 41.68 22.52 26.09 5.85 62.3 9.48 102.32 9.48 45.24 0 85.6-4.64 112-11.88 20.01-5.5 32-12.5 32-20.12z" fill="#ccd1d9" data-original="#ccd1d9" class=""></path></g><g><path d="m287.8 225.82c24.89 5.75 40.2 13.57 40.2 22.18 0 7.62-11.99 14.62-32 20.12v-.01-13.48c0-10.57-3.01-20.44-8.21-28.8z" fill="#e6e9ed" data-original="#e6e9ed" class=""></path></g><g><path d="m72 237.9c0 11.58 3.37 22.91 9.68 32.62-25.77-5.78-41.68-13.74-41.68-22.52 0-7.73 12.34-14.82 32.88-20.35h.01c-.59 3.36-.89 6.79-.89 10.25z" fill="#e6e9ed" data-original="#e6e9ed" class=""></path></g><g><path d="m296 268.11v.01c-26.4 7.24-66.76 11.88-112 11.88-40.02 0-76.23-3.63-102.32-9.48-6.31-9.71-9.68-21.04-9.68-32.62 0-3.46.3-6.89.89-10.25 1-5.76 2.84-11.31 5.42-16.49 4.1-8.2 10.08-15.46 17.61-21.1l8.08-6.06c5.12 5.12 11.16 9.12 17.72 11.84 6.57 2.72 13.66 4.16 20.91 4.16h98.74c19.6 0 36.79 10.32 46.42 25.83 5.2 8.36 8.21 18.23 8.21 28.8z" fill="#ffeaa7" data-original="#ffeaa7" class=""></path></g><g><path d="m360 24v112c0 8.84-7.16 16-16 16h-80l-4.42 8.84c-2.19 4.39-6.68 7.16-11.58 7.16-2.45 0-4.8-.69-6.81-1.93-2.01-1.25-3.67-3.03-4.77-5.23l-4.42-8.84h-80c-8.84 0-16-7.16-16-16v-112c0-8.84 7.16-16 16-16h192c8.84 0 16 7.16 16 16z" fill="#e6e9ed" data-original="#e6e9ed" class=""></path></g><g><path d="m232 80c0-4.42-3.58-8-8-8h-8v-8c0-.71-.09-1.39-.26-2.04 11.73-13.45 29-21.96 48.26-21.96h32c0 35.35-28.65 64-64 64h-8c4.42 0 8-3.58 8-8z" fill="#b4dd7f" data-original="#b4dd7f" class=""></path></g><g><path d="m232 80v16c0 4.42-3.58 8-8 8h-8v8c0 4.42-3.58 8-8 8h-16c-4.42 0-8-3.58-8-8v-8h-8c-4.42 0-8-3.58-8-8v-16c0-4.42 3.58-8 8-8h8v-8c0-4.42 3.58-8 8-8h16c3.71 0 6.84 2.53 7.74 5.96.17.65.26 1.33.26 2.04v8h8c4.42 0 8 3.58 8 8z" fill="#ff826e" data-original="#ff826e" class=""></path></g></g><g><path d="m440 208h-48c-9.511 0-23.44 5.15-35.792 29.688-7.317 14.536-12.898 33.493-16.341 55.302l-3.867-1.934v-43.056c0-12.525-14.187-22.104-43.337-29.245-11.337-16.161-30.095-26.755-51.29-26.755h-98.745c-12.455 0-24.164-4.85-32.971-13.657l-4.906-4.906-13.634 10.225c-12.453 9.34-21.219 22.738-25.011 37.59-22.937 6.847-34.106 15.619-34.106 26.748v43.056l-9.889 4.944c-13.638 6.82-22.111 20.529-22.111 35.777v108.223c0 36.764 92.563 56 184 56 75.618 0 152.003-13.157 176.17-38.503 11.13 18.211 23.062 22.503 31.83 22.503h48c36.374 0 56-70.07 56-136s-19.626-136-56-136zm3.221 80h31.746c.973 5.107 1.825 10.45 2.538 16h-31.903c-.659-5.426-1.455-10.772-2.381-16zm28.11-16h-31.458c-1.36-5.569-2.889-10.923-4.582-16h30.967c1.827 4.872 3.53 10.225 5.073 16zm-31.458 144h31.458c-1.543 5.775-3.245 11.128-5.073 16h-30.967c1.693-5.077 3.222-10.431 4.582-16zm3.348-16c.926-5.228 1.723-10.574 2.382-16h31.903c-.713 5.55-1.565 10.893-2.538 16zm3.918-32c.38-5.315.634-10.661.762-16h31.999c-.132 5.463-.396 10.802-.781 16zm.762-32c-.128-5.339-.381-10.685-.762-16h31.98c.386 5.198.65 10.537.781 16zm10.944-96h-29.895c-2.859-6.064-6.033-11.45-9.51-16h20.56c6.324 0 12.897 5.763 18.845 16zm-410.845 27.738c7.863 4.08 18.646 7.634 32.441 10.699 27.751 6.167 64.529 9.563 103.559 9.563s75.808-3.396 103.559-9.563c13.795-3.066 24.578-6.619 32.441-10.699v28.171c-.692 2.116-9.175 9.326-38.873 15.548-26.293 5.509-60.787 8.543-97.127 8.543s-70.834-3.034-97.127-8.543c-29.698-6.223-38.181-13.432-38.873-15.548zm271.966-19.738c-.6 1.484-4.659 5.133-15.966 9.218v-2.591c0-5.759-.797-11.332-2.26-16.633 13.108 4.429 17.601 8.481 18.226 10.006zm-219.249-51.538 2.842-2.131c11.058 8.859 24.693 13.669 39.068 13.669h98.745c25.71 0 46.627 20.917 46.627 46.627v7.281c-2.157.52-4.437 1.037-6.873 1.548-26.292 5.51-60.786 8.544-97.126 8.544s-70.834-3.034-97.127-8.543c-.046-.01-.089-.02-.135-.029-4.413-7.78-6.738-16.54-6.738-25.532 0-16.215 7.745-31.705 20.717-41.434zm-36.701 42.316c.086 6.674 1.148 13.241 3.133 19.525-13.719-4.512-18.46-8.687-19.114-10.302.569-1.356 4.502-5.064 15.981-9.223zm287.984 201.222c0 6.855-14.117 17.622-45.654 26.223-32.575 8.884-76.026 13.777-122.346 13.777s-89.771-4.893-122.346-13.777c-31.537-8.601-45.654-19.368-45.654-26.223v-108.223c0-9.149 5.083-17.374 13.267-21.466l6.898-3.449c6.643 8.006 21.288 14.467 44.277 19.575 27.75 6.167 64.528 9.563 103.558 9.563s75.808-3.396 103.559-9.563c22.989-5.109 37.634-11.569 44.277-19.575l6.897 3.449c8.184 4.092 13.267 12.317 13.267 21.466zm16-2.232v-105.991c0-11.609-4.921-22.315-13.283-29.779 6.766-50.696 24.041-77.998 37.283-77.998 18.882 0 40 51.319 40 120s-21.118 120-40 120c-7.924 0-16.838-9.774-24-26.232zm72 26.232h-20.559c3.477-4.55 6.651-9.936 9.51-16h29.895c-5.949 10.237-12.522 16-18.846 16z" fill="#000000" data-original="#000000" class=""></path><path d="m320 410.931c0 10.489-6.961 19.92-16.928 22.936-5.82 1.761-12.31 3.406-19.289 4.889-28.046 5.961-63.483 9.244-99.783 9.244s-71.737-3.283-99.783-9.244c-6.979-1.483-13.47-3.128-19.29-4.889-9.966-3.015-16.927-12.447-16.927-22.936v-74.931h-16v74.931c0 17.759 11.371 33.13 28.295 38.25 6.249 1.891 13.178 3.648 20.596 5.225 29.106 6.187 65.724 9.594 103.109 9.594s74.003-3.407 103.109-9.594c7.418-1.577 14.347-3.334 20.596-5.225 16.924-5.12 28.295-20.491 28.295-38.25v-74.931h-16z" fill="#000000" data-original="#000000" class=""></path><path d="m104.574 250.739c6.926-6.925 16.134-10.739 25.927-10.739 2.996 0 5.987.368 8.893 1.095l49.692 12.423c6.588 1.647 13.372 2.482 20.164 2.482 16.468 0 32.415-4.829 46.117-13.963l5.071-3.38-8.875-13.313-5.071 3.381c-11.066 7.376-23.944 11.275-37.242 11.275-5.484 0-10.963-.674-16.283-2.005l-49.692-12.423c-4.173-1.043-8.471-1.572-12.773-1.572-14.068 0-27.293 5.479-37.241 15.426l-2.917 2.917 11.313 11.313z" fill="#000000" data-original="#000000" class=""></path><path d="m152 160h75.056l2.211 4.422c3.57 7.141 10.748 11.578 18.733 11.578s15.163-4.437 18.733-11.578l2.211-4.422h75.056c13.234 0 24-10.766 24-24v-112c0-13.234-10.766-24-24-24h-192c-13.234 0-24 10.766-24 24v112c0 13.234 10.766 24 24 24zm-8-136c0-4.411 3.589-8 8-8h192c4.411 0 8 3.589 8 8v112c0 4.411-3.589 8-8 8h-84.944l-6.634 13.268c-.842 1.685-2.537 2.732-4.422 2.732s-3.58-1.047-4.422-2.733l-6.634-13.267h-84.944c-4.411 0-8-3.589-8-8z" fill="#000000" data-original="#000000" class=""></path><path d="m176 112c0 8.822 7.178 16 16 16h16c8.822 0 16-7.178 16-16h8c39.701 0 72-32.299 72-72v-8h-40c-17.754 0-34.761 6.552-47.873 18.222-2.383-1.411-5.162-2.222-8.127-2.222h-16c-8.822 0-16 7.178-16 16-8.822 0-16 7.178-16 16v16c0 8.822 7.178 16 16 16zm88-64h23.43c-3.518 24.489-22.941 43.912-47.43 47.43v-10.486l27.578-13.789-7.155-14.311-24.663 12.332c-2.759-2.996-6.637-4.946-10.97-5.157 10.434-10.229 24.492-16.019 39.21-16.019zm-88 32h16v-16h16v16h16l.01 16s-.003 0-.01 0h-16v16h-16v-16h-16z" fill="#000000" data-original="#000000" class=""></path><circle cx="328" cy="120" r="8" fill="#000000" data-original="#000000" class=""></circle><circle cx="296" cy="120" r="8" fill="#000000" data-original="#000000" class=""></circle><circle cx="264" cy="120" r="8" fill="#000000" data-original="#000000" class=""></circle></g></g></g></svg>