<svg width="30" height="30" viewBox="0 0 30 30" fill="none" xmlns="http://www.w3.org/2000/svg">
<g clip-path="url(#clip0_174_1422)">
<g clip-path="url(#clip1_174_1422)">
<path d="M10.7569 1.41162H6.36816V7.63985H15.0905C15.0905 4.78369 13.2871 2.34886 10.7569 1.41162Z" fill="#EFEDFF"/>
<path d="M10.7571 1.41161C10.0387 1.14547 9.26178 1 8.45087 1C4.78381 1 1.81104 3.97278 1.81104 7.63984H6.67019V5.82897C6.67019 3.80684 8.45087 1.41161 10.7571 1.41161Z" fill="#D4D4FF"/>
<path d="M15.6128 12.1199C16.4286 10.8203 16.9013 9.28429 16.9013 7.63984C16.9013 6.63976 16.0905 5.82898 15.0904 5.82898H6.6699L4.5874 8.11978V28.5217L10.2916 31H13.2796C15.2798 31 16.9013 29.3785 16.9013 27.3783V24.5527L13.4388 20.3109L16.9013 16.102V14.889C16.9013 13.778 16.4005 12.7843 15.6128 12.1199Z" fill="#FFDBE0"/>
<path d="M6.886 24.5527L4.55179 20.4604L6.67002 16.102C6.67002 14.6824 7.08078 13.3012 7.84099 12.1199C7.08078 10.9385 6.67002 9.55737 6.67002 8.13771V5.82898H1.81087C0.810785 5.82898 0 6.63976 0 7.63984C0 9.28429 0.472636 10.8203 1.28849 12.1199C0.500825 12.7843 0 13.778 0 14.889V16.102L2.29533 20.5286L0 24.5527V27.3783C0 29.3785 1.62151 31 3.62173 31H10.2917C8.52157 29.2298 7.34445 26.978 6.886 24.5527Z" fill="#FFB5C0"/>
<path d="M6.6699 16.102L4.5874 16.8379V23.7559L6.88587 24.5528H16.9013V16.102C16.7361 16.102 11.3256 16.102 6.6699 16.102Z" fill="#C9AAF2"/>
<path d="M6.67002 22.2563V22.1071V17.5808V16.102C3.27652 16.102 3.45139 16.102 0 16.102V24.5527H6.886C6.74384 23.8008 6.67002 23.0325 6.67002 22.2563Z" fill="#B28AE4"/>
<path d="M8.84607 17.898C8.60541 18.0626 8.29213 18.0599 8.05557 17.898C7.62048 17.6003 7.12913 17.5097 6.67013 17.5808L5.46289 19.844L6.67013 22.1071C7.05277 22.4004 7.46172 22.6684 7.8513 22.9189C8.21637 23.1536 8.68539 23.1535 9.05046 22.9188C10.3508 22.0826 11.89 21.0387 11.89 19.501C11.89 17.9318 10.1237 17.0239 8.84607 17.898Z" fill="#FFDBE0"/>
<path d="M5.01172 19.501C5.01172 20.5817 5.76709 21.4151 6.67017 22.1072V17.5809C5.78013 17.7188 5.01172 18.4664 5.01172 19.501Z" fill="#FFB5C0"/>
<path d="M3.71242 8.59143C2.74566 8.59143 1.96191 9.21298 1.96191 9.97976C1.96191 10.7465 2.74566 11.3681 3.71242 11.3681C4.67918 11.3681 5.46292 10.7465 5.46292 9.97976C5.46292 9.21298 4.67918 8.59143 3.71242 8.59143Z" fill="#FF8E9E"/>
<path d="M13.2495 8.59143C12.2828 8.59143 11.499 9.21298 11.499 9.97976C11.499 10.7465 12.2828 11.3681 13.2495 11.3681C14.2163 11.3681 15 10.7465 15 9.97976C15 9.21298 14.2163 8.59143 13.2495 8.59143Z" fill="#FF8E9E"/>
<path d="M24.6366 21.3207H19.165V30.5473L20.365 31H28.1892C29.1893 31 30 30.1892 30 29.1891C30 25.599 27.7695 22.551 24.6366 21.3207Z" fill="#FFDBE0"/>
<path d="M24.6366 21.3207C23.6792 20.9447 22.6375 20.7384 21.5493 20.7384C16.8896 20.7384 13.0986 24.5294 13.0986 29.1891C13.0986 30.1892 13.9094 31 14.9095 31H20.365C19.9794 30.6346 19.7385 30.118 19.7385 29.5448C19.7385 25.9988 21.7214 22.9072 24.6366 21.3207Z" fill="#FFB5C0"/>
<path d="M4.73299 7.43713C4.48291 7.43713 4.28027 7.63977 4.28027 7.88985V8.6142C4.28027 8.86428 4.48291 9.06691 4.73299 9.06691C4.98307 9.06691 5.18571 8.86428 5.18571 8.6142V7.88985C5.18571 7.63977 4.98307 7.43713 4.73299 7.43713Z" fill="#313D40"/>
<path d="M12.2784 7.43713C12.0283 7.43713 11.8257 7.63977 11.8257 7.88985V8.6142C11.8257 8.86428 12.0283 9.06691 12.2784 9.06691C12.5285 9.06691 12.7311 8.86428 12.7311 8.6142V7.88985C12.7311 7.63977 12.5285 7.43713 12.2784 7.43713Z" fill="#313D40"/>
<path d="M9.73628 8.25008C9.54777 8.08583 9.26183 8.10545 9.09759 8.29402C8.75195 8.6906 8.13789 8.69018 7.79256 8.29396C7.62819 8.10539 7.34226 8.0859 7.15381 8.25008C6.9653 8.41439 6.94574 8.70038 7.10992 8.88883C7.81785 9.70095 9.07592 9.69714 9.78016 8.88877C9.94447 8.70032 9.92479 8.41433 9.73628 8.25008Z" fill="#313D40"/>
</g>
</g>
<defs>
<clipPath id="clip0_174_1422">
<rect width="30" height="30" fill="white"/>
</clipPath>
<clipPath id="clip1_174_1422">
<rect width="30" height="30" fill="white" transform="translate(0 1)"/>
</clipPath>
</defs>
</svg>
