<svg xmlns="http://www.w3.org/2000/svg" version="1.1" xmlns:xlink="http://www.w3.org/1999/xlink" xmlns:svgjs="http://svgjs.com/svgjs" width="512" height="512" x="0" y="0" viewBox="0 0 682.66669 682.66669" style="enable-background:new 0 0 512 512" xml:space="preserve" class=""><g><defs id="defs3532"><clipPath clipPathUnits="userSpaceOnUse" id="clipPath3542"><path d="M 0,512 H 512 V 0 H 0 Z" id="path3540" fill="#000000" data-original="#000000"></path></clipPath></defs><g id="g3534" transform="matrix(1.3333333,0,0,-1.3333333,0,682.66667)"><g id="g3536"><g id="g3538" clip-path="url(#clipPath3542)"><g id="g3544" transform="translate(362.0034,419.3252)"><path d="m 0,0 h -51.858 c -2.409,0 -4.533,1.58 -5.225,3.887 l -20.503,68.304 c -1.051,3.5 1.57,7.024 5.226,7.024 h 92.218 c 3.635,0 6.254,-3.488 5.239,-6.979 L 5.239,3.933 C 4.561,1.603 2.426,0 0,0" style="fill-opacity:1;fill-rule:nonzero;stroke:none" id="path3546" fill="#ffbd86" data-original="#ffbd86"></path></g><g id="g3548" transform="translate(336.5991,423.2124)"><path d="m 0,0 -20.502,68.304 c -1.051,3.5 1.57,7.024 5.225,7.024 h -31.679 c -3.655,0 -6.276,-3.524 -5.226,-7.024 L -31.679,0 c 0.692,-2.307 2.816,-3.887 5.225,-3.887 H 5.225 C 2.816,-3.887 0.692,-2.307 0,0" style="fill-opacity:1;fill-rule:nonzero;stroke:none" id="path3550" fill="#f6a96c" data-original="#f6a96c"></path></g><g id="g3552" transform="translate(362.0034,419.3252)"><path d="m 0,0 h -51.858 c -2.409,0 -4.533,1.58 -5.225,3.887 l -20.503,68.304 c -1.051,3.5 1.57,7.024 5.226,7.024 h 92.218 c 3.635,0 6.254,-3.488 5.239,-6.979 L 5.239,3.933 C 4.561,1.603 2.426,0 0,0 Z" style="stroke-width:15;stroke-linecap:round;stroke-linejoin:round;stroke-miterlimit:10;stroke-dasharray:none;stroke-opacity:1" id="path3554" fill="none" stroke="#000000" stroke-width="15" stroke-linecap="round" stroke-linejoin="round" stroke-miterlimit="10" stroke-dasharray="none" stroke-opacity="" data-original="#000000" class=""></path></g><g id="g3556" transform="translate(404.2461,235.5786)"><path d="m 0,0 c -21.036,0 -38.149,17.113 -38.149,38.149 0,21.036 17.113,38.149 38.149,38.149 21.036,0 38.149,-17.113 38.149,-38.149 C 38.149,17.113 21.036,0 0,0 m 0,104.767 c -36.792,0 -66.619,-29.826 -66.619,-66.618 0,-36.793 29.827,-66.619 66.619,-66.619 36.792,0 66.618,29.826 66.618,66.619 0,36.792 -29.826,66.618 -66.618,66.618" style="fill-opacity:1;fill-rule:nonzero;stroke:none" id="path3558" fill="#62dbfb" data-original="#62dbfb"></path></g><g id="g3560" transform="translate(404.2461,235.5786)"><path d="m 0,0 c -21.036,0 -38.149,17.113 -38.149,38.149 0,21.036 17.113,38.149 38.149,38.149 21.036,0 38.149,-17.113 38.149,-38.149 C 38.149,17.113 21.036,0 0,0 Z M 35.252,94.668 C 25.026,101.061 12.948,104.767 0,104.767 c -36.792,0 -66.619,-29.826 -66.619,-66.618 0,-36.793 29.827,-66.619 66.619,-66.619 36.792,0 66.618,29.826 66.618,66.619 0,11.125 -2.742,21.604 -7.564,30.824" style="stroke-width:15;stroke-linecap:round;stroke-linejoin:round;stroke-miterlimit:10;stroke-dasharray:none;stroke-opacity:1" id="path3562" fill="none" stroke="#000000" stroke-width="15" stroke-linecap="round" stroke-linejoin="round" stroke-miterlimit="10" stroke-dasharray="none" stroke-opacity="" data-original="#000000" class=""></path></g><g id="g3564" transform="translate(376.1274,284.0229)"><path d="M 0,0 V 134.225 H -78.942 V 0.32 c 0,-12.507 -8.934,-23.284 -21.251,-25.457 -61.685,-10.884 -108.93,-65.059 -108.93,-129.742 v 0 c 0,-63.626 52.058,-115.684 115.684,-115.684 H 12.689 c 63.626,0 115.684,52.058 115.684,115.684 v 0 c 0,64.158 -46.48,117.987 -107.43,129.479 C 8.769,-23.105 0,-12.39 0,0" style="fill-opacity:1;fill-rule:nonzero;stroke:none" id="path3566" fill="#c8effe" data-original="#c8effe"></path></g><g id="g3568" transform="translate(198.5044,104.896)"><path d="m 0,0 v 0 c 0,64.683 47.245,118.859 108.93,129.742 12.317,2.174 21.251,12.951 21.251,25.458 v 158.152 h -31.5 V 179.447 C 98.681,166.94 89.747,156.163 77.43,153.99 15.745,143.106 -31.5,88.931 -31.5,24.248 -31.5,-20.086 -6.221,-58.797 30.631,-78.2 11.639,-57.569 0,-30.08 0,0" style="fill-opacity:1;fill-rule:nonzero;stroke:none" id="path3570" fill="#99e6fc" data-original="#99e6fc"></path></g><g id="g3572" transform="translate(376.1274,284.0229)"><path d="M 0,0 V 134.225 H -78.942 V 0.32 c 0,-12.507 -8.934,-23.284 -21.251,-25.457 -61.685,-10.884 -108.93,-65.059 -108.93,-129.742 v 0 c 0,-63.626 52.058,-115.684 115.684,-115.684 H 12.689 c 63.626,0 115.684,52.058 115.684,115.684 v 0 c 0,64.158 -46.48,117.987 -107.43,129.479 C 8.769,-23.105 0,-12.39 0,0 Z" style="stroke-width:15;stroke-linecap:round;stroke-linejoin:round;stroke-miterlimit:10;stroke-dasharray:none;stroke-opacity:1" id="path3574" fill="none" stroke="#000000" stroke-width="15" stroke-linecap="round" stroke-linejoin="round" stroke-miterlimit="10" stroke-dasharray="none" stroke-opacity="" data-original="#000000" class=""></path></g><g id="g3576" transform="translate(454.4951,197.5576)"><path d="m 0,0 c -15.951,18.999 -37.99,31.96 -62.056,36.498 l -112.161,0.21 c -24.344,-4.295 -46.677,-17.171 -62.884,-36.258 -16.373,-19.281 -25.39,-43.738 -25.39,-68.864 0,-50.003 40.681,-90.684 90.684,-90.684 h 106.128 c 50.003,0 90.684,40.681 90.684,90.684 C 25.005,-43.501 16.125,-19.205 0,0" style="fill-opacity:1;fill-rule:nonzero;stroke:none" id="path3578" fill="#fac600" data-original="#fac600"></path></g><g id="g3580" transform="translate(244.5044,129.1436)"><path d="m 0,0 c 0,25.126 9.017,49.583 25.39,68.864 16.098,18.958 38.241,31.78 62.395,36.161 l -52.011,0.098 C 11.43,100.827 -10.903,87.951 -27.11,68.864 -43.483,49.583 -52.5,25.126 -52.5,0 c 0,-50.003 40.681,-90.684 90.684,-90.684 h 52.5 C 40.681,-90.684 0,-50.003 0,0" style="fill-opacity:1;fill-rule:nonzero;stroke:none" id="path3582" fill="#e8b801" data-original="#e8b801"></path></g><g id="g3584" transform="translate(476.7466,153)"><path d="m 0,0 c -3.773,16.257 -11.349,31.573 -22.251,44.558 -15.952,18.998 -37.991,31.96 -62.057,36.498 l -112.16,0.21 c -24.344,-4.295 -46.677,-17.172 -62.885,-36.258 -16.372,-19.281 -25.389,-43.738 -25.389,-68.864 0,-50.003 40.68,-90.684 90.683,-90.684 H -87.93 c 46.23,0 84.488,34.775 89.998,79.54" style="stroke-width:15;stroke-linecap:round;stroke-linejoin:round;stroke-miterlimit:10;stroke-dasharray:none;stroke-opacity:1" id="path3586" fill="none" stroke="#000000" stroke-width="15" stroke-linecap="round" stroke-linejoin="round" stroke-miterlimit="10" stroke-dasharray="none" stroke-opacity="" data-original="#000000" class=""></path></g><g id="g3588" transform="translate(383.4399,410.4941)"><path d="m 0,0 h -97.122 c -8.481,0 -16.425,4.156 -21.261,11.124 l -10.351,14.911 c -2.382,3.433 0.074,8.128 4.253,8.128 H 0 c 9.434,0 17.082,-7.648 17.082,-17.081 C 17.082,7.647 9.434,0 0,0" style="fill-opacity:1;fill-rule:nonzero;stroke:none" id="path3590" fill="#99e6fc" data-original="#99e6fc"></path></g><g id="g3592" transform="translate(317.2837,421.6172)"><path d="m 0,0 -10.351,14.912 c -2.382,3.433 0.074,8.128 4.253,8.128 h -52.227 c -4.178,0 -6.635,-4.695 -4.253,-8.128 L -52.227,0 c 4.836,-6.967 12.78,-11.123 21.262,-11.123 H 21.261 C 12.78,-11.123 4.836,-6.967 0,0" style="fill-opacity:1;fill-rule:nonzero;stroke:none" id="path3594" fill="#62dbfb" data-original="#62dbfb"></path></g><g id="g3596" transform="translate(383.4399,410.4941)"><path d="m 0,0 h -97.122 c -8.481,0 -16.425,4.156 -21.261,11.124 l -10.351,14.911 c -2.382,3.433 0.074,8.128 4.253,8.128 H 0 c 9.434,0 17.082,-7.648 17.082,-17.081 C 17.082,7.647 9.434,0 0,0 Z" style="stroke-width:15;stroke-linecap:round;stroke-linejoin:round;stroke-miterlimit:10;stroke-dasharray:none;stroke-opacity:1" id="path3598" fill="none" stroke="#000000" stroke-width="15" stroke-linecap="round" stroke-linejoin="round" stroke-miterlimit="10" stroke-dasharray="none" stroke-opacity="" data-original="#000000" class=""></path></g><g id="g3600" transform="translate(140,194.0278)"><path d="M 0,0 C 0,-51.021 12.871,-96.011 32.455,-122.631 52.04,-96.011 64.91,-51.021 64.91,0 c 0,48.755 -11.753,92.003 -29.887,118.977 -1.221,1.817 -3.915,1.817 -5.136,0 C 11.753,92.003 0,48.755 0,0" style="fill-opacity:1;fill-rule:nonzero;stroke:none" id="path3602" fill="#09a76d" data-original="#09a76d"></path></g><g id="g3604" transform="translate(161,194.0278)"><path d="m 0,0 c 0,41.218 8.401,78.498 21.955,105.338 -2.478,4.909 -5.128,9.469 -7.932,13.639 -1.22,1.817 -3.915,1.817 -5.136,0 C -9.247,92.003 -21,48.755 -21,0 c 0,-51.021 12.871,-96.011 32.455,-122.631 3.764,5.115 7.276,10.915 10.5,17.3 C 8.402,-78.491 0,-41.216 0,0" style="fill-opacity:1;fill-rule:nonzero;stroke:none" id="path3606" fill="#02905d" data-original="#02905d"></path></g><g id="g3608" transform="translate(140,194.0278)"><path d="M 0,0 C 0,-51.021 12.871,-96.011 32.455,-122.631 52.04,-96.011 64.91,-51.021 64.91,0 c 0,48.755 -11.753,92.003 -29.887,118.977 -1.221,1.817 -3.915,1.817 -5.136,0 C 11.753,92.003 0,48.755 0,0 Z" style="stroke-width:15;stroke-linecap:round;stroke-linejoin:round;stroke-miterlimit:10;stroke-dasharray:none;stroke-opacity:1" id="path3610" fill="none" stroke="#000000" stroke-width="15" stroke-linecap="round" stroke-linejoin="round" stroke-miterlimit="10" stroke-dasharray="none" stroke-opacity="" data-original="#000000" class=""></path></g><g id="g3612" transform="translate(172.4551,230.1118)"><path d="M 0,0 V -181.847" style="stroke-width:15;stroke-linecap:round;stroke-linejoin:round;stroke-miterlimit:10;stroke-dasharray:none;stroke-opacity:1" id="path3614" fill="none" stroke="#000000" stroke-width="15" stroke-linecap="round" stroke-linejoin="round" stroke-miterlimit="10" stroke-dasharray="none" stroke-opacity="" data-original="#000000" class=""></path></g><g id="g3616" transform="translate(70.5557,133.1709)"><path d="m 0,0 c 36.077,-36.077 76.991,-58.789 109.662,-63.764 -4.974,32.671 -27.687,73.585 -63.764,109.662 -34.475,34.476 -73.367,56.746 -105.262,62.997 -2.148,0.421 -4.054,-1.484 -3.633,-3.632 C -56.746,73.367 -34.475,34.475 0,0" style="fill-opacity:1;fill-rule:nonzero;stroke:none" id="path3618" fill="#09a76d" data-original="#09a76d"></path></g><g id="g3620" transform="translate(88.3374,148.7642)"><path d="m 0,0 c -28.474,28.474 -48.611,59.957 -58.285,88.027 -6.487,2.318 -12.801,4.087 -18.861,5.275 -2.148,0.421 -4.054,-1.485 -3.633,-3.633 6.251,-31.895 28.522,-70.787 62.997,-105.262 36.077,-36.077 76.991,-58.789 109.662,-63.764 -1.048,6.887 -2.894,14.143 -5.478,21.64 C 58.746,-47.834 27.925,-27.925 0,0" style="fill-opacity:1;fill-rule:nonzero;stroke:none" id="path3622" fill="#02905d" data-original="#02905d"></path></g><g id="g3624" transform="translate(81.3057,209.0547)"><path d="m 0,0 c -24.224,17.429 -48.74,28.822 -70.114,33.011 -2.148,0.421 -4.054,-1.484 -3.633,-3.632 6.251,-31.896 28.522,-70.788 62.997,-105.263 36.077,-36.077 76.991,-58.789 109.662,-63.764 -4.974,32.671 -27.686,73.585 -63.764,109.663 -2.63,2.631 -5.29,5.181 -7.967,7.668" style="stroke-width:15;stroke-linecap:round;stroke-linejoin:round;stroke-miterlimit:10;stroke-dasharray:none;stroke-opacity:1" id="path3626" fill="none" stroke="#000000" stroke-width="15" stroke-linecap="round" stroke-linejoin="round" stroke-miterlimit="10" stroke-dasharray="none" stroke-opacity="" data-original="#000000" class=""></path></g><g id="g3628" transform="translate(67.9893,181.6353)"><path d="M 0,0 128.585,-128.585" style="stroke-width:15;stroke-linecap:round;stroke-linejoin:round;stroke-miterlimit:10;stroke-dasharray:none;stroke-opacity:1" id="path3630" fill="none" stroke="#000000" stroke-width="15" stroke-linecap="round" stroke-linejoin="round" stroke-miterlimit="10" stroke-dasharray="none" stroke-opacity="" data-original="#000000" class=""></path></g><g id="g3632" transform="translate(170.6001,70.9678)"><path d="m 0,0 c 0,-31.761 -28.552,-57.508 -63.771,-57.508 -35.221,0 -63.772,25.747 -63.772,57.508 0,31.761 28.551,57.508 63.772,57.508 C -28.552,57.508 0,31.761 0,0" style="fill-opacity:1;fill-rule:nonzero;stroke:none" id="path3634" fill="#8bc727" data-original="#8bc727"></path></g><g id="g3636" transform="translate(74.457,70.9678)"><path d="M 0,0 C 0,26.875 20.444,49.439 48.071,55.747 43.048,56.894 37.79,57.508 32.372,57.508 -2.849,57.508 -31.4,31.761 -31.4,0 c 0,-31.761 28.551,-57.508 63.772,-57.508 5.418,0 10.676,0.614 15.699,1.761 C 20.444,-49.439 0,-26.875 0,0" style="fill-opacity:1;fill-rule:nonzero;stroke:none" id="path3638" fill="#81b823" data-original="#81b823"></path></g><g id="g3640" transform="translate(170.6001,70.9678)"><path d="m 0,0 c 0,-31.761 -28.552,-57.508 -63.771,-57.508 -35.221,0 -63.772,25.747 -63.772,57.508 0,31.761 28.551,57.508 63.772,57.508 C -28.552,57.508 0,31.761 0,0 Z" style="stroke-width:15;stroke-linecap:round;stroke-linejoin:round;stroke-miterlimit:10;stroke-dasharray:none;stroke-opacity:1" id="path3642" fill="none" stroke="#000000" stroke-width="15" stroke-linecap="round" stroke-linejoin="round" stroke-miterlimit="10" stroke-dasharray="none" stroke-opacity="" data-original="#000000" class=""></path></g><g id="g3644" transform="translate(69.249,77.8008)"><path d="M 0,0 V -13.666" style="stroke-width:15;stroke-linecap:round;stroke-linejoin:miter;stroke-miterlimit:10;stroke-dasharray:none;stroke-opacity:1" id="path3646" fill="none" stroke="#000000" stroke-width="15" stroke-linecap="round" stroke-linejoin="miter" stroke-miterlimit="10" stroke-dasharray="none" stroke-opacity="" data-original="#000000" class=""></path></g><g id="g3648" transform="translate(234.2593,29.0874)"><path d="m 0,0 c -22.458,-22.458 -60.854,-20.475 -85.758,4.429 -24.904,24.904 -26.887,63.3 -4.429,85.758 22.459,22.458 60.854,20.475 85.758,-4.429 C 20.476,60.854 22.458,22.458 0,0" style="fill-opacity:1;fill-rule:nonzero;stroke:none" id="path3650" fill="#8bc727" data-original="#8bc727"></path></g><g id="g3652" transform="translate(179.6143,33.5166)"><path d="m 0,0 c -24.904,24.904 -26.887,63.299 -4.429,85.757 6.677,6.677 14.767,11.176 23.487,13.572 -19.6,5.091 -40.32,0.708 -54.6,-13.572 C -58,63.299 -56.017,24.904 -31.113,0 -13.612,-17.501 10.546,-23.665 31.159,-18 19.932,-15.084 9.07,-9.07 0,0" style="fill-opacity:1;fill-rule:nonzero;stroke:none" id="path3654" fill="#81b823" data-original="#81b823"></path></g><g id="g3656" transform="translate(234.2593,29.0874)"><path d="m 0,0 c -22.458,-22.458 -60.854,-20.475 -85.758,4.429 -24.904,24.904 -26.887,63.3 -4.429,85.758 22.459,22.458 60.854,20.475 85.758,-4.429 C 20.476,60.854 22.458,22.458 0,0 Z" style="stroke-width:15;stroke-linecap:round;stroke-linejoin:round;stroke-miterlimit:10;stroke-dasharray:none;stroke-opacity:1" id="path3658" fill="none" stroke="#000000" stroke-width="15" stroke-linecap="round" stroke-linejoin="round" stroke-miterlimit="10" stroke-dasharray="none" stroke-opacity="" data-original="#000000" class=""></path></g><g id="g3660" transform="translate(167.4248,105.585)"><path d="M 0,0 -9.663,-9.663" style="stroke-width:15;stroke-linecap:round;stroke-linejoin:miter;stroke-miterlimit:10;stroke-dasharray:none;stroke-opacity:1" id="path3662" fill="none" stroke="#000000" stroke-width="15" stroke-linecap="round" stroke-linejoin="miter" stroke-miterlimit="10" stroke-dasharray="none" stroke-opacity="" data-original="#000000" class=""></path></g></g></g></g></g></svg>