<svg xmlns="http://www.w3.org/2000/svg" version="1.1" xmlns:xlink="http://www.w3.org/1999/xlink" xmlns:svgjs="http://svgjs.com/svgjs" width="512" height="512" x="0" y="0" viewBox="0 0 682.66669 682.66669" style="enable-background:new 0 0 512 512" xml:space="preserve" class=""><g><defs id="defs2467"><clipPath clipPathUnits="userSpaceOnUse" id="clipPath2477"><path d="M 0,512 H 512 V 0 H 0 Z" id="path2475" fill="#000000" data-original="#000000"></path></clipPath></defs><g id="g2469" transform="matrix(1.3333333,0,0,-1.3333333,0,682.66667)"><g id="g2471"><g id="g2473" clip-path="url(#clipPath2477)"><g id="g2479" transform="translate(268.23,261.3735)"><path d="m 0,0 -20.891,20.891 -25.685,-25.685 16.252,-16.252 c 7.637,-7.636 2.228,-20.693 -8.571,-20.693 h -88.494 c -8.926,0 -16.162,7.236 -16.162,16.162 0,8.927 7.236,16.163 16.162,16.163 -25.663,0 -46.467,-20.804 -46.467,-46.468 0,-25.663 20.804,-46.467 46.467,-46.467 h 84.994 c 33.116,0 59.96,26.848 59.955,59.964 v 0 C 17.558,-26.487 11.241,-11.241 0,0" style="fill-opacity:1;fill-rule:nonzero;stroke:none" id="path2481" fill="#83cd79" data-original="#97e4f9" class=""></path></g><g id="g2483" transform="translate(268.23,261.3735)"><path d="M 0,0 -17.813,17.813 C -6.573,6.572 -0.257,-8.673 -0.254,-24.57 v 0 c 0.005,-33.116 -26.839,-59.965 -59.955,-59.965 h -84.994 c -8.254,0 -16,2.162 -22.718,5.936 7.96,-14.17 23.123,-23.75 40.533,-23.75 h 84.993 c 33.116,0 59.96,26.848 59.955,59.964 v 0 C 17.558,-26.487 11.241,-11.241 0,0" style="fill-opacity:1;fill-rule:nonzero;stroke:none" id="path2485" fill="#83cd79" data-original="#62d8f9" class=""></path></g><g id="g2487" transform="translate(296.4065,58.0081)"><path d="m 0,0 h -202.033 l -10.101,101.016 H 10.102 Z" style="fill-opacity:1;fill-rule:nonzero;stroke:none" id="path2489" fill="#fff0dc" data-original="#fff0dc"></path></g><g id="g2491" transform="translate(286.7495,159.0244)"><path d="m 0,0 -7.576,-75.757 c -0.516,-5.164 -4.861,-9.097 -10.051,-9.097 h -176.365 l 1.617,-16.162 H 9.657 L 19.759,0 Z" style="fill-opacity:1;fill-rule:nonzero;stroke:none" id="path2493" fill="#fcddaf" data-original="#fcddaf"></path></g><g id="g2495" transform="translate(504.5,99.4248)"><path d="m 0,0 h -131.757 c -10.716,0 -20.994,-4.257 -28.572,-11.835 l -29.582,-29.582 h -230.317 c -5.579,0 -10.101,-4.522 -10.101,-10.101 v -30.305 c 0,-5.579 4.522,-10.102 10.101,-10.102 h 252.541 l 41.417,41.417 H 0 Z" style="fill-opacity:1;fill-rule:nonzero;stroke:none" id="path2497" fill="#fb636f" data-original="#fb636f"></path></g><g id="g2499" transform="translate(324.6911,27.7032)"><path d="m 0,0 h -250.52 v -10.102 c 0,-5.579 4.522,-10.101 10.101,-10.101 H 12.122 l 41.417,41.416 h 126.27 V 41.417 H 49.785 c -5.358,0 -10.497,-2.129 -14.286,-5.918 z" style="fill-opacity:1;fill-rule:nonzero;stroke:none" id="path2501" fill="#fa4954" data-original="#fa4954" class=""></path></g><g id="g2503" transform="translate(7.5,504.5)"><path d="M 0,0 V -128.082 L 92.784,-220.867 212.785,-100.865 111.944,-0.024 Z" style="fill-opacity:1;fill-rule:nonzero;stroke:none" id="path2505" fill="#83cd79" data-original="#97e4f9" class=""></path></g><g id="g2507" transform="translate(94.2442,329.9586)"><path d="M 0,0 -86.744,86.744 V 46.459 L 6.04,-46.325 126.041,73.676 106.716,93.001 14.286,0 C 10.341,-3.945 3.945,-3.945 0,0" style="fill-opacity:1;fill-rule:nonzero;stroke:none" id="path2509" fill="#83cd79" data-original="#62d8f9" class=""></path></g><g id="g2511" transform="translate(191.7136,312.205)"><path d="m 0,0 21.429,21.429 7.143,70 -120.001,-120.001 70,7.143 z" style="fill-opacity:1;fill-rule:nonzero;stroke:none" id="path2513" fill="#d5ced5" data-original="#d5ced5" class=""></path></g><g id="g2515" transform="translate(170.2849,290.7763)"><path d="M 0,0 42.858,42.858 85.715,0 42.858,-42.858 Z" style="fill-opacity:1;fill-rule:nonzero;stroke:none" id="path2517" fill="#e3dfe2" data-original="#e3dfe2" class=""></path></g><g id="g2519" transform="translate(241.0511,305.7252)"><path d="m 0,0 -42.858,-42.858 14.949,-14.948 42.858,42.857 z" style="fill-opacity:1;fill-rule:nonzero;stroke:none" id="path2521" fill="#d5ced5" data-original="#d5ced5" class=""></path></g><g id="g2523" transform="translate(174.5,219.6341)"><path d="m 0,0 h -33.659 c -8.926,0 -16.162,7.236 -16.162,16.163 0,8.926 7.236,16.162 16.162,16.162 -25.663,0 -46.467,-20.804 -46.467,-46.467 0,-25.664 20.804,-46.468 46.467,-46.468" style="stroke-width:15;stroke-linecap:round;stroke-linejoin:round;stroke-miterlimit:10;stroke-dasharray:none;stroke-opacity:1" id="path2525" fill="none" stroke="#000000" stroke-width="15" stroke-linecap="round" stroke-linejoin="round" stroke-miterlimit="10" stroke-dasharray="none" stroke-opacity="" data-original="#000000"></path></g><g id="g2527" transform="translate(221.6545,256.5794)"><path d="M 0,0 16.252,-16.252 C 23.888,-23.888 18.48,-36.945 7.68,-36.945 H -12.196" style="stroke-width:15;stroke-linecap:round;stroke-linejoin:round;stroke-miterlimit:10;stroke-dasharray:none;stroke-opacity:1" id="path2529" fill="none" stroke="#000000" stroke-width="15" stroke-linecap="round" stroke-linejoin="round" stroke-miterlimit="10" stroke-dasharray="none" stroke-opacity="" data-original="#000000"></path></g><g id="g2531" transform="translate(225.8354,159.0244)"><path d="m 0,0 c 33.116,0 59.96,26.848 59.955,59.964 v 0 c -0.003,15.898 -6.319,31.144 -17.56,42.385 L 21.504,123.24" style="stroke-width:15;stroke-linecap:round;stroke-linejoin:round;stroke-miterlimit:10;stroke-dasharray:none;stroke-opacity:1" id="path2533" fill="none" stroke="#000000" stroke-width="15" stroke-linecap="round" stroke-linejoin="round" stroke-miterlimit="10" stroke-dasharray="none" stroke-opacity="" data-original="#000000"></path></g><g id="g2535" transform="translate(296.4065,58.0081)"><path d="m 0,0 h -202.033 l -10.101,101.016 H 10.102 Z" style="stroke-width:15;stroke-linecap:round;stroke-linejoin:round;stroke-miterlimit:10;stroke-dasharray:none;stroke-opacity:1" id="path2537" fill="none" stroke="#000000" stroke-width="15" stroke-linecap="round" stroke-linejoin="round" stroke-miterlimit="10" stroke-dasharray="none" stroke-opacity="" data-original="#000000"></path></g><g id="g2539" transform="translate(414.5417,99.4248)"><path d="M 0,0 H -41.799 C -52.515,0 -62.793,-4.257 -70.37,-11.835 l -29.582,-29.582 h -230.317 c -5.579,0 -10.102,-4.522 -10.102,-10.101 v -30.305 c 0,-5.579 4.523,-10.102 10.102,-10.102 h 252.54 l 41.417,41.417 h 126.27" style="stroke-width:15;stroke-linecap:round;stroke-linejoin:round;stroke-miterlimit:10;stroke-dasharray:none;stroke-opacity:1" id="path2541" fill="none" stroke="#000000" stroke-width="15" stroke-linecap="round" stroke-linejoin="round" stroke-miterlimit="10" stroke-dasharray="none" stroke-opacity="" data-original="#000000"></path></g><g id="g2543" transform="translate(504.5,99.4248)"><path d="M 0,0 H -54.917" style="stroke-width:15;stroke-linecap:round;stroke-linejoin:round;stroke-miterlimit:10;stroke-dasharray:none;stroke-opacity:1" id="path2545" fill="none" stroke="#000000" stroke-width="15" stroke-linecap="round" stroke-linejoin="round" stroke-miterlimit="10" stroke-dasharray="none" stroke-opacity="" data-original="#000000"></path></g><g id="g2547" transform="translate(215.5935,58.0081)"><path d="M 0,0 V 40.407" style="stroke-width:15;stroke-linecap:round;stroke-linejoin:round;stroke-miterlimit:10;stroke-dasharray:none;stroke-opacity:1" id="path2549" fill="none" stroke="#000000" stroke-width="15" stroke-linecap="round" stroke-linejoin="round" stroke-miterlimit="10" stroke-dasharray="none" stroke-opacity="" data-original="#000000"></path></g><g id="g2551" transform="translate(175.187,58.0081)"><path d="M 0,0 V 40.407" style="stroke-width:15;stroke-linecap:round;stroke-linejoin:round;stroke-miterlimit:10;stroke-dasharray:none;stroke-opacity:1" id="path2553" fill="none" stroke="#000000" stroke-width="15" stroke-linecap="round" stroke-linejoin="round" stroke-miterlimit="10" stroke-dasharray="none" stroke-opacity="" data-original="#000000"></path></g><g id="g2555" transform="translate(134.7805,58.0081)"><path d="M 0,0 V 40.407" style="stroke-width:15;stroke-linecap:round;stroke-linejoin:round;stroke-miterlimit:10;stroke-dasharray:none;stroke-opacity:1" id="path2557" fill="none" stroke="#000000" stroke-width="15" stroke-linecap="round" stroke-linejoin="round" stroke-miterlimit="10" stroke-dasharray="none" stroke-opacity="" data-original="#000000"></path></g><g id="g2559" transform="translate(256,58.0081)"><path d="M 0,0 V 40.407" style="stroke-width:15;stroke-linecap:round;stroke-linejoin:round;stroke-miterlimit:10;stroke-dasharray:none;stroke-opacity:1" id="path2561" fill="none" stroke="#000000" stroke-width="15" stroke-linecap="round" stroke-linejoin="round" stroke-miterlimit="10" stroke-dasharray="none" stroke-opacity="" data-original="#000000"></path></g><g id="g2563" transform="translate(170.2849,290.7763)"><path d="M 0,0 42.858,42.858 85.715,0 42.858,-42.858 Z" style="stroke-width:15;stroke-linecap:round;stroke-linejoin:round;stroke-miterlimit:10;stroke-dasharray:none;stroke-opacity:1" id="path2565" fill="none" stroke="#000000" stroke-width="15" stroke-linecap="round" stroke-linejoin="round" stroke-miterlimit="10" stroke-dasharray="none" stroke-opacity="" data-original="#000000"></path></g><g id="g2567" transform="translate(150.7808,473.139)"><path d="M 0,0 -31.337,31.337" style="stroke-width:15;stroke-linecap:round;stroke-linejoin:round;stroke-miterlimit:10;stroke-dasharray:none;stroke-opacity:1" id="path2569" fill="none" stroke="#000000" stroke-width="15" stroke-linecap="round" stroke-linejoin="round" stroke-miterlimit="10" stroke-dasharray="none" stroke-opacity="" data-original="#000000"></path></g><g id="g2571" transform="translate(7.5,376.4175)"><path d="m 0,0 92.784,-92.784 70.001,7.143 21.429,21.429 21.428,21.428 7.143,70.001 -44.606,44.607" style="stroke-width:15;stroke-linecap:round;stroke-linejoin:round;stroke-miterlimit:10;stroke-dasharray:none;stroke-opacity:1" id="path2573" fill="none" stroke="#000000" stroke-width="15" stroke-linecap="round" stroke-linejoin="round" stroke-miterlimit="10" stroke-dasharray="none" stroke-opacity="" data-original="#000000"></path></g><g id="g2575" transform="translate(220.2854,403.6345)"><path d="M 0,0 -120.001,-120.001" style="stroke-width:15;stroke-linecap:round;stroke-linejoin:round;stroke-miterlimit:10;stroke-dasharray:none;stroke-opacity:1" id="path2577" fill="none" stroke="#000000" stroke-width="15" stroke-linecap="round" stroke-linejoin="round" stroke-miterlimit="10" stroke-dasharray="none" stroke-opacity="" data-original="#000000"></path></g><g id="g2579" transform="translate(229.4233,219.6341)"><path d="M 0,0 H -19.876" style="stroke-width:15;stroke-linecap:round;stroke-linejoin:round;stroke-miterlimit:10;stroke-dasharray:none;stroke-opacity:1" id="path2581" fill="none" stroke="#000000" stroke-width="15" stroke-linecap="round" stroke-linejoin="round" stroke-miterlimit="10" stroke-dasharray="none" stroke-opacity="" data-original="#000000"></path></g></g></g></g></g></svg>