<svg width="30" height="30" viewBox="0 0 30 30" fill="none" xmlns="http://www.w3.org/2000/svg">
<g clip-path="url(#clip0_174_1446)">
<g clip-path="url(#clip1_174_1446)">
<path d="M30.8837 6.46205L22.26 13.1855L19.0776 15.6671L13.0576 13.5186L23.2182 2.65064C24.0992 2.11887 25.0366 1.68671 26.0132 1.36213C28.5037 0.565511 31.6466 0.620468 30.8837 6.46205Z" fill="#FF9FB3"/>
<path d="M30.8837 6.46205L22.26 13.1855C21.7894 12.0638 22.3984 10.7998 22.3984 10.7998L28.8633 6.15953C28.8633 6.15953 30.199 4.89358 28.7061 2.29962C28.7061 2.29962 27.8837 1.1895 26.0133 1.36213C28.5038 0.565511 31.6467 0.620468 30.8837 6.46205Z" fill="#FF8293"/>
<path d="M2.93066 15.1136V20.9332C2.93066 26.4928 7.54335 31 13.2334 31C18.9234 31 23.5361 26.4931 23.5361 20.9332V15.1136H2.93066Z" fill="#FF8293"/>
<path d="M13.2335 23.2696C19.9899 23.2696 25.467 19.7992 25.467 15.5183C25.467 11.2373 19.9899 7.76691 13.2335 7.76691C6.47713 7.76691 1 11.2373 1 15.5183C1 19.7992 6.47713 23.2696 13.2335 23.2696Z" fill="#FF9FB3"/>
<path d="M20.3389 8.79707C19.409 5.4601 16.735 7.13777 16.735 7.13777C13.2064 2.47336 9.72091 7.13777 9.72091 7.13777C7.34342 5.47853 6.11691 8.79707 6.11691 8.79707C2.72052 7.96742 3.60662 14.0923 3.60662 14.0923C4.06024 17.2373 7.91678 19.5363 13.2338 19.5363C18.5507 19.5363 22.5142 17.2373 22.8609 14.0923C22.8608 14.0922 23.7353 7.96742 20.3389 8.79707Z" fill="#EDEBFD"/>
<path d="M15.4381 10.7514C12.287 6.41876 9.85285 12.171 9.85285 12.171C8.21126 9.05519 6.02243 12.5028 6.02243 12.5028C6.02243 12.5028 5.44998 14.4455 6.58002 13.0961C7.71006 11.7468 8.92447 11.6119 9.64977 13.1636C10.3751 14.7154 10.8304 13.366 11.9774 11.0215C13.1243 8.67709 16.352 12.6738 15.4381 10.7514Z" fill="#D2D2FD"/>
<path d="M20.9666 14.1068C19.2118 12.005 16.4758 14.9365 16.4758 14.9365C13.6455 9.9217 11.3057 15.9322 11.3057 15.9322C11.3057 15.9322 11.4544 17.4956 12.4832 15.6671C13.5121 13.8385 15.6541 15.0528 16.3794 16.3516C17.1047 17.6503 17.4251 15.9468 18.6395 14.8842C19.8539 13.8217 21.8433 15.6909 20.9666 14.1068Z" fill="#D2D2FD"/>
</g>
</g>
<defs>
<clipPath id="clip0_174_1446">
<rect width="30" height="30" fill="white"/>
</clipPath>
<clipPath id="clip1_174_1446">
<rect width="30" height="30" fill="white" transform="translate(1 1)"/>
</clipPath>
</defs>
</svg>
