<svg width="30" height="30" viewBox="0 0 30 30" fill="none" xmlns="http://www.w3.org/2000/svg">
<path d="M9.93301 11.5266V12.0984C9.93283 12.1462 9.92321 12.1934 9.90471 12.2374C9.88621 12.2815 9.8592 12.3214 9.82522 12.3549C9.79125 12.3885 9.75098 12.415 9.70673 12.4329C9.66248 12.4508 9.61512 12.4598 9.56738 12.4594H9.37051C9.32277 12.4598 9.27541 12.4508 9.23116 12.4329C9.18691 12.415 9.14664 12.3885 9.11267 12.3549C9.07869 12.3214 9.05168 12.2815 9.03318 12.2374C9.01468 12.1934 9.00507 12.1462 9.00488 12.0984V11.5266C9.00501 11.4296 9.04357 11.3367 9.11211 11.2682C9.18065 11.1996 9.27358 11.1611 9.37051 11.1609H9.56738C9.66431 11.1611 9.75724 11.1996 9.82578 11.2682C9.89432 11.3367 9.93288 11.4296 9.93301 11.5266Z" fill="black"/>
<path d="M8.10154 10.0162C8.05027 10.016 8.00049 9.99899 7.95982 9.96777C7.91915 9.93655 7.88984 9.89286 7.87638 9.84339C7.86293 9.79391 7.86606 9.7414 7.88531 9.69388C7.90455 9.64636 7.93885 9.60646 7.98294 9.5803C8.28782 9.4413 8.61736 9.36453 8.95227 9.35447C9.28719 9.34441 9.62074 9.40126 9.93341 9.5217C9.99271 9.54035 10.0422 9.58179 10.0709 9.63691C10.0997 9.69203 10.1053 9.75631 10.0867 9.81561C10.068 9.87491 10.0266 9.92437 9.97149 9.95312C9.91637 9.98187 9.85209 9.98754 9.79279 9.96889C9.28519 9.76854 8.71932 9.77493 8.21638 9.9867C8.18126 10.0062 8.14172 10.0164 8.10154 10.0162Z" fill="black"/>
<path d="M14.9345 9.91406C14.9043 9.91416 14.8744 9.90843 14.8464 9.89719C14.4133 9.72141 13.4959 9.66891 13.2461 9.85359C13.2215 9.87206 13.1935 9.8855 13.1636 9.89313C13.1338 9.90077 13.1028 9.90246 13.0723 9.89811C13.0419 9.89376 13.0125 9.88345 12.9861 9.86777C12.9596 9.85208 12.9364 9.83134 12.918 9.80672C12.8995 9.78209 12.8861 9.75408 12.8784 9.72426C12.8708 9.69444 12.8691 9.66342 12.8734 9.63295C12.8778 9.60248 12.8881 9.57316 12.9038 9.54668C12.9195 9.5202 12.9402 9.49706 12.9648 9.47859C13.4233 9.13875 14.5558 9.27515 15.0203 9.46359C15.0706 9.48408 15.1121 9.52137 15.138 9.56909C15.1638 9.61682 15.1723 9.67203 15.1619 9.7253C15.1516 9.77857 15.1231 9.8266 15.0812 9.8612C15.0394 9.89579 14.9869 9.91481 14.9327 9.915L14.9345 9.91406Z" fill="black"/>
<path d="M9.80576 11.3672C9.75279 11.3671 9.7014 11.3491 9.65998 11.3161C9.51735 11.2014 9.33981 11.1389 9.15678 11.1389C8.97374 11.1389 8.7962 11.2014 8.65357 11.3161C8.6295 11.3353 8.60188 11.3497 8.57228 11.3582C8.54268 11.3668 8.51169 11.3694 8.48107 11.366C8.45045 11.3626 8.4208 11.3532 8.39381 11.3383C8.36683 11.3234 8.34304 11.3034 8.32381 11.2793C8.30457 11.2552 8.29026 11.2276 8.2817 11.198C8.27314 11.1684 8.27049 11.1374 8.27391 11.1068C8.28081 11.045 8.31199 10.9884 8.3606 10.9495C8.58681 10.7687 8.86784 10.6701 9.15748 10.6701C9.44712 10.6701 9.72814 10.7687 9.95435 10.9495C9.9924 10.9799 10.0201 11.0213 10.0335 11.0681C10.047 11.1148 10.0455 11.1646 10.0294 11.2105C10.0133 11.2564 9.98326 11.2962 9.94352 11.3242C9.90378 11.3523 9.85629 11.3673 9.80763 11.3672H9.80576Z" fill="black"/>
<path d="M14.8168 11.3813C14.7638 11.3812 14.7125 11.3632 14.671 11.3302C14.5273 11.2156 14.349 11.1533 14.1653 11.1533C13.9815 11.1533 13.8032 11.2156 13.6595 11.3302C13.6108 11.3685 13.5489 11.3859 13.4874 11.3787C13.4258 11.3715 13.3697 11.3402 13.3311 11.2917C13.2926 11.2432 13.2748 11.1814 13.2817 11.1198C13.2886 11.0583 13.3196 11.0019 13.3679 10.9632C13.5944 10.7828 13.8753 10.6846 14.1648 10.6846C14.4543 10.6846 14.7352 10.7828 14.9617 10.9632C14.9995 10.9935 15.027 11.0349 15.0404 11.0816C15.0537 11.1283 15.0522 11.1779 15.0361 11.2237C15.02 11.2695 14.9901 11.3092 14.9505 11.3372C14.9108 11.3653 14.8635 11.3804 14.8149 11.3803L14.8168 11.3813Z" fill="black"/>
<path d="M11.634 15.7608C11.6162 15.7608 11.5984 15.7608 11.5806 15.7608C11.4234 15.7614 11.2679 15.7275 11.1253 15.6614C10.9826 15.5953 10.8563 15.4986 10.7551 15.3783C10.719 15.3289 10.7037 15.2674 10.7123 15.2069C10.7209 15.1464 10.7529 15.0916 10.8013 15.0543C10.8498 15.017 10.9109 15.0001 10.9716 15.0072C11.0323 15.0143 11.0878 15.0448 11.1264 15.0923C11.1864 15.1571 11.2594 15.2085 11.3407 15.243C11.422 15.2775 11.5096 15.2943 11.5979 15.2925C11.7362 15.2978 11.874 15.2736 12.0022 15.2214C12.1304 15.1693 12.246 15.0905 12.3414 14.9901C12.3615 14.9659 12.3863 14.9459 12.4143 14.9314C12.4423 14.917 12.4729 14.9083 12.5043 14.9059C12.5358 14.9036 12.5674 14.9076 12.5972 14.9177C12.6271 14.9279 12.6546 14.9439 12.6781 14.9649C12.7016 14.9859 12.7206 15.0115 12.734 15.04C12.7474 15.0685 12.7549 15.0995 12.7561 15.131C12.7572 15.1625 12.752 15.1939 12.7408 15.2233C12.7295 15.2528 12.7125 15.2796 12.6906 15.3023C12.5561 15.4481 12.3926 15.5641 12.2107 15.6431C12.0288 15.722 11.8323 15.7621 11.634 15.7608Z" fill="black"/>
<path d="M11.1398 14.3217C11.008 14.3204 10.881 14.2724 10.7812 14.1863C10.7011 14.1256 10.6393 14.0439 10.6027 13.9502C10.5662 13.8565 10.5562 13.7546 10.574 13.6556C10.5901 13.5978 10.6277 13.5483 10.6791 13.5173C10.7306 13.4864 10.792 13.4764 10.8506 13.4894C10.9092 13.5024 10.9606 13.5374 10.9942 13.5871C11.0278 13.6369 11.041 13.6977 11.0311 13.7569C11.0455 13.7932 11.0718 13.8236 11.1056 13.8431C11.1155 13.8489 11.1267 13.8519 11.1382 13.8519C11.1496 13.8519 11.1608 13.8489 11.1708 13.8431C11.1989 13.8283 11.2297 13.8193 11.2614 13.8167C11.2932 13.8141 11.3251 13.818 11.3552 13.8282C11.3854 13.8384 11.4131 13.8546 11.4368 13.8758C11.4605 13.897 11.4796 13.9229 11.493 13.9517C11.5064 13.9806 11.5138 14.0119 11.5147 14.0437C11.5156 14.0755 11.51 14.1071 11.4982 14.1367C11.4865 14.1663 11.4689 14.1932 11.4464 14.2157C11.424 14.2383 11.3972 14.256 11.3676 14.2678C11.2966 14.3025 11.2188 14.3209 11.1398 14.3217Z" fill="black"/>
<path d="M14.4748 11.1469H14.2826C14.0807 11.1469 13.917 11.3106 13.917 11.5125V12.0844C13.917 12.2863 14.0807 12.45 14.2826 12.45H14.4748C14.6767 12.45 14.8404 12.2863 14.8404 12.0844V11.5125C14.8404 11.3106 14.6767 11.1469 14.4748 11.1469Z" fill="black"/>
<path d="M28.4414 19.7344C28.4041 19.2705 28.2684 18.8199 28.0434 18.4126C27.8184 18.0052 27.5092 17.6505 27.1364 17.3719C26.7361 17.007 26.3571 16.6195 26.0011 16.2113C25.6875 15.8461 25.6261 15.1575 25.5492 14.2866C25.4962 13.2658 25.3062 12.2567 24.9844 11.2866C24.6785 10.4398 24.1503 9.69092 23.4553 9.1186C22.6013 8.35854 21.899 7.44348 21.3858 6.42188C19.703 3.23438 16.7676 1.53329 13.3462 1.76017C10.9987 1.89142 9.30374 2.66813 8.16327 4.13298C7.49819 4.93259 7.06198 5.89734 6.90093 6.92485C6.86297 7.15403 6.81116 7.3807 6.74577 7.6036C6.46061 8.33377 6.04688 9.00691 5.52421 9.5911C4.61249 10.6964 3.57983 11.9531 3.98718 14.5809L4.01765 14.7792C4.49436 17.85 4.49436 17.85 2.9339 19.1564C1.78124 20.1239 1.25811 21.4106 1.53796 22.598C1.6596 23.0943 1.91933 23.546 2.28708 23.9008C2.65484 24.2556 3.11557 24.499 3.61593 24.6028C4.08429 24.7187 4.52457 24.9275 4.91061 25.2169C5.26135 25.4844 5.66242 25.6784 6.08984 25.7874C6.51727 25.8964 6.96228 25.918 7.39827 25.8511C7.29208 26.1259 7.2846 26.429 7.37711 26.7086C7.46961 26.9883 7.65637 27.2271 7.90546 27.3844C9.0239 28.162 10.9866 28.5563 13.7391 28.5563C16.9509 28.5563 20.6072 27.3806 21.3951 26.8997L21.5358 26.8149C22.0472 26.5059 22.8014 26.0424 22.6655 25.3045C22.9435 25.1551 23.2099 24.9849 23.4623 24.7955C24.2506 24.207 25.1367 23.7626 26.0798 23.483C27.8095 22.9913 28.6209 20.9672 28.4414 19.7344ZM21.2916 26.4136L21.1509 26.4999C20.3559 26.9845 16.7344 28.0875 13.7391 28.0875C11.0841 28.0875 9.2114 27.7214 8.17358 27.0005C7.91436 26.8186 7.6214 26.4933 7.92327 25.7958C9.66514 25.5342 10.2155 24.5588 10.6992 23.693C10.8281 23.4628 11.2753 22.7888 11.3667 22.6669C11.7567 22.8755 12.1861 23.0001 12.6272 23.0325L12.713 24.8241C12.7154 24.8766 12.7354 24.9269 12.7699 24.9667C12.8043 25.0065 12.8511 25.0335 12.9028 25.0434C12.9545 25.0534 13.0081 25.0456 13.0549 25.0214C13.1017 24.9971 13.1389 24.9579 13.1606 24.9099L13.9392 23.1886C14.7208 23.0767 15.4875 22.8785 16.2253 22.5975C16.2333 22.6209 16.2375 22.642 16.2459 22.6659C16.4076 23.1061 16.6356 23.519 16.9219 23.8903C17.903 25.2244 19.1358 25.912 20.4651 25.912C21.067 25.9029 21.6607 25.771 22.2098 25.5244C22.1648 25.8544 21.7687 26.1258 21.2916 26.4136ZM13.2187 18.8709C13.3162 18.8569 13.9491 18.7341 14.1722 18.6731C14.4197 18.6056 14.6705 18.5245 14.9222 18.4299C14.9522 18.42 14.98 18.4042 15.0038 18.3833C15.0275 18.3624 15.0468 18.337 15.0605 18.3084C15.0742 18.2799 15.0819 18.2489 15.0833 18.2173C15.0847 18.1857 15.0797 18.1542 15.0685 18.1246C15.0574 18.095 15.0403 18.0679 15.0185 18.0451C14.9966 18.0222 14.9703 18.004 14.9412 17.9916C14.9121 17.9792 14.8808 17.9728 14.8492 17.9728C14.8176 17.9728 14.7863 17.9792 14.7572 17.9916C14.326 18.1551 13.8807 18.2786 13.4269 18.3605C13.3275 18.3792 12.982 18.4322 12.6351 18.4542C12.4202 18.4678 12.2047 18.4691 11.9897 18.458C10.4784 18.367 8.67139 16.9261 8.4089 15.6047C8.26886 14.771 8.18554 13.9287 8.15952 13.0838C8.12249 12.4008 8.08405 11.6944 7.9903 11.0489C8.01135 9.94523 8.20202 8.85135 8.55561 7.80563C9.00046 6.45798 9.58686 5.59923 10.2098 5.38876C10.4104 5.3325 10.6217 5.32585 10.8254 5.36937C11.0292 5.4129 11.2193 5.50529 11.3794 5.6386C11.4119 5.66079 11.4494 5.67443 11.4886 5.67828C11.5277 5.68213 11.5672 5.67607 11.6034 5.66063C12.4448 5.3011 13.0359 5.20829 13.4123 5.37376C13.8619 5.57298 14.0686 6.17063 14.3311 6.92907C14.6178 7.92567 15.1042 8.85354 15.7608 9.65626C16.5576 10.5619 16.29 11.8908 15.6 13.7419C14.9676 15.4369 15.5681 16.4606 16.0509 17.28C16.214 17.5284 16.3457 17.7961 16.4428 18.0769C16.6687 18.8431 16.625 19.6636 16.3191 20.4014C16.0925 20.9496 16.0194 21.5492 16.1076 22.1358C15.3542 22.4335 14.566 22.6346 13.762 22.7344C13.7203 22.7378 13.6803 22.7522 13.6461 22.7763C13.6119 22.8004 13.5848 22.8332 13.5675 22.8713L13.1348 23.8284L13.0856 22.8005C13.0829 22.7415 13.0581 22.6857 13.016 22.6442C12.9739 22.6028 12.9178 22.5787 12.8587 22.5769C12.448 22.5683 12.0435 22.4739 11.6714 22.2999C11.7906 22.159 11.9324 22.039 12.0909 21.9445C12.2662 21.8545 13.7344 21.0159 13.2187 18.8709Z" fill="#DB805B"/>
</svg>
