<svg width="30" height="30" viewBox="0 0 30 30" fill="none" xmlns="http://www.w3.org/2000/svg">
<g clip-path="url(#clip0_174_1348)">
<path d="M29.7188 6.43886C29.7188 6.9539 29.6035 7.44491 29.4007 7.88354L26.2782 8.97638C24.378 8.97638 23.9263 8.4355 23.9263 6.5353C23.9263 5.03062 25.1421 3.19118 25.1421 3.19118C25.4958 3.06837 25.8827 2.99829 26.2782 2.99829C28.1784 2.99829 29.7188 4.53866 29.7188 6.43886Z" fill="#EEECFF"/>
<path d="M29.4005 7.88352C25.7212 7.81222 24.6121 4.99737 25.1419 3.19116C23.8002 3.66056 22.8374 4.9369 22.8374 6.43884C22.8374 8.33903 24.3778 9.8794 26.278 9.8794C27.662 9.8794 28.8544 9.06179 29.4005 7.88352Z" fill="#D3D3FF"/>
<path d="M20.2478 27.3416C18.3528 27.1047 16.4237 26.9846 14.5139 26.9846C12.6042 26.9846 10.6751 27.1047 8.78018 27.3416C4.38517 27.8906 0.504395 24.4698 0.504395 20.036V14.0068C0.504395 9.60905 4.3618 6.14944 8.78006 6.70121C10.6751 6.93811 12.6042 7.05823 14.5139 7.05823C16.4237 7.05823 18.3528 6.93811 20.2477 6.70121C24.6645 6.14979 28.5233 9.60711 28.5233 14.0068V20.0359C28.5233 24.4337 24.666 27.8933 20.2478 27.3416Z" fill="#98D98F"/>
<path d="M20.7082 23.6595C16.5948 23.1454 12.4334 23.1454 8.32 23.6595C6.14043 23.932 4.21533 22.2325 4.21533 20.036V14.0068C4.21533 11.8103 6.14049 10.1108 8.32 10.3833C12.4334 10.8975 16.5948 10.8975 20.7082 10.3833C22.8878 10.1108 24.8128 11.8103 24.8128 14.0068V20.036C24.8129 22.2325 22.8878 23.932 20.7082 23.6595Z" fill="#5EC682"/>
<path d="M12.9127 7.4552C12.7557 7.15737 12.7425 6.80276 12.8697 6.49104C13.8484 4.09116 12.2561 1.29934 9.60166 1.02014C9.09852 0.967234 8.6071 1.01171 8.14526 1.13657C5.96077 2.44169 6.12928 5.45464 7.63227 6.53528C7.25557 10.3545 8.97413 12.5646 12.1884 11.4426V11.4433C12.8173 10.881 13.2336 10.0828 13.2855 9.18559C13.3216 8.5587 13.1824 7.96719 12.9127 7.4552Z" fill="#EEECFF"/>
<path d="M10.5818 25.3213C10.5045 23.082 8.39908 21.5095 6.27962 21.9749C5.97593 22.0416 5.65478 21.9524 5.44466 21.7233C4.94703 21.1804 4.26042 20.8146 3.48921 20.7275C1.75847 21.6037 2.44829 24.3155 3.70906 24.8544C3.40062 26.4709 5.42175 29.2987 8.42591 28.7138C9.7322 28.1486 10.6334 26.8173 10.5818 25.3213Z" fill="#EEECFF"/>
<path d="M29.9942 22.2857C29.8933 20.4789 28.416 19.0201 26.6082 18.9402C25.9898 18.9128 25.4047 19.0441 24.8893 19.296C22.4889 21.1143 24.7012 26.1812 28.6777 25.2539C29.5326 24.5634 30.0612 23.485 29.9942 22.2857Z" fill="#EEECFF"/>
<path d="M24.8892 19.296C24.1972 19.6342 23.6312 20.1903 23.2812 20.8754C23.1343 21.1629 22.8146 21.3091 22.495 21.2632C21.1788 21.0746 19.9028 22.0891 19.9028 23.5161C19.9028 24.4169 20.4268 25.1951 21.1866 25.563C21.4221 25.6771 21.5716 25.9135 21.5932 26.1743C21.7029 27.4997 22.8138 28.5557 24.1842 28.5557C25.4319 28.5557 26.4738 27.6766 26.7255 26.5041C26.7854 26.2248 27.006 26.0099 27.2837 25.9429C27.8021 25.8177 28.2758 25.5785 28.6777 25.254C24.7725 25.3844 23.8189 20.8599 24.8892 19.296Z" fill="#D3D3FF"/>
<path d="M11.4804 17.8795C11.4804 18.6597 10.6862 19.2921 9.70648 19.2921C8.7268 19.2921 7.93262 18.6597 7.93262 17.8795C7.93262 17.0993 8.7268 16.4669 9.70648 16.4669C10.6862 16.4669 11.4804 17.0993 11.4804 17.8795Z" fill="white"/>
<path d="M17.5479 17.8795C17.5479 18.6597 18.342 19.2921 19.3217 19.2921C20.3014 19.2921 21.0956 18.6597 21.0956 17.8795C21.0956 17.0993 20.3014 16.4669 19.3217 16.4669C18.342 16.4669 17.5479 17.0993 17.5479 17.8795Z" fill="white"/>
<path d="M15.9444 16.7941C15.9444 15.9102 15.3041 15.8272 14.5142 15.8272C13.7244 15.8272 13.084 15.9102 13.084 16.7941C13.084 17.678 13.7243 18.3945 14.5142 18.3945C15.3041 18.3945 15.9444 17.678 15.9444 16.7941Z" fill="#495560"/>
<path d="M10.0029 16.6324C9.76018 16.6324 9.56348 16.4357 9.56348 16.193V15.4686C9.56348 15.2259 9.76018 15.0292 10.0029 15.0292C10.2457 15.0292 10.4424 15.2259 10.4424 15.4686V16.193C10.4424 16.4357 10.2456 16.6324 10.0029 16.6324Z" fill="#495560"/>
<path d="M19.0249 16.6324C18.7821 16.6324 18.5854 16.4357 18.5854 16.193V15.4686C18.5854 15.2259 18.7821 15.0292 19.0249 15.0292C19.2677 15.0292 19.4644 15.2259 19.4644 15.4686V16.193C19.4644 16.4357 19.2677 16.6324 19.0249 16.6324Z" fill="#495560"/>
<path d="M7.202 28.9979C7.63524 28.9775 8.04751 28.8776 8.42596 28.7138C5.35659 28.5869 4.56675 26.2394 4.87512 24.6229C4.92481 24.3625 4.78518 24.1016 4.54173 23.9965C3.092 23.3709 2.89612 21.3917 3.48921 20.7276C3.2785 20.7038 3.06182 20.6996 2.84057 20.7198C1.23651 20.866 -0.00344982 22.2371 7.21096e-06 23.8479C0.0038744 25.6581 1.52784 27.0593 3.28266 26.9727C3.59315 26.9573 3.88108 27.1211 4.05042 27.3818C4.71247 28.401 5.88235 29.0597 7.202 28.9979Z" fill="#D3D3FF"/>
<path d="M12.1885 11.4427C9.12349 11.569 8.36388 8.84039 9.01732 7.52027C9.16058 7.23076 9.07592 6.88218 8.81365 6.69363C7.31066 5.61299 6.76539 2.64427 8.14539 1.13666C7.5264 1.30406 6.96062 1.61642 6.49258 2.03765C6.30607 2.20547 6.03373 2.23084 5.81441 2.10896C5.29509 1.82039 4.68982 1.66787 4.04652 1.69992C2.36301 1.78388 0.999412 3.15152 0.920251 4.83527C0.845134 6.43306 1.9075 7.79508 3.36677 8.1825C3.91006 7.76162 4.5131 7.41597 5.15951 7.15951C5.44609 7.04578 5.77615 7.1342 5.96025 7.38152C6.08195 7.54506 6.21578 7.69892 6.3608 7.84166C6.60291 8.0799 6.7273 8.41107 6.70181 8.7498C6.56265 10.6031 8.01332 12.2549 9.93355 12.2881C10.7925 12.3029 11.5877 11.9807 12.1888 11.4431L12.1885 11.4427Z" fill="#D3D3FF"/>
</g>
<defs>
<clipPath id="clip0_174_1348">
<rect width="30" height="30" fill="white"/>
</clipPath>
</defs>
</svg>
