<svg width="119" height="107" viewBox="0 0 119 107" fill="none" xmlns="http://www.w3.org/2000/svg">
<path d="M110.298 32.5603C102.992 14.9688 80.0806 10.4133 66.1479 22.9708C58.9703 5.73864 36.0739 0.0504501 22.1083 12.8874C8.05737 25.2006 12.0412 46.5697 14.4118 55.1834C18.9932 71.6351 32.6855 90.6189 50.1248 95.0457C77.637 101.225 122.895 64.8336 110.298 32.5603ZM45.0969 42.6953C47.407 33.3971 59.3656 36.0664 57.504 45.4633C55.194 54.7615 43.2354 52.092 45.0969 42.6953ZM46.0311 74.0035C45.7046 74.3454 45.2571 74.5455 44.7846 74.5608C44.3122 74.5761 43.8526 74.4054 43.5046 74.0854C43.1567 73.7654 42.9483 73.3217 42.9241 72.8496C42.8999 72.3775 43.062 71.9148 43.3754 71.5609L70.6606 41.8859C70.987 41.5439 71.4346 41.3437 71.9072 41.3283C72.3797 41.3129 72.8394 41.4836 73.1874 41.8037C73.5353 42.1238 73.7438 42.5676 73.7679 43.0398C73.792 43.512 73.6299 43.9747 73.3163 44.3286L46.0311 74.0035ZM63.8107 78.8949C55.6797 76.7894 58.7195 63.1744 66.9718 64.7254C75.1026 66.8309 72.0632 80.4459 63.8107 78.8949L63.8107 78.8949ZM66.1853 68.2502C62.6348 67.6192 61.1146 74.4448 64.5971 75.3701C68.144 76.0119 69.6666 69.187 66.1853 68.2501L66.1853 68.2502ZM53.9793 44.6768C54.9166 39.9759 49.7578 38.8295 48.6217 43.4817C47.7106 48.1991 52.7869 49.3343 53.9793 44.6768Z" fill="url(#paint0_linear_169_119)"/>
<defs>
<linearGradient id="paint0_linear_169_119" x1="9.99791" y1="42.2735" x2="108.784" y2="64.3109" gradientUnits="userSpaceOnUse">
<stop stop-color="#95CDB2" stop-opacity="0.5"/>
<stop offset="1" stop-color="#95CDB2"/>
</linearGradient>
</defs>
</svg>
